%TF.GenerationSoftware,KiCad,Pcbnew,7.0.8*%
%TF.CreationDate,2023-12-20T10:37:58-05:00*%
%TF.ProjectId,gba-umd,6762612d-756d-4642-9e6b-696361645f70,rev?*%
%TF.SameCoordinates,PX7cc0090PY8eeaea0*%
%TF.FileFunction,Copper,L2,Bot*%
%TF.FilePolarity,Positive*%
%FSLAX46Y46*%
G04 Gerber Fmt 4.6, Leading zero omitted, Abs format (unit mm)*
G04 Created by KiCad (PCBNEW 7.0.8) date 2023-12-20 10:37:58*
%MOMM*%
%LPD*%
G01*
G04 APERTURE LIST*
%TA.AperFunction,ComponentPad*%
%ADD10C,1.524000*%
%TD*%
%TA.AperFunction,ViaPad*%
%ADD11C,0.508000*%
%TD*%
%TA.AperFunction,Conductor*%
%ADD12C,0.177800*%
%TD*%
G04 APERTURE END LIST*
D10*
%TO.P,CON102,1,+3.3V*%
%TO.N,+3V3*%
X5080000Y83820000D03*
%TO.P,CON102,2,SCL*%
%TO.N,/SCL*%
X5080000Y81280000D03*
%TO.P,CON102,3,SDA*%
%TO.N,/SDA*%
X5080000Y78740000D03*
%TO.P,CON102,4,MOSI/IO6*%
%TO.N,unconnected-(CON102A-MOSI{slash}IO6-Pad4)*%
X5080000Y76200000D03*
%TO.P,CON102,5,SCK/IO4*%
%TO.N,unconnected-(CON102A-SCK{slash}IO4-Pad5)*%
X5080000Y73660000D03*
%TO.P,CON102,6,TIMER*%
%TO.N,unconnected-(CON102A-TIMER-Pad6)*%
X5080000Y71120000D03*
%TO.P,CON102,7,A15*%
%TO.N,unconnected-(CON102A-A15-Pad7)*%
X5080000Y68580000D03*
%TO.P,CON102,8,A13*%
%TO.N,unconnected-(CON102A-A13-Pad8)*%
X5080000Y66040000D03*
%TO.P,CON102,9,A18*%
%TO.N,/A18*%
X5080000Y63500000D03*
%TO.P,CON102,10,A16*%
%TO.N,/A16*%
X5080000Y60960000D03*
%TO.P,CON102,11,~{WR}*%
%TO.N,/~{WR}*%
X5080000Y58420000D03*
%TO.P,CON102,12,A10*%
%TO.N,unconnected-(CON102A-A10-Pad12)*%
X5080000Y55880000D03*
%TO.P,CON102,13,A8*%
%TO.N,unconnected-(CON102A-A8-Pad13)*%
X5080000Y53340000D03*
%TO.P,CON102,14,D0*%
%TO.N,/AD0*%
X5080000Y50800000D03*
%TO.P,CON102,15,D14*%
%TO.N,/AD14*%
X5080000Y48260000D03*
%TO.P,CON102,16,D2*%
%TO.N,/AD2*%
X5080000Y45720000D03*
%TO.P,CON102,17,D12*%
%TO.N,/AD12*%
X5080000Y43180000D03*
%TO.P,CON102,18,D10*%
%TO.N,/AD10*%
X5080000Y40640000D03*
%TO.P,CON102,19,D8*%
%TO.N,/AD8*%
X5080000Y38100000D03*
%TO.P,CON102,20,D6*%
%TO.N,/AD6*%
X5080000Y35560000D03*
%TO.P,CON102,21,D4*%
%TO.N,/AD4*%
X5080000Y33020000D03*
%TO.P,CON102,22,IO0*%
%TO.N,unconnected-(CON102A-IO0-Pad22)*%
X5080000Y30480000D03*
%TO.P,CON102,23,IO2*%
%TO.N,unconnected-(CON102A-IO2-Pad23)*%
X5080000Y27940000D03*
%TO.P,CON102,24,~{CE0}*%
%TO.N,/~{AS}*%
X5080000Y25400000D03*
%TO.P,CON102,25,~{CE2}*%
%TO.N,unconnected-(CON102A-~{CE2}-Pad25)*%
X5080000Y22860000D03*
%TO.P,CON102,26,A5*%
%TO.N,unconnected-(CON102A-A5-Pad26)*%
X5080000Y20320000D03*
%TO.P,CON102,27,A3*%
%TO.N,unconnected-(CON102A-A3-Pad27)*%
X5080000Y17780000D03*
%TO.P,CON102,28,A1*%
%TO.N,unconnected-(CON102A-A1-Pad28)*%
X5080000Y15240000D03*
%TO.P,CON102,29,A22*%
%TO.N,/A22*%
X5080000Y12700000D03*
%TO.P,CON102,30,A20*%
%TO.N,/A20*%
X5080000Y10160000D03*
%TO.P,CON102,31,A19*%
%TO.N,/A19*%
X5080000Y7620000D03*
%TO.P,CON102,32,A23*%
%TO.N,/A23*%
X5080000Y5080000D03*
%TO.P,CON102,33,GND*%
%TO.N,GND*%
X22860000Y5080000D03*
%TO.P,CON102,34,+5V*%
%TO.N,unconnected-(CON102B-+5V-Pad34)*%
X22860000Y7620000D03*
%TO.P,CON102,35,A21*%
%TO.N,/A21*%
X22860000Y10160000D03*
%TO.P,CON102,36,A0*%
%TO.N,unconnected-(CON102B-A0-Pad36)*%
X22860000Y12700000D03*
%TO.P,CON102,37,A2*%
%TO.N,unconnected-(CON102B-A2-Pad37)*%
X22860000Y15240000D03*
%TO.P,CON102,38,A4*%
%TO.N,unconnected-(CON102B-A4-Pad38)*%
X22860000Y17780000D03*
%TO.P,CON102,39,~{CE3}*%
%TO.N,unconnected-(CON102B-~{CE3}-Pad39)*%
X22860000Y20320000D03*
%TO.P,CON102,40,~{CE1}*%
%TO.N,/~{SCS}*%
X22860000Y22860000D03*
%TO.P,CON102,41,A6*%
%TO.N,unconnected-(CON102B-A6-Pad41)*%
X22860000Y25400000D03*
%TO.P,CON102,42,IO3*%
%TO.N,/IRQ*%
X22860000Y27940000D03*
%TO.P,CON102,43,IO1*%
%TO.N,unconnected-(CON102B-IO1-Pad43)*%
X22860000Y30480000D03*
%TO.P,CON102,44,D5*%
%TO.N,/AD5*%
X22860000Y33020000D03*
%TO.P,CON102,45,D7*%
%TO.N,/AD7*%
X22860000Y35560000D03*
%TO.P,CON102,46,D9*%
%TO.N,/AD9*%
X22860000Y38100000D03*
%TO.P,CON102,47,D11*%
%TO.N,/AD11*%
X22860000Y40640000D03*
%TO.P,CON102,48,D3*%
%TO.N,/AD3*%
X22860000Y43180000D03*
%TO.P,CON102,49,D13*%
%TO.N,/AD13*%
X22860000Y45720000D03*
%TO.P,CON102,50,D15*%
%TO.N,/AD15*%
X22860000Y48260000D03*
%TO.P,CON102,51,D1*%
%TO.N,/AD1*%
X22860000Y50800000D03*
%TO.P,CON102,52,A7*%
%TO.N,unconnected-(CON102B-A7-Pad52)*%
X22860000Y53340000D03*
%TO.P,CON102,53,A9*%
%TO.N,unconnected-(CON102B-A9-Pad53)*%
X22860000Y55880000D03*
%TO.P,CON102,54,A11*%
%TO.N,unconnected-(CON102B-A11-Pad54)*%
X22860000Y58420000D03*
%TO.P,CON102,55,~{RD}*%
%TO.N,/~{RD}*%
X22860000Y60960000D03*
%TO.P,CON102,56,A17*%
%TO.N,/A17*%
X22860000Y63500000D03*
%TO.P,CON102,57,A12*%
%TO.N,unconnected-(CON102B-A12-Pad57)*%
X22860000Y66040000D03*
%TO.P,CON102,58,A14*%
%TO.N,unconnected-(CON102B-A14-Pad58)*%
X22860000Y68580000D03*
%TO.P,CON102,59,CLK*%
%TO.N,/CLK*%
X22860000Y71120000D03*
%TO.P,CON102,60,NSS/IO5*%
%TO.N,unconnected-(CON102B-NSS{slash}IO5-Pad60)*%
X22860000Y73660000D03*
%TO.P,CON102,61,MISO/IO7*%
%TO.N,unconnected-(CON102B-MISO{slash}IO7-Pad61)*%
X22860000Y76200000D03*
%TO.P,CON102,62,IO8*%
%TO.N,unconnected-(CON102B-IO8-Pad62)*%
X22860000Y78740000D03*
%TO.P,CON102,63,+5V*%
%TO.N,+5V*%
X22860000Y81280000D03*
%TO.P,CON102,64,GND*%
%TO.N,GND*%
X22860000Y83820000D03*
%TD*%
%TO.P,CON101,1,1*%
%TO.N,+3V3*%
X11938000Y83820000D03*
%TO.P,CON101,2,2*%
%TO.N,+5V*%
X11938000Y86360000D03*
%TO.P,CON101,3,3*%
%TO.N,/ID*%
X14478000Y83820000D03*
%TO.P,CON101,4,4*%
%TO.N,/CARTV*%
X14478000Y86360000D03*
%TO.P,CON101,5,5*%
%TO.N,GND*%
X17018000Y83820000D03*
%TO.P,CON101,6,6*%
%TO.N,+3V3*%
X17018000Y86360000D03*
%TD*%
D11*
%TO.N,GND*%
X7620000Y74930000D03*
X13970000Y72390000D03*
X20320000Y76200000D03*
X2540000Y91440000D03*
X2540000Y2540000D03*
X38100000Y76200000D03*
X38100000Y72390000D03*
X41910000Y72390000D03*
X45720000Y72390000D03*
X38100000Y12700000D03*
X38100000Y16510000D03*
X45720000Y16510000D03*
X41910000Y16510000D03*
X33655000Y20955000D03*
X27940000Y20955000D03*
X31115000Y19050000D03*
X45720000Y12700000D03*
X45720000Y76200000D03*
%TO.N,/A21*%
X24815800Y22402800D03*
X24815800Y25781000D03*
%TO.N,/IRQ*%
X27381200Y22352000D03*
%TO.N,/A18*%
X11709400Y56642000D03*
%TO.N,/A16*%
X20955000Y32410400D03*
%TO.N,/AD14*%
X10109200Y39344600D03*
X24079200Y39344600D03*
%TO.N,/AD2*%
X27025600Y56261000D03*
%TO.N,/AD12*%
X25069800Y41910000D03*
X9194800Y43180000D03*
%TO.N,/AD10*%
X8712200Y40640000D03*
X25933400Y45237400D03*
%TO.N,/AD8*%
X27330400Y48183800D03*
X8280400Y38100000D03*
%TO.N,/AD6*%
X26487980Y50249751D03*
X7721600Y35560000D03*
%TO.N,/AD4*%
X25527000Y52070000D03*
%TO.N,/AD9*%
X27279600Y46710600D03*
X27305000Y38100000D03*
%TO.N,/AD13*%
X26720800Y40640000D03*
%TO.N,/AD15*%
X20523200Y36855400D03*
X24104600Y36855400D03*
%TO.N,/A17*%
X19888200Y56616600D03*
%TD*%
D12*
%TO.N,/A21*%
X24815800Y25781000D02*
X24815800Y22402800D01*
%TO.N,/IRQ*%
X27381200Y26619200D02*
X27381200Y22352000D01*
X27000200Y27000200D02*
X27381200Y26619200D01*
X26060400Y27940000D02*
X27000200Y27000200D01*
X22860000Y27940000D02*
X26060400Y27940000D01*
%TO.N,/AD8*%
X8191500Y45631100D02*
X9550400Y46990000D01*
X8191500Y38188900D02*
X8191500Y45631100D01*
X9550400Y46990000D02*
X13335000Y46990000D01*
X8280400Y38100000D02*
X8191500Y38188900D01*
%TO.N,/AD10*%
X8636000Y40716200D02*
X8636000Y43357800D01*
X8712200Y40640000D02*
X8636000Y40716200D01*
X9753600Y44475400D02*
X8636000Y43357800D01*
%TO.N,/A18*%
X9398000Y63500000D02*
X5080000Y63500000D01*
X11709400Y61188600D02*
X9398000Y63500000D01*
X11709400Y56642000D02*
X11709400Y61188600D01*
%TO.N,/A16*%
X3200400Y59080400D02*
X5080000Y60960000D01*
X3200400Y32588200D02*
X3200400Y59080400D01*
X7035800Y32410400D02*
X6350000Y31724600D01*
X20955000Y32410400D02*
X7035800Y32410400D01*
X6350000Y31724600D02*
X4064000Y31724600D01*
X4064000Y31724600D02*
X3200400Y32588200D01*
%TO.N,/AD14*%
X24079200Y39344600D02*
X10109200Y39344600D01*
%TO.N,/AD2*%
X6794500Y49969394D02*
X6794500Y47434500D01*
X25425400Y54660800D02*
X11485906Y54660800D01*
X27025600Y56261000D02*
X25425400Y54660800D01*
X11485906Y54660800D02*
X6794500Y49969394D01*
X6794500Y47434500D02*
X5080000Y45720000D01*
%TO.N,/AD12*%
X25069800Y41910000D02*
X21666200Y41910000D01*
X9194800Y43180000D02*
X20294600Y43180000D01*
X20294600Y43180000D02*
X21564600Y41910000D01*
X21666200Y41910000D02*
X21564600Y41910000D01*
%TO.N,/AD10*%
X16510000Y44475400D02*
X9753600Y44475400D01*
X25171400Y44475400D02*
X24104600Y44475400D01*
X25933400Y45237400D02*
X25171400Y44475400D01*
X24104600Y44475400D02*
X16510000Y44475400D01*
X16510000Y44475400D02*
X12852400Y44475400D01*
%TO.N,/AD8*%
X13335000Y46990000D02*
X12496800Y46990000D01*
X27330400Y48183800D02*
X26136600Y46990000D01*
X26136600Y46990000D02*
X13335000Y46990000D01*
%TO.N,/AD6*%
X13690600Y49530000D02*
X25768229Y49530000D01*
X7721600Y35560000D02*
X7721600Y47955200D01*
X7721600Y47955200D02*
X9296400Y49530000D01*
X25768229Y49530000D02*
X26487980Y50249751D01*
X9296400Y49530000D02*
X13690600Y49530000D01*
%TO.N,/AD4*%
X7188200Y35128200D02*
X5080000Y33020000D01*
X25527000Y52070000D02*
X9398000Y52070000D01*
X9398000Y52070000D02*
X7188200Y49860200D01*
X7188200Y49860200D02*
X7188200Y35128200D01*
%TO.N,/AD9*%
X27279600Y38125400D02*
X27305000Y38100000D01*
X27279600Y46710600D02*
X27279600Y38125400D01*
%TO.N,/AD13*%
X23215600Y46075600D02*
X22860000Y45720000D01*
X26720800Y40640000D02*
X26720800Y45491400D01*
X26720800Y45491400D02*
X26136600Y46075600D01*
X26136600Y46075600D02*
X23215600Y46075600D01*
%TO.N,/AD15*%
X24104600Y36855400D02*
X20523200Y36855400D01*
%TO.N,/A17*%
X20802600Y63500000D02*
X22860000Y63500000D01*
X19888200Y62585600D02*
X20802600Y63500000D01*
X19888200Y56616600D02*
X19888200Y62585600D01*
%TD*%
%TA.AperFunction,Conductor*%
%TO.N,GND*%
G36*
X27273101Y93323935D02*
G01*
X27303165Y93271864D01*
X27304500Y93256600D01*
X27304500Y78808382D01*
X27302943Y78791912D01*
X27300713Y78780222D01*
X27304413Y78721401D01*
X27304500Y78718641D01*
X27304500Y78700017D01*
X27305199Y78694483D01*
X27306833Y78681539D01*
X27307093Y78678793D01*
X27310794Y78619976D01*
X27314474Y78608649D01*
X27318080Y78592513D01*
X27319573Y78580701D01*
X27341273Y78525893D01*
X27342201Y78523314D01*
X27360412Y78467268D01*
X27360412Y78467267D01*
X27366787Y78457222D01*
X27374298Y78442482D01*
X27378682Y78431410D01*
X27413323Y78383730D01*
X27414861Y78381467D01*
X27446447Y78331697D01*
X27446448Y78331696D01*
X27455121Y78323551D01*
X27466060Y78311143D01*
X27473053Y78301518D01*
X27473056Y78301516D01*
X27473058Y78301513D01*
X27518466Y78263949D01*
X27520530Y78262130D01*
X27563494Y78221783D01*
X27563496Y78221782D01*
X27563497Y78221781D01*
X27573922Y78216050D01*
X27587608Y78206750D01*
X27596776Y78199165D01*
X27650080Y78174082D01*
X27652541Y78172829D01*
X27704192Y78144433D01*
X27704194Y78144433D01*
X27704197Y78144431D01*
X27715727Y78141471D01*
X27731288Y78135869D01*
X27742059Y78130800D01*
X27799949Y78119757D01*
X27802612Y78119163D01*
X27859718Y78104500D01*
X27871618Y78104500D01*
X27888088Y78102943D01*
X27890351Y78102512D01*
X27899779Y78100713D01*
X27935646Y78102970D01*
X27958599Y78104413D01*
X27961359Y78104500D01*
X48806600Y78104500D01*
X48863101Y78083935D01*
X48893165Y78031864D01*
X48894500Y78016600D01*
X48894500Y10883400D01*
X48873935Y10826899D01*
X48821864Y10796835D01*
X48806600Y10795500D01*
X28008382Y10795500D01*
X27991912Y10797057D01*
X27980221Y10799287D01*
X27921401Y10795587D01*
X27918641Y10795500D01*
X27900017Y10795500D01*
X27897263Y10795153D01*
X27881536Y10793167D01*
X27878791Y10792907D01*
X27819977Y10789206D01*
X27819974Y10789206D01*
X27819973Y10789205D01*
X27811820Y10786557D01*
X27808645Y10785525D01*
X27792513Y10781920D01*
X27780704Y10780428D01*
X27780701Y10780427D01*
X27725915Y10758736D01*
X27723318Y10757801D01*
X27667270Y10739590D01*
X27667265Y10739588D01*
X27657214Y10733209D01*
X27642479Y10725702D01*
X27631413Y10721321D01*
X27631412Y10721321D01*
X27594833Y10694745D01*
X27583730Y10686678D01*
X27581460Y10685135D01*
X27531695Y10653552D01*
X27531692Y10653550D01*
X27523545Y10644874D01*
X27511142Y10633939D01*
X27501518Y10626947D01*
X27501512Y10626941D01*
X27463948Y10581536D01*
X27462123Y10579466D01*
X27421782Y10536506D01*
X27421779Y10536502D01*
X27416044Y10526070D01*
X27406751Y10512396D01*
X27399167Y10503229D01*
X27399165Y10503225D01*
X27374073Y10449905D01*
X27372820Y10447447D01*
X27344434Y10395812D01*
X27344430Y10395801D01*
X27341468Y10384268D01*
X27335869Y10368715D01*
X27330799Y10357942D01*
X27319756Y10300058D01*
X27319154Y10297365D01*
X27304500Y10240285D01*
X27304500Y10228382D01*
X27302943Y10211912D01*
X27300713Y10200222D01*
X27304413Y10141401D01*
X27304500Y10138641D01*
X27304500Y723400D01*
X27283935Y666899D01*
X27231864Y636835D01*
X27216600Y635500D01*
X723400Y635500D01*
X666899Y656065D01*
X636835Y708136D01*
X635500Y723400D01*
X635500Y5080000D01*
X4007536Y5080000D01*
X4028144Y4870767D01*
X4089170Y4669591D01*
X4089170Y4669590D01*
X4089171Y4669587D01*
X4089172Y4669586D01*
X4188279Y4484171D01*
X4321653Y4321653D01*
X4484171Y4188279D01*
X4669586Y4089172D01*
X4870773Y4028143D01*
X5080000Y4007536D01*
X5289227Y4028143D01*
X5490414Y4089172D01*
X5675829Y4188279D01*
X5838347Y4321653D01*
X5971721Y4484171D01*
X6070828Y4669586D01*
X6131857Y4870773D01*
X6152464Y5080000D01*
X21585149Y5080000D01*
X21604517Y4858623D01*
X21662031Y4643976D01*
X21755947Y4442574D01*
X21755950Y4442569D01*
X21800184Y4379397D01*
X22369193Y4948407D01*
X22393155Y4866799D01*
X22472131Y4743910D01*
X22582530Y4648248D01*
X22715408Y4587565D01*
X22725345Y4586137D01*
X22159395Y4020186D01*
X22222572Y3975948D01*
X22222574Y3975947D01*
X22423975Y3882032D01*
X22638622Y3824518D01*
X22860000Y3805150D01*
X23081377Y3824518D01*
X23296024Y3882032D01*
X23497419Y3975944D01*
X23497425Y3975948D01*
X23560603Y4020187D01*
X22994653Y4586137D01*
X23004592Y4587565D01*
X23137470Y4648248D01*
X23247869Y4743910D01*
X23326845Y4866799D01*
X23350806Y4948405D01*
X23919813Y4379397D01*
X23964052Y4442575D01*
X23964056Y4442581D01*
X24057968Y4643976D01*
X24115482Y4858623D01*
X24134850Y5080000D01*
X24115482Y5301378D01*
X24057968Y5516025D01*
X23964052Y5717426D01*
X23964046Y5717437D01*
X23919814Y5780606D01*
X23350805Y5211598D01*
X23326845Y5293201D01*
X23247869Y5416090D01*
X23137470Y5511752D01*
X23004592Y5572435D01*
X22994651Y5573865D01*
X23560603Y6139816D01*
X23497431Y6184050D01*
X23497426Y6184053D01*
X23296024Y6277969D01*
X23081377Y6335483D01*
X22860000Y6354851D01*
X22638622Y6335483D01*
X22423975Y6277969D01*
X22222582Y6184058D01*
X22222578Y6184055D01*
X22159395Y6139816D01*
X22725347Y5573864D01*
X22715408Y5572435D01*
X22582530Y5511752D01*
X22472131Y5416090D01*
X22393155Y5293201D01*
X22369193Y5211596D01*
X21800184Y5780605D01*
X21755945Y5717422D01*
X21755942Y5717418D01*
X21662031Y5516025D01*
X21604517Y5301378D01*
X21585149Y5080000D01*
X6152464Y5080000D01*
X6131857Y5289227D01*
X6070828Y5490414D01*
X5971721Y5675829D01*
X5838347Y5838347D01*
X5675829Y5971721D01*
X5490414Y6070828D01*
X5490413Y6070829D01*
X5490410Y6070830D01*
X5289233Y6131856D01*
X5289228Y6131857D01*
X5289227Y6131857D01*
X5080000Y6152464D01*
X4870773Y6131857D01*
X4870771Y6131857D01*
X4870766Y6131856D01*
X4669590Y6070830D01*
X4669589Y6070830D01*
X4484170Y5971721D01*
X4321655Y5838349D01*
X4321651Y5838345D01*
X4188279Y5675830D01*
X4089170Y5490411D01*
X4089170Y5490410D01*
X4028144Y5289234D01*
X4007536Y5080000D01*
X635500Y5080000D01*
X635500Y7620000D01*
X4007536Y7620000D01*
X4028144Y7410767D01*
X4089170Y7209591D01*
X4089170Y7209590D01*
X4089171Y7209587D01*
X4089172Y7209586D01*
X4188279Y7024171D01*
X4321653Y6861653D01*
X4484171Y6728279D01*
X4669586Y6629172D01*
X4870773Y6568143D01*
X5080000Y6547536D01*
X5289227Y6568143D01*
X5490414Y6629172D01*
X5675829Y6728279D01*
X5838347Y6861653D01*
X5971721Y7024171D01*
X6070828Y7209586D01*
X6131857Y7410773D01*
X6152464Y7620000D01*
X21787536Y7620000D01*
X21808144Y7410767D01*
X21869170Y7209591D01*
X21869170Y7209590D01*
X21869171Y7209587D01*
X21869172Y7209586D01*
X21968279Y7024171D01*
X22101653Y6861653D01*
X22264171Y6728279D01*
X22449586Y6629172D01*
X22650773Y6568143D01*
X22860000Y6547536D01*
X23069227Y6568143D01*
X23270414Y6629172D01*
X23455829Y6728279D01*
X23618347Y6861653D01*
X23751721Y7024171D01*
X23850828Y7209586D01*
X23911857Y7410773D01*
X23932464Y7620000D01*
X23911857Y7829227D01*
X23850828Y8030414D01*
X23751721Y8215829D01*
X23618347Y8378347D01*
X23455829Y8511721D01*
X23270414Y8610828D01*
X23270413Y8610829D01*
X23270410Y8610830D01*
X23069233Y8671856D01*
X23069228Y8671857D01*
X23069227Y8671857D01*
X22860000Y8692464D01*
X22650773Y8671857D01*
X22650771Y8671857D01*
X22650766Y8671856D01*
X22449590Y8610830D01*
X22449589Y8610830D01*
X22264170Y8511721D01*
X22101655Y8378349D01*
X22101651Y8378345D01*
X21968279Y8215830D01*
X21869170Y8030411D01*
X21869170Y8030410D01*
X21808144Y7829234D01*
X21787536Y7620000D01*
X6152464Y7620000D01*
X6131857Y7829227D01*
X6070828Y8030414D01*
X5971721Y8215829D01*
X5838347Y8378347D01*
X5675829Y8511721D01*
X5490414Y8610828D01*
X5490413Y8610829D01*
X5490410Y8610830D01*
X5289233Y8671856D01*
X5289228Y8671857D01*
X5289227Y8671857D01*
X5080000Y8692464D01*
X4870773Y8671857D01*
X4870771Y8671857D01*
X4870766Y8671856D01*
X4669590Y8610830D01*
X4669589Y8610830D01*
X4484170Y8511721D01*
X4321655Y8378349D01*
X4321651Y8378345D01*
X4188279Y8215830D01*
X4089170Y8030411D01*
X4089170Y8030410D01*
X4028144Y7829234D01*
X4007536Y7620000D01*
X635500Y7620000D01*
X635500Y10160000D01*
X4007536Y10160000D01*
X4027031Y9962059D01*
X4028144Y9950767D01*
X4089170Y9749591D01*
X4089170Y9749590D01*
X4089171Y9749587D01*
X4089172Y9749586D01*
X4188279Y9564171D01*
X4321653Y9401653D01*
X4484171Y9268279D01*
X4669586Y9169172D01*
X4870773Y9108143D01*
X5080000Y9087536D01*
X5289227Y9108143D01*
X5490414Y9169172D01*
X5675829Y9268279D01*
X5838347Y9401653D01*
X5971721Y9564171D01*
X6070828Y9749586D01*
X6131857Y9950773D01*
X6152464Y10160000D01*
X21787536Y10160000D01*
X21807031Y9962059D01*
X21808144Y9950767D01*
X21869170Y9749591D01*
X21869170Y9749590D01*
X21869171Y9749587D01*
X21869172Y9749586D01*
X21968279Y9564171D01*
X22101653Y9401653D01*
X22264171Y9268279D01*
X22449586Y9169172D01*
X22650773Y9108143D01*
X22860000Y9087536D01*
X23069227Y9108143D01*
X23270414Y9169172D01*
X23455829Y9268279D01*
X23618347Y9401653D01*
X23751721Y9564171D01*
X23850828Y9749586D01*
X23911857Y9950773D01*
X23932464Y10160000D01*
X23911857Y10369227D01*
X23850828Y10570414D01*
X23751721Y10755829D01*
X23618347Y10918347D01*
X23455829Y11051721D01*
X23270414Y11150828D01*
X23270413Y11150829D01*
X23270410Y11150830D01*
X23069233Y11211856D01*
X23069228Y11211857D01*
X23069227Y11211857D01*
X22860000Y11232464D01*
X22650773Y11211857D01*
X22650771Y11211857D01*
X22650766Y11211856D01*
X22449590Y11150830D01*
X22449589Y11150830D01*
X22264170Y11051721D01*
X22101655Y10918349D01*
X22101651Y10918345D01*
X21968279Y10755830D01*
X21869170Y10570411D01*
X21869170Y10570410D01*
X21808144Y10369234D01*
X21808143Y10369229D01*
X21808143Y10369227D01*
X21787536Y10160000D01*
X6152464Y10160000D01*
X6131857Y10369227D01*
X6070828Y10570414D01*
X5971721Y10755829D01*
X5838347Y10918347D01*
X5675829Y11051721D01*
X5490414Y11150828D01*
X5490413Y11150829D01*
X5490410Y11150830D01*
X5289233Y11211856D01*
X5289228Y11211857D01*
X5289227Y11211857D01*
X5080000Y11232464D01*
X4870773Y11211857D01*
X4870771Y11211857D01*
X4870766Y11211856D01*
X4669590Y11150830D01*
X4669589Y11150830D01*
X4484170Y11051721D01*
X4321655Y10918349D01*
X4321651Y10918345D01*
X4188279Y10755830D01*
X4089170Y10570411D01*
X4089170Y10570410D01*
X4028144Y10369234D01*
X4028143Y10369229D01*
X4028143Y10369227D01*
X4007536Y10160000D01*
X635500Y10160000D01*
X635500Y12700000D01*
X4007536Y12700000D01*
X4028144Y12490767D01*
X4089170Y12289591D01*
X4089170Y12289590D01*
X4089171Y12289587D01*
X4089172Y12289586D01*
X4188279Y12104171D01*
X4321653Y11941653D01*
X4484171Y11808279D01*
X4669586Y11709172D01*
X4870773Y11648143D01*
X5080000Y11627536D01*
X5289227Y11648143D01*
X5490414Y11709172D01*
X5675829Y11808279D01*
X5838347Y11941653D01*
X5971721Y12104171D01*
X6070828Y12289586D01*
X6131857Y12490773D01*
X6152464Y12700000D01*
X21787536Y12700000D01*
X21808144Y12490767D01*
X21869170Y12289591D01*
X21869170Y12289590D01*
X21869171Y12289587D01*
X21869172Y12289586D01*
X21968279Y12104171D01*
X22101653Y11941653D01*
X22264171Y11808279D01*
X22449586Y11709172D01*
X22650773Y11648143D01*
X22860000Y11627536D01*
X23069227Y11648143D01*
X23270414Y11709172D01*
X23455829Y11808279D01*
X23618347Y11941653D01*
X23751721Y12104171D01*
X23850828Y12289586D01*
X23911857Y12490773D01*
X23932464Y12700000D01*
X23911857Y12909227D01*
X23850828Y13110414D01*
X23751721Y13295829D01*
X23618347Y13458347D01*
X23455829Y13591721D01*
X23270414Y13690828D01*
X23270413Y13690829D01*
X23270410Y13690830D01*
X23069233Y13751856D01*
X23069228Y13751857D01*
X23069227Y13751857D01*
X22860000Y13772464D01*
X22650773Y13751857D01*
X22650771Y13751857D01*
X22650766Y13751856D01*
X22449590Y13690830D01*
X22449589Y13690830D01*
X22264170Y13591721D01*
X22101655Y13458349D01*
X22101651Y13458345D01*
X21968279Y13295830D01*
X21869170Y13110411D01*
X21869170Y13110410D01*
X21808144Y12909234D01*
X21787536Y12700000D01*
X6152464Y12700000D01*
X6131857Y12909227D01*
X6070828Y13110414D01*
X5971721Y13295829D01*
X5838347Y13458347D01*
X5675829Y13591721D01*
X5490414Y13690828D01*
X5490413Y13690829D01*
X5490410Y13690830D01*
X5289233Y13751856D01*
X5289228Y13751857D01*
X5289227Y13751857D01*
X5080000Y13772464D01*
X4870773Y13751857D01*
X4870771Y13751857D01*
X4870766Y13751856D01*
X4669590Y13690830D01*
X4669589Y13690830D01*
X4484170Y13591721D01*
X4321655Y13458349D01*
X4321651Y13458345D01*
X4188279Y13295830D01*
X4089170Y13110411D01*
X4089170Y13110410D01*
X4028144Y12909234D01*
X4007536Y12700000D01*
X635500Y12700000D01*
X635500Y15240000D01*
X4007536Y15240000D01*
X4028144Y15030767D01*
X4089170Y14829591D01*
X4089170Y14829590D01*
X4089171Y14829587D01*
X4089172Y14829586D01*
X4188279Y14644171D01*
X4321653Y14481653D01*
X4484171Y14348279D01*
X4669586Y14249172D01*
X4870773Y14188143D01*
X5080000Y14167536D01*
X5289227Y14188143D01*
X5490414Y14249172D01*
X5675829Y14348279D01*
X5838347Y14481653D01*
X5971721Y14644171D01*
X6070828Y14829586D01*
X6131857Y15030773D01*
X6152464Y15240000D01*
X21787536Y15240000D01*
X21808144Y15030767D01*
X21869170Y14829591D01*
X21869170Y14829590D01*
X21869171Y14829587D01*
X21869172Y14829586D01*
X21968279Y14644171D01*
X22101653Y14481653D01*
X22264171Y14348279D01*
X22449586Y14249172D01*
X22650773Y14188143D01*
X22860000Y14167536D01*
X23069227Y14188143D01*
X23270414Y14249172D01*
X23455829Y14348279D01*
X23618347Y14481653D01*
X23751721Y14644171D01*
X23850828Y14829586D01*
X23911857Y15030773D01*
X23932464Y15240000D01*
X23911857Y15449227D01*
X23850828Y15650414D01*
X23751721Y15835829D01*
X23618347Y15998347D01*
X23455829Y16131721D01*
X23270414Y16230828D01*
X23270413Y16230829D01*
X23270410Y16230830D01*
X23069233Y16291856D01*
X23069228Y16291857D01*
X23069227Y16291857D01*
X22860000Y16312464D01*
X22650773Y16291857D01*
X22650771Y16291857D01*
X22650766Y16291856D01*
X22449590Y16230830D01*
X22449589Y16230830D01*
X22264170Y16131721D01*
X22101655Y15998349D01*
X22101651Y15998345D01*
X21968279Y15835830D01*
X21869170Y15650411D01*
X21869170Y15650410D01*
X21808144Y15449234D01*
X21787536Y15240000D01*
X6152464Y15240000D01*
X6131857Y15449227D01*
X6070828Y15650414D01*
X5971721Y15835829D01*
X5838347Y15998347D01*
X5675829Y16131721D01*
X5490414Y16230828D01*
X5490413Y16230829D01*
X5490410Y16230830D01*
X5289233Y16291856D01*
X5289228Y16291857D01*
X5289227Y16291857D01*
X5080000Y16312464D01*
X4870773Y16291857D01*
X4870771Y16291857D01*
X4870766Y16291856D01*
X4669590Y16230830D01*
X4669589Y16230830D01*
X4484170Y16131721D01*
X4321655Y15998349D01*
X4321651Y15998345D01*
X4188279Y15835830D01*
X4089170Y15650411D01*
X4089170Y15650410D01*
X4028144Y15449234D01*
X4007536Y15240000D01*
X635500Y15240000D01*
X635500Y17780000D01*
X4007536Y17780000D01*
X4028144Y17570767D01*
X4089170Y17369591D01*
X4089170Y17369590D01*
X4089171Y17369587D01*
X4089172Y17369586D01*
X4188279Y17184171D01*
X4321653Y17021653D01*
X4484171Y16888279D01*
X4669586Y16789172D01*
X4870773Y16728143D01*
X5080000Y16707536D01*
X5289227Y16728143D01*
X5490414Y16789172D01*
X5675829Y16888279D01*
X5838347Y17021653D01*
X5971721Y17184171D01*
X6070828Y17369586D01*
X6131857Y17570773D01*
X6152464Y17780000D01*
X21787536Y17780000D01*
X21808144Y17570767D01*
X21869170Y17369591D01*
X21869170Y17369590D01*
X21869171Y17369587D01*
X21869172Y17369586D01*
X21968279Y17184171D01*
X22101653Y17021653D01*
X22264171Y16888279D01*
X22449586Y16789172D01*
X22650773Y16728143D01*
X22860000Y16707536D01*
X23069227Y16728143D01*
X23270414Y16789172D01*
X23455829Y16888279D01*
X23618347Y17021653D01*
X23751721Y17184171D01*
X23850828Y17369586D01*
X23911857Y17570773D01*
X23932464Y17780000D01*
X23911857Y17989227D01*
X23850828Y18190414D01*
X23751721Y18375829D01*
X23618347Y18538347D01*
X23455829Y18671721D01*
X23270414Y18770828D01*
X23270413Y18770829D01*
X23270410Y18770830D01*
X23069233Y18831856D01*
X23069228Y18831857D01*
X23069227Y18831857D01*
X22860000Y18852464D01*
X22650773Y18831857D01*
X22650771Y18831857D01*
X22650766Y18831856D01*
X22449590Y18770830D01*
X22449589Y18770830D01*
X22264170Y18671721D01*
X22101655Y18538349D01*
X22101651Y18538345D01*
X21968279Y18375830D01*
X21869170Y18190411D01*
X21869170Y18190410D01*
X21808144Y17989234D01*
X21787536Y17780000D01*
X6152464Y17780000D01*
X6131857Y17989227D01*
X6070828Y18190414D01*
X5971721Y18375829D01*
X5838347Y18538347D01*
X5675829Y18671721D01*
X5490414Y18770828D01*
X5490413Y18770829D01*
X5490410Y18770830D01*
X5289233Y18831856D01*
X5289228Y18831857D01*
X5289227Y18831857D01*
X5080000Y18852464D01*
X4870773Y18831857D01*
X4870771Y18831857D01*
X4870766Y18831856D01*
X4669590Y18770830D01*
X4669589Y18770830D01*
X4484170Y18671721D01*
X4321655Y18538349D01*
X4321651Y18538345D01*
X4188279Y18375830D01*
X4089170Y18190411D01*
X4089170Y18190410D01*
X4028144Y17989234D01*
X4007536Y17780000D01*
X635500Y17780000D01*
X635500Y20320000D01*
X4007536Y20320000D01*
X4028144Y20110767D01*
X4089170Y19909591D01*
X4089170Y19909590D01*
X4089171Y19909587D01*
X4089172Y19909586D01*
X4188279Y19724171D01*
X4321653Y19561653D01*
X4484171Y19428279D01*
X4669586Y19329172D01*
X4870773Y19268143D01*
X5080000Y19247536D01*
X5289227Y19268143D01*
X5490414Y19329172D01*
X5675829Y19428279D01*
X5838347Y19561653D01*
X5971721Y19724171D01*
X6070828Y19909586D01*
X6131857Y20110773D01*
X6152464Y20320000D01*
X21787536Y20320000D01*
X21808144Y20110767D01*
X21869170Y19909591D01*
X21869170Y19909590D01*
X21869171Y19909587D01*
X21869172Y19909586D01*
X21968279Y19724171D01*
X22101653Y19561653D01*
X22264171Y19428279D01*
X22449586Y19329172D01*
X22650773Y19268143D01*
X22860000Y19247536D01*
X23069227Y19268143D01*
X23270414Y19329172D01*
X23455829Y19428279D01*
X23618347Y19561653D01*
X23751721Y19724171D01*
X23850828Y19909586D01*
X23911857Y20110773D01*
X23932464Y20320000D01*
X23911857Y20529227D01*
X23850828Y20730414D01*
X23751721Y20915829D01*
X23618347Y21078347D01*
X23455829Y21211721D01*
X23270414Y21310828D01*
X23270413Y21310829D01*
X23270410Y21310830D01*
X23069233Y21371856D01*
X23069228Y21371857D01*
X23069227Y21371857D01*
X22860000Y21392464D01*
X22650773Y21371857D01*
X22650771Y21371857D01*
X22650766Y21371856D01*
X22449590Y21310830D01*
X22449589Y21310830D01*
X22264170Y21211721D01*
X22101655Y21078349D01*
X22101651Y21078345D01*
X21968279Y20915830D01*
X21869170Y20730411D01*
X21869170Y20730410D01*
X21808144Y20529234D01*
X21787536Y20320000D01*
X6152464Y20320000D01*
X6131857Y20529227D01*
X6070828Y20730414D01*
X5971721Y20915829D01*
X5838347Y21078347D01*
X5675829Y21211721D01*
X5490414Y21310828D01*
X5490413Y21310829D01*
X5490410Y21310830D01*
X5289233Y21371856D01*
X5289228Y21371857D01*
X5289227Y21371857D01*
X5080000Y21392464D01*
X4870773Y21371857D01*
X4870771Y21371857D01*
X4870766Y21371856D01*
X4669590Y21310830D01*
X4669589Y21310830D01*
X4484170Y21211721D01*
X4321655Y21078349D01*
X4321651Y21078345D01*
X4188279Y20915830D01*
X4089170Y20730411D01*
X4089170Y20730410D01*
X4028144Y20529234D01*
X4007536Y20320000D01*
X635500Y20320000D01*
X635500Y22860000D01*
X4007536Y22860000D01*
X4024785Y22684863D01*
X4028144Y22650767D01*
X4089170Y22449591D01*
X4089170Y22449590D01*
X4089171Y22449587D01*
X4089172Y22449586D01*
X4188279Y22264171D01*
X4321653Y22101653D01*
X4484171Y21968279D01*
X4669586Y21869172D01*
X4669588Y21869172D01*
X4669589Y21869171D01*
X4688422Y21863458D01*
X4870773Y21808143D01*
X5080000Y21787536D01*
X5289227Y21808143D01*
X5490414Y21869172D01*
X5675829Y21968279D01*
X5838347Y22101653D01*
X5971721Y22264171D01*
X6070828Y22449586D01*
X6131857Y22650773D01*
X6152464Y22860000D01*
X21787536Y22860000D01*
X21804785Y22684863D01*
X21808144Y22650767D01*
X21869170Y22449591D01*
X21869170Y22449590D01*
X21869171Y22449587D01*
X21869172Y22449586D01*
X21968279Y22264171D01*
X22101653Y22101653D01*
X22264171Y21968279D01*
X22449586Y21869172D01*
X22449588Y21869172D01*
X22449589Y21869171D01*
X22468422Y21863458D01*
X22650773Y21808143D01*
X22860000Y21787536D01*
X23069227Y21808143D01*
X23270414Y21869172D01*
X23455829Y21968279D01*
X23618347Y22101653D01*
X23751721Y22264171D01*
X23825820Y22402800D01*
X24251674Y22402800D01*
X24270896Y22256793D01*
X24327253Y22120737D01*
X24327257Y22120730D01*
X24416897Y22003910D01*
X24416899Y22003908D01*
X24416903Y22003903D01*
X24416907Y22003900D01*
X24416909Y22003898D01*
X24533729Y21914258D01*
X24533734Y21914255D01*
X24533737Y21914253D01*
X24669793Y21857896D01*
X24815800Y21838674D01*
X24961807Y21857896D01*
X25097863Y21914253D01*
X25214697Y22003903D01*
X25289703Y22101652D01*
X25304342Y22120730D01*
X25304343Y22120732D01*
X25304347Y22120737D01*
X25360704Y22256793D01*
X25379926Y22402800D01*
X25360704Y22548807D01*
X25304347Y22684863D01*
X25228164Y22784147D01*
X25210000Y22837657D01*
X25210000Y25346145D01*
X25228164Y25399654D01*
X25304347Y25498937D01*
X25360704Y25634993D01*
X25379926Y25781000D01*
X25360704Y25927007D01*
X25304347Y26063063D01*
X25304345Y26063066D01*
X25304342Y26063071D01*
X25214702Y26179891D01*
X25214700Y26179893D01*
X25214697Y26179897D01*
X25214692Y26179901D01*
X25214690Y26179903D01*
X25097870Y26269543D01*
X25097863Y26269547D01*
X24961807Y26325904D01*
X24815800Y26345126D01*
X24669792Y26325904D01*
X24533736Y26269547D01*
X24533729Y26269543D01*
X24416909Y26179903D01*
X24416897Y26179891D01*
X24327257Y26063071D01*
X24327253Y26063064D01*
X24270896Y25927008D01*
X24251674Y25781001D01*
X24251674Y25781000D01*
X24270896Y25634993D01*
X24327253Y25498937D01*
X24327254Y25498935D01*
X24355478Y25462154D01*
X24403435Y25399654D01*
X24421600Y25346145D01*
X24421600Y22837657D01*
X24403436Y22784147D01*
X24327254Y22684865D01*
X24327253Y22684864D01*
X24270896Y22548808D01*
X24251674Y22402801D01*
X24251674Y22402800D01*
X23825820Y22402800D01*
X23850828Y22449586D01*
X23911857Y22650773D01*
X23932464Y22860000D01*
X23911857Y23069227D01*
X23850828Y23270414D01*
X23751721Y23455829D01*
X23618347Y23618347D01*
X23455829Y23751721D01*
X23270414Y23850828D01*
X23270413Y23850829D01*
X23270410Y23850830D01*
X23069233Y23911856D01*
X23069228Y23911857D01*
X23069227Y23911857D01*
X22860000Y23932464D01*
X22650773Y23911857D01*
X22650771Y23911857D01*
X22650766Y23911856D01*
X22449590Y23850830D01*
X22449589Y23850830D01*
X22264170Y23751721D01*
X22101655Y23618349D01*
X22101651Y23618345D01*
X21968279Y23455830D01*
X21869170Y23270411D01*
X21869170Y23270410D01*
X21808144Y23069234D01*
X21808143Y23069229D01*
X21808143Y23069227D01*
X21787536Y22860000D01*
X6152464Y22860000D01*
X6131857Y23069227D01*
X6070828Y23270414D01*
X5971721Y23455829D01*
X5838347Y23618347D01*
X5675829Y23751721D01*
X5490414Y23850828D01*
X5490413Y23850829D01*
X5490410Y23850830D01*
X5289233Y23911856D01*
X5289228Y23911857D01*
X5289227Y23911857D01*
X5080000Y23932464D01*
X4870773Y23911857D01*
X4870771Y23911857D01*
X4870766Y23911856D01*
X4669590Y23850830D01*
X4669589Y23850830D01*
X4484170Y23751721D01*
X4321655Y23618349D01*
X4321651Y23618345D01*
X4188279Y23455830D01*
X4089170Y23270411D01*
X4089170Y23270410D01*
X4028144Y23069234D01*
X4028143Y23069229D01*
X4028143Y23069227D01*
X4007536Y22860000D01*
X635500Y22860000D01*
X635500Y25400000D01*
X4007536Y25400000D01*
X4028144Y25190767D01*
X4089170Y24989591D01*
X4089170Y24989590D01*
X4089171Y24989587D01*
X4089172Y24989586D01*
X4188279Y24804171D01*
X4321653Y24641653D01*
X4484171Y24508279D01*
X4669586Y24409172D01*
X4870773Y24348143D01*
X5080000Y24327536D01*
X5289227Y24348143D01*
X5490414Y24409172D01*
X5675829Y24508279D01*
X5838347Y24641653D01*
X5971721Y24804171D01*
X6070828Y24989586D01*
X6131857Y25190773D01*
X6152464Y25400000D01*
X21787536Y25400000D01*
X21808144Y25190767D01*
X21869170Y24989591D01*
X21869170Y24989590D01*
X21869171Y24989587D01*
X21869172Y24989586D01*
X21968279Y24804171D01*
X22101653Y24641653D01*
X22264171Y24508279D01*
X22449586Y24409172D01*
X22650773Y24348143D01*
X22860000Y24327536D01*
X23069227Y24348143D01*
X23270414Y24409172D01*
X23455829Y24508279D01*
X23618347Y24641653D01*
X23751721Y24804171D01*
X23850828Y24989586D01*
X23911857Y25190773D01*
X23932464Y25400000D01*
X23911857Y25609227D01*
X23850828Y25810414D01*
X23751721Y25995829D01*
X23618347Y26158347D01*
X23455829Y26291721D01*
X23270414Y26390828D01*
X23270413Y26390829D01*
X23270410Y26390830D01*
X23069233Y26451856D01*
X23069228Y26451857D01*
X23069227Y26451857D01*
X22860000Y26472464D01*
X22650773Y26451857D01*
X22650771Y26451857D01*
X22650766Y26451856D01*
X22449590Y26390830D01*
X22449589Y26390830D01*
X22264170Y26291721D01*
X22101655Y26158349D01*
X22101651Y26158345D01*
X21968279Y25995830D01*
X21869170Y25810411D01*
X21869170Y25810410D01*
X21808144Y25609234D01*
X21808143Y25609229D01*
X21808143Y25609227D01*
X21797280Y25498935D01*
X21787536Y25400000D01*
X6152464Y25400000D01*
X6131857Y25609227D01*
X6070828Y25810414D01*
X5971721Y25995829D01*
X5838347Y26158347D01*
X5675829Y26291721D01*
X5490414Y26390828D01*
X5490413Y26390829D01*
X5490410Y26390830D01*
X5289233Y26451856D01*
X5289228Y26451857D01*
X5289227Y26451857D01*
X5080000Y26472464D01*
X4870773Y26451857D01*
X4870771Y26451857D01*
X4870766Y26451856D01*
X4669590Y26390830D01*
X4669589Y26390830D01*
X4484170Y26291721D01*
X4321655Y26158349D01*
X4321651Y26158345D01*
X4188279Y25995830D01*
X4089170Y25810411D01*
X4089170Y25810410D01*
X4028144Y25609234D01*
X4028143Y25609229D01*
X4028143Y25609227D01*
X4017280Y25498935D01*
X4007536Y25400000D01*
X635500Y25400000D01*
X635500Y27940000D01*
X4007536Y27940000D01*
X4028144Y27730767D01*
X4089170Y27529591D01*
X4089170Y27529590D01*
X4089171Y27529587D01*
X4089172Y27529586D01*
X4188279Y27344171D01*
X4321653Y27181653D01*
X4484171Y27048279D01*
X4669586Y26949172D01*
X4870773Y26888143D01*
X5080000Y26867536D01*
X5289227Y26888143D01*
X5490414Y26949172D01*
X5675829Y27048279D01*
X5838347Y27181653D01*
X5971721Y27344171D01*
X6070828Y27529586D01*
X6131857Y27730773D01*
X6152464Y27940000D01*
X21787536Y27940000D01*
X21808144Y27730767D01*
X21869170Y27529591D01*
X21869170Y27529590D01*
X21869171Y27529587D01*
X21869172Y27529586D01*
X21968279Y27344171D01*
X22101653Y27181653D01*
X22264171Y27048279D01*
X22449586Y26949172D01*
X22650773Y26888143D01*
X22860000Y26867536D01*
X23069227Y26888143D01*
X23270414Y26949172D01*
X23455829Y27048279D01*
X23618347Y27181653D01*
X23751721Y27344171D01*
X23834659Y27499336D01*
X23879430Y27539471D01*
X23912180Y27545800D01*
X25860707Y27545800D01*
X25917208Y27525235D01*
X25922862Y27520055D01*
X26961255Y26481662D01*
X26986666Y26427168D01*
X26987000Y26419507D01*
X26987000Y22786857D01*
X26968836Y22733347D01*
X26892654Y22634065D01*
X26892653Y22634064D01*
X26836296Y22498008D01*
X26817074Y22352001D01*
X26817074Y22352000D01*
X26836296Y22205993D01*
X26892653Y22069937D01*
X26892657Y22069930D01*
X26982297Y21953110D01*
X26982299Y21953108D01*
X26982303Y21953103D01*
X26982307Y21953100D01*
X26982309Y21953098D01*
X27099129Y21863458D01*
X27099134Y21863455D01*
X27099137Y21863453D01*
X27235193Y21807096D01*
X27381200Y21787874D01*
X27527207Y21807096D01*
X27663263Y21863453D01*
X27670717Y21869172D01*
X27780090Y21953098D01*
X27780097Y21953103D01*
X27869747Y22069937D01*
X27926104Y22205993D01*
X27945326Y22352000D01*
X27926104Y22498007D01*
X27869747Y22634063D01*
X27793564Y22733347D01*
X27775400Y22786857D01*
X27775400Y26681637D01*
X27767832Y26704927D01*
X27764611Y26718342D01*
X27760780Y26742531D01*
X27760780Y26742532D01*
X27760780Y26742533D01*
X27749657Y26764362D01*
X27744381Y26777103D01*
X27736815Y26800390D01*
X27736814Y26800392D01*
X27722416Y26820210D01*
X27715212Y26831966D01*
X27712917Y26836468D01*
X27704090Y26853793D01*
X27615793Y26942090D01*
X27257003Y27300880D01*
X27012083Y27545800D01*
X26317204Y28240680D01*
X26294992Y28262891D01*
X26284946Y28268010D01*
X26273165Y28274013D01*
X26261414Y28281214D01*
X26241594Y28295613D01*
X26218293Y28303185D01*
X26205558Y28308460D01*
X26183734Y28319580D01*
X26180107Y28320155D01*
X26159526Y28323415D01*
X26146135Y28326630D01*
X26122835Y28334200D01*
X26122834Y28334200D01*
X23912180Y28334200D01*
X23855679Y28354765D01*
X23834659Y28380664D01*
X23751720Y28535830D01*
X23618347Y28698347D01*
X23455829Y28831721D01*
X23270414Y28930828D01*
X23270413Y28930829D01*
X23270410Y28930830D01*
X23069233Y28991856D01*
X23069228Y28991857D01*
X23069227Y28991857D01*
X22860000Y29012464D01*
X22650773Y28991857D01*
X22650771Y28991857D01*
X22650766Y28991856D01*
X22449590Y28930830D01*
X22449589Y28930830D01*
X22264170Y28831721D01*
X22101655Y28698349D01*
X22101651Y28698345D01*
X21968279Y28535830D01*
X21869170Y28350411D01*
X21869170Y28350410D01*
X21808144Y28149234D01*
X21787536Y27940000D01*
X6152464Y27940000D01*
X6131857Y28149227D01*
X6070828Y28350414D01*
X5971721Y28535829D01*
X5838347Y28698347D01*
X5675829Y28831721D01*
X5490414Y28930828D01*
X5490413Y28930829D01*
X5490410Y28930830D01*
X5289233Y28991856D01*
X5289228Y28991857D01*
X5289227Y28991857D01*
X5080000Y29012464D01*
X4870773Y28991857D01*
X4870771Y28991857D01*
X4870766Y28991856D01*
X4669590Y28930830D01*
X4669589Y28930830D01*
X4484170Y28831721D01*
X4321655Y28698349D01*
X4321651Y28698345D01*
X4188279Y28535830D01*
X4089170Y28350411D01*
X4089170Y28350410D01*
X4028144Y28149234D01*
X4007536Y27940000D01*
X635500Y27940000D01*
X635500Y32525765D01*
X2806200Y32525765D01*
X2813770Y32502465D01*
X2816985Y32489074D01*
X2820245Y32468493D01*
X2820820Y32464866D01*
X2831940Y32443042D01*
X2837215Y32430307D01*
X2844787Y32407007D01*
X2844787Y32407005D01*
X2859186Y32387186D01*
X2866387Y32375435D01*
X2877509Y32353609D01*
X2877509Y32353608D01*
X2899720Y32331396D01*
X3365620Y31865497D01*
X3741110Y31490007D01*
X3829407Y31401710D01*
X3846732Y31392883D01*
X3851234Y31390588D01*
X3862987Y31383386D01*
X3882806Y31368987D01*
X3906100Y31361419D01*
X3918837Y31356143D01*
X3940667Y31345020D01*
X3964860Y31341189D01*
X3978267Y31337970D01*
X4001565Y31330400D01*
X4032974Y31330400D01*
X4211351Y31330400D01*
X4267852Y31309835D01*
X4297916Y31257764D01*
X4287475Y31198550D01*
X4279303Y31186744D01*
X4231924Y31129012D01*
X4188279Y31075830D01*
X4089170Y30890411D01*
X4089170Y30890410D01*
X4028144Y30689234D01*
X4007536Y30480000D01*
X4028144Y30270767D01*
X4089170Y30069591D01*
X4089170Y30069590D01*
X4089171Y30069587D01*
X4089172Y30069586D01*
X4188279Y29884171D01*
X4321653Y29721653D01*
X4484171Y29588279D01*
X4669586Y29489172D01*
X4870773Y29428143D01*
X5080000Y29407536D01*
X5289227Y29428143D01*
X5490414Y29489172D01*
X5675829Y29588279D01*
X5838347Y29721653D01*
X5971721Y29884171D01*
X6070828Y30069586D01*
X6131857Y30270773D01*
X6152464Y30480000D01*
X21787536Y30480000D01*
X21808144Y30270767D01*
X21869170Y30069591D01*
X21869170Y30069590D01*
X21869171Y30069587D01*
X21869172Y30069586D01*
X21968279Y29884171D01*
X22101653Y29721653D01*
X22264171Y29588279D01*
X22449586Y29489172D01*
X22650773Y29428143D01*
X22860000Y29407536D01*
X23069227Y29428143D01*
X23270414Y29489172D01*
X23455829Y29588279D01*
X23618347Y29721653D01*
X23751721Y29884171D01*
X23850828Y30069586D01*
X23911857Y30270773D01*
X23932464Y30480000D01*
X23911857Y30689227D01*
X23850828Y30890414D01*
X23751721Y31075829D01*
X23618347Y31238347D01*
X23455829Y31371721D01*
X23270414Y31470828D01*
X23270413Y31470829D01*
X23270410Y31470830D01*
X23069233Y31531856D01*
X23069228Y31531857D01*
X23069227Y31531857D01*
X22860000Y31552464D01*
X22650773Y31531857D01*
X22650771Y31531857D01*
X22650766Y31531856D01*
X22449590Y31470830D01*
X22449589Y31470830D01*
X22264170Y31371721D01*
X22101655Y31238349D01*
X22101651Y31238345D01*
X21968279Y31075830D01*
X21869170Y30890411D01*
X21869170Y30890410D01*
X21808144Y30689234D01*
X21787536Y30480000D01*
X6152464Y30480000D01*
X6131857Y30689227D01*
X6070828Y30890414D01*
X5971721Y31075829D01*
X5880700Y31186739D01*
X5860754Y31243459D01*
X5881934Y31299732D01*
X5934331Y31329226D01*
X5948649Y31330400D01*
X6412434Y31330400D01*
X6412435Y31330400D01*
X6435729Y31337970D01*
X6449138Y31341189D01*
X6473333Y31345020D01*
X6495159Y31356142D01*
X6507897Y31361418D01*
X6531194Y31368987D01*
X6551015Y31383389D01*
X6562761Y31390587D01*
X6584593Y31401710D01*
X6672890Y31490007D01*
X7173338Y31990455D01*
X7227832Y32015866D01*
X7235493Y32016200D01*
X20520144Y32016200D01*
X20573653Y31998037D01*
X20672937Y31921853D01*
X20808993Y31865496D01*
X20955000Y31846274D01*
X21101007Y31865496D01*
X21237063Y31921853D01*
X21353897Y32011503D01*
X21436229Y32118800D01*
X21443542Y32128330D01*
X21443543Y32128332D01*
X21443547Y32128337D01*
X21499904Y32264393D01*
X21519126Y32410400D01*
X21499904Y32556407D01*
X21443547Y32692463D01*
X21443545Y32692466D01*
X21443542Y32692471D01*
X21353902Y32809291D01*
X21353900Y32809293D01*
X21353897Y32809297D01*
X21353892Y32809301D01*
X21353890Y32809303D01*
X21237070Y32898943D01*
X21237063Y32898947D01*
X21101007Y32955304D01*
X20955000Y32974526D01*
X20808992Y32955304D01*
X20672936Y32898947D01*
X20672935Y32898946D01*
X20573654Y32822764D01*
X20520144Y32804600D01*
X6973361Y32804600D01*
X6950064Y32797031D01*
X6936660Y32793813D01*
X6912466Y32789981D01*
X6912465Y32789980D01*
X6890638Y32778859D01*
X6877900Y32773583D01*
X6854606Y32766014D01*
X6834786Y32751615D01*
X6823034Y32744413D01*
X6801206Y32733290D01*
X6212462Y32144545D01*
X6157968Y32119134D01*
X6150307Y32118800D01*
X5906959Y32118800D01*
X5850458Y32139365D01*
X5820394Y32191436D01*
X5830835Y32250650D01*
X5839006Y32262458D01*
X5971721Y32424171D01*
X6070828Y32609586D01*
X6131857Y32810773D01*
X6152464Y33020000D01*
X21787536Y33020000D01*
X21808144Y32810767D01*
X21869170Y32609591D01*
X21869170Y32609590D01*
X21869171Y32609587D01*
X21869172Y32609586D01*
X21968279Y32424171D01*
X22101653Y32261653D01*
X22264171Y32128279D01*
X22449586Y32029172D01*
X22449588Y32029172D01*
X22449589Y32029171D01*
X22577219Y31990455D01*
X22650773Y31968143D01*
X22860000Y31947536D01*
X23069227Y31968143D01*
X23270414Y32029172D01*
X23455829Y32128279D01*
X23618347Y32261653D01*
X23751721Y32424171D01*
X23850828Y32609586D01*
X23911857Y32810773D01*
X23932464Y33020000D01*
X23911857Y33229227D01*
X23850828Y33430414D01*
X23751721Y33615829D01*
X23618347Y33778347D01*
X23455829Y33911721D01*
X23270414Y34010828D01*
X23270413Y34010829D01*
X23270410Y34010830D01*
X23069233Y34071856D01*
X23069228Y34071857D01*
X23069227Y34071857D01*
X22860000Y34092464D01*
X22650773Y34071857D01*
X22650771Y34071857D01*
X22650766Y34071856D01*
X22449590Y34010830D01*
X22449589Y34010830D01*
X22264170Y33911721D01*
X22101655Y33778349D01*
X22101651Y33778345D01*
X21968279Y33615830D01*
X21869170Y33430411D01*
X21869170Y33430410D01*
X21808144Y33229234D01*
X21787536Y33020000D01*
X6152464Y33020000D01*
X6131857Y33229227D01*
X6080784Y33397594D01*
X6084062Y33457629D01*
X6102741Y33485260D01*
X7186655Y34569172D01*
X7488880Y34871396D01*
X7496283Y34878801D01*
X7511090Y34893607D01*
X7522213Y34915439D01*
X7529411Y34927185D01*
X7543813Y34947006D01*
X7543814Y34947012D01*
X7546951Y34953166D01*
X7548220Y34952520D01*
X7580754Y34994165D01*
X7638812Y35006773D01*
X7721599Y34995874D01*
X7721599Y34995875D01*
X7721600Y34995874D01*
X7867607Y35015096D01*
X8003663Y35071453D01*
X8120497Y35161103D01*
X8210147Y35277937D01*
X8266504Y35413993D01*
X8285726Y35560000D01*
X8266504Y35706007D01*
X8210147Y35842063D01*
X8133964Y35941347D01*
X8115800Y35994857D01*
X8115800Y37457314D01*
X8136365Y37513815D01*
X8188436Y37543879D01*
X8215168Y37544462D01*
X8280400Y37535874D01*
X8426407Y37555096D01*
X8562463Y37611453D01*
X8679297Y37701103D01*
X8768947Y37817937D01*
X8825304Y37953993D01*
X8844526Y38100000D01*
X8825304Y38246007D01*
X8768947Y38382063D01*
X8679297Y38498897D01*
X8649199Y38521992D01*
X8620089Y38544330D01*
X8587783Y38595041D01*
X8585700Y38614065D01*
X8585700Y39992298D01*
X8606265Y40048799D01*
X8658336Y40078863D01*
X8685068Y40079446D01*
X8712200Y40075874D01*
X8858207Y40095096D01*
X8994263Y40151453D01*
X9111097Y40241103D01*
X9200747Y40357937D01*
X9257104Y40493993D01*
X9276326Y40640000D01*
X9257104Y40786007D01*
X9200747Y40922063D01*
X9111097Y41038897D01*
X9093020Y41052768D01*
X9064589Y41074585D01*
X9032283Y41125297D01*
X9030200Y41144320D01*
X9030200Y42537314D01*
X9050765Y42593815D01*
X9102836Y42623879D01*
X9129568Y42624462D01*
X9194800Y42615874D01*
X9340807Y42635096D01*
X9476863Y42691453D01*
X9576146Y42767637D01*
X9629656Y42785800D01*
X20094907Y42785800D01*
X20151408Y42765235D01*
X20157062Y42760055D01*
X21241710Y41675407D01*
X21330007Y41587110D01*
X21347332Y41578283D01*
X21351834Y41575988D01*
X21363587Y41568786D01*
X21383406Y41554387D01*
X21383407Y41554387D01*
X21383408Y41554386D01*
X21383410Y41554385D01*
X21406697Y41546819D01*
X21419438Y41541543D01*
X21441267Y41530420D01*
X21460456Y41527382D01*
X21465458Y41526589D01*
X21478873Y41523368D01*
X21502163Y41515800D01*
X21502164Y41515800D01*
X21533574Y41515800D01*
X21635174Y41515800D01*
X22012196Y41515800D01*
X22068697Y41495235D01*
X22098761Y41443164D01*
X22088320Y41383950D01*
X22080148Y41372144D01*
X22058590Y41345874D01*
X21968279Y41235830D01*
X21869170Y41050411D01*
X21869170Y41050410D01*
X21808144Y40849234D01*
X21808143Y40849229D01*
X21808143Y40849227D01*
X21787536Y40640000D01*
X21801916Y40493993D01*
X21808144Y40430767D01*
X21869170Y40229591D01*
X21869170Y40229590D01*
X21869171Y40229587D01*
X21869172Y40229586D01*
X21968279Y40044171D01*
X22100989Y39882462D01*
X22120936Y39825741D01*
X22099756Y39769468D01*
X22047359Y39739974D01*
X22033041Y39738800D01*
X10544056Y39738800D01*
X10490546Y39756964D01*
X10402668Y39824395D01*
X10391263Y39833147D01*
X10255207Y39889504D01*
X10109200Y39908726D01*
X9963192Y39889504D01*
X9827136Y39833147D01*
X9827129Y39833143D01*
X9710309Y39743503D01*
X9710297Y39743491D01*
X9620657Y39626671D01*
X9620653Y39626664D01*
X9564296Y39490608D01*
X9545074Y39344601D01*
X9545074Y39344600D01*
X9564296Y39198593D01*
X9620653Y39062537D01*
X9620657Y39062530D01*
X9710297Y38945710D01*
X9710299Y38945708D01*
X9710303Y38945703D01*
X9710307Y38945700D01*
X9710309Y38945698D01*
X9827129Y38856058D01*
X9827134Y38856055D01*
X9827137Y38856053D01*
X9963193Y38799696D01*
X10109200Y38780474D01*
X10255207Y38799696D01*
X10391263Y38856053D01*
X10490546Y38932237D01*
X10544056Y38950400D01*
X21991351Y38950400D01*
X22047852Y38929835D01*
X22077916Y38877764D01*
X22067475Y38818550D01*
X22059303Y38806744D01*
X22037745Y38780474D01*
X21968279Y38695830D01*
X21869170Y38510411D01*
X21869170Y38510410D01*
X21808144Y38309234D01*
X21808143Y38309229D01*
X21808143Y38309227D01*
X21787536Y38100000D01*
X21801916Y37953993D01*
X21808144Y37890767D01*
X21869170Y37689591D01*
X21869170Y37689590D01*
X21869171Y37689587D01*
X21869172Y37689586D01*
X21968279Y37504171D01*
X22059299Y37393262D01*
X22079246Y37336541D01*
X22058066Y37280268D01*
X22005669Y37250774D01*
X21991351Y37249600D01*
X20958056Y37249600D01*
X20904546Y37267764D01*
X20814914Y37336541D01*
X20805263Y37343947D01*
X20669207Y37400304D01*
X20523200Y37419526D01*
X20377192Y37400304D01*
X20241136Y37343947D01*
X20241129Y37343943D01*
X20124309Y37254303D01*
X20124297Y37254291D01*
X20034657Y37137471D01*
X20034653Y37137464D01*
X19978296Y37001408D01*
X19959074Y36855401D01*
X19959074Y36855400D01*
X19978296Y36709393D01*
X20034653Y36573337D01*
X20034657Y36573330D01*
X20124297Y36456510D01*
X20124299Y36456508D01*
X20124303Y36456503D01*
X20124307Y36456500D01*
X20124309Y36456498D01*
X20241129Y36366858D01*
X20241134Y36366855D01*
X20241137Y36366853D01*
X20377193Y36310496D01*
X20523200Y36291274D01*
X20669207Y36310496D01*
X20805263Y36366853D01*
X20904546Y36443037D01*
X20958056Y36461200D01*
X22033041Y36461200D01*
X22089542Y36440635D01*
X22119606Y36388564D01*
X22109165Y36329350D01*
X22100993Y36317543D01*
X22079435Y36291274D01*
X21968279Y36155830D01*
X21869170Y35970411D01*
X21869170Y35970410D01*
X21808144Y35769234D01*
X21808143Y35769229D01*
X21808143Y35769227D01*
X21787536Y35560000D01*
X21801916Y35413993D01*
X21808144Y35350767D01*
X21869170Y35149591D01*
X21869170Y35149590D01*
X21869171Y35149587D01*
X21869172Y35149586D01*
X21968279Y34964171D01*
X22101653Y34801653D01*
X22264171Y34668279D01*
X22449586Y34569172D01*
X22650773Y34508143D01*
X22860000Y34487536D01*
X23069227Y34508143D01*
X23270414Y34569172D01*
X23455829Y34668279D01*
X23618347Y34801653D01*
X23751721Y34964171D01*
X23850828Y35149586D01*
X23911857Y35350773D01*
X23932464Y35560000D01*
X23911857Y35769227D01*
X23850828Y35970414D01*
X23751721Y36155829D01*
X23648288Y36281864D01*
X23628342Y36338583D01*
X23649522Y36394856D01*
X23701919Y36424350D01*
X23761015Y36413264D01*
X23769747Y36407360D01*
X23822537Y36366853D01*
X23958593Y36310496D01*
X24104600Y36291274D01*
X24250607Y36310496D01*
X24386663Y36366853D01*
X24414958Y36388564D01*
X24503490Y36456498D01*
X24503497Y36456503D01*
X24593147Y36573337D01*
X24649504Y36709393D01*
X24668726Y36855400D01*
X24649504Y37001407D01*
X24593147Y37137463D01*
X24593145Y37137466D01*
X24593142Y37137471D01*
X24503502Y37254291D01*
X24503500Y37254293D01*
X24503497Y37254297D01*
X24503492Y37254301D01*
X24503490Y37254303D01*
X24386670Y37343943D01*
X24386663Y37343947D01*
X24250607Y37400304D01*
X24104600Y37419526D01*
X23958592Y37400304D01*
X23840243Y37351282D01*
X23780173Y37348659D01*
X23732471Y37385262D01*
X23719457Y37443964D01*
X23738657Y37488254D01*
X23751721Y37504171D01*
X23850828Y37689586D01*
X23911857Y37890773D01*
X23932464Y38100000D01*
X23911857Y38309227D01*
X23850828Y38510414D01*
X23751721Y38695829D01*
X23751720Y38695831D01*
X23751718Y38695834D01*
X23749321Y38699421D01*
X23750248Y38700041D01*
X23731791Y38752533D01*
X23752973Y38808805D01*
X23805370Y38838297D01*
X23853321Y38832781D01*
X23933193Y38799696D01*
X24079200Y38780474D01*
X24225207Y38799696D01*
X24361263Y38856053D01*
X24364256Y38858349D01*
X24478090Y38945698D01*
X24478097Y38945703D01*
X24567747Y39062537D01*
X24624104Y39198593D01*
X24643326Y39344600D01*
X24624104Y39490607D01*
X24567747Y39626663D01*
X24567745Y39626666D01*
X24567742Y39626671D01*
X24478102Y39743491D01*
X24478100Y39743493D01*
X24478097Y39743497D01*
X24478092Y39743501D01*
X24478090Y39743503D01*
X24361270Y39833143D01*
X24361263Y39833147D01*
X24225207Y39889504D01*
X24079200Y39908726D01*
X23933192Y39889504D01*
X23791814Y39830942D01*
X23790875Y39833209D01*
X23740820Y39824395D01*
X23688756Y39854472D01*
X23668205Y39910978D01*
X23688158Y39966719D01*
X23709150Y39992298D01*
X23751721Y40044171D01*
X23850828Y40229586D01*
X23911857Y40430773D01*
X23932464Y40640000D01*
X23911857Y40849227D01*
X23850828Y41050414D01*
X23751721Y41235829D01*
X23639855Y41372139D01*
X23619909Y41428859D01*
X23641089Y41485132D01*
X23693486Y41514626D01*
X23707804Y41515800D01*
X24634944Y41515800D01*
X24688453Y41497637D01*
X24787737Y41421453D01*
X24923793Y41365096D01*
X25069800Y41345874D01*
X25215807Y41365096D01*
X25351863Y41421453D01*
X25380158Y41443164D01*
X25468690Y41511098D01*
X25468697Y41511103D01*
X25558347Y41627937D01*
X25614704Y41763993D01*
X25633926Y41910000D01*
X25614704Y42056007D01*
X25558347Y42192063D01*
X25558345Y42192066D01*
X25558342Y42192071D01*
X25468702Y42308891D01*
X25468700Y42308893D01*
X25468697Y42308897D01*
X25468692Y42308901D01*
X25468690Y42308903D01*
X25351870Y42398543D01*
X25351863Y42398547D01*
X25215807Y42454904D01*
X25069800Y42474126D01*
X24923792Y42454904D01*
X24787736Y42398547D01*
X24787735Y42398546D01*
X24729304Y42353711D01*
X24698334Y42329945D01*
X24688454Y42322364D01*
X24634944Y42304200D01*
X23707804Y42304200D01*
X23651303Y42324765D01*
X23621239Y42376836D01*
X23631680Y42436050D01*
X23639851Y42447857D01*
X23751721Y42584171D01*
X23850828Y42769586D01*
X23911857Y42970773D01*
X23932464Y43180000D01*
X23911857Y43389227D01*
X23850828Y43590414D01*
X23751721Y43775829D01*
X23619010Y43937539D01*
X23599064Y43994259D01*
X23620244Y44050532D01*
X23672641Y44080026D01*
X23686959Y44081200D01*
X25233834Y44081200D01*
X25233835Y44081200D01*
X25257129Y44088770D01*
X25270538Y44091989D01*
X25294733Y44095820D01*
X25316559Y44106942D01*
X25329297Y44112218D01*
X25352594Y44119787D01*
X25372415Y44134189D01*
X25384161Y44141387D01*
X25405993Y44152510D01*
X25494290Y44240807D01*
X25904652Y44651171D01*
X25955330Y44676162D01*
X26079407Y44692496D01*
X26205062Y44744546D01*
X26265131Y44747168D01*
X26312834Y44710565D01*
X26326600Y44663336D01*
X26326600Y41074857D01*
X26308436Y41021347D01*
X26232254Y40922065D01*
X26232253Y40922064D01*
X26175896Y40786008D01*
X26156674Y40640001D01*
X26156674Y40640000D01*
X26175896Y40493993D01*
X26232253Y40357937D01*
X26232257Y40357930D01*
X26321897Y40241110D01*
X26321899Y40241108D01*
X26321903Y40241103D01*
X26321907Y40241100D01*
X26321909Y40241098D01*
X26438729Y40151458D01*
X26438734Y40151455D01*
X26438737Y40151453D01*
X26574793Y40095096D01*
X26720800Y40075874D01*
X26786028Y40084462D01*
X26844728Y40071449D01*
X26881331Y40023747D01*
X26885400Y39997314D01*
X26885400Y38501755D01*
X26867236Y38448245D01*
X26816452Y38382063D01*
X26760096Y38246008D01*
X26740874Y38100001D01*
X26740874Y38100000D01*
X26760096Y37953993D01*
X26816453Y37817937D01*
X26816457Y37817930D01*
X26906097Y37701110D01*
X26906099Y37701108D01*
X26906103Y37701103D01*
X26906107Y37701100D01*
X26906109Y37701098D01*
X27022929Y37611458D01*
X27022934Y37611455D01*
X27022937Y37611453D01*
X27158993Y37555096D01*
X27305000Y37535874D01*
X27451007Y37555096D01*
X27587063Y37611453D01*
X27703897Y37701103D01*
X27793547Y37817937D01*
X27849904Y37953993D01*
X27869126Y38100000D01*
X27849904Y38246007D01*
X27793547Y38382063D01*
X27703897Y38498897D01*
X27703896Y38498898D01*
X27699824Y38502970D01*
X27702039Y38505186D01*
X27675845Y38546492D01*
X27673800Y38565340D01*
X27673800Y46275745D01*
X27691964Y46329254D01*
X27768147Y46428537D01*
X27824504Y46564593D01*
X27843726Y46710600D01*
X27824504Y46856607D01*
X27768147Y46992663D01*
X27768145Y46992666D01*
X27768142Y46992671D01*
X27678502Y47109491D01*
X27678500Y47109493D01*
X27678497Y47109497D01*
X27678492Y47109501D01*
X27678490Y47109503D01*
X27561670Y47199143D01*
X27561663Y47199147D01*
X27425607Y47255504D01*
X27279600Y47274726D01*
X27189934Y47262922D01*
X27131232Y47275936D01*
X27094629Y47323639D01*
X27097252Y47383709D01*
X27116303Y47412222D01*
X27301652Y47597570D01*
X27352330Y47622562D01*
X27476407Y47638896D01*
X27612463Y47695253D01*
X27729297Y47784903D01*
X27818947Y47901737D01*
X27875304Y48037793D01*
X27894526Y48183800D01*
X27875304Y48329807D01*
X27818947Y48465863D01*
X27818945Y48465866D01*
X27818942Y48465871D01*
X27729302Y48582691D01*
X27729300Y48582693D01*
X27729297Y48582697D01*
X27729292Y48582701D01*
X27729290Y48582703D01*
X27612470Y48672343D01*
X27612463Y48672347D01*
X27476407Y48728704D01*
X27330400Y48747926D01*
X27184392Y48728704D01*
X27048336Y48672347D01*
X27048329Y48672343D01*
X26931509Y48582703D01*
X26931497Y48582691D01*
X26841857Y48465871D01*
X26841853Y48465864D01*
X26785496Y48329808D01*
X26769161Y48205734D01*
X26744168Y48155053D01*
X25999062Y47409945D01*
X25944568Y47384534D01*
X25936907Y47384200D01*
X23707804Y47384200D01*
X23651303Y47404765D01*
X23621239Y47456836D01*
X23631680Y47516050D01*
X23639851Y47527857D01*
X23751721Y47664171D01*
X23850828Y47849586D01*
X23911857Y48050773D01*
X23932464Y48260000D01*
X23911857Y48469227D01*
X23850828Y48670414D01*
X23751721Y48855829D01*
X23639855Y48992139D01*
X23619909Y49048859D01*
X23641089Y49105132D01*
X23693486Y49134626D01*
X23707804Y49135800D01*
X25830663Y49135800D01*
X25830664Y49135800D01*
X25853958Y49143370D01*
X25867367Y49146589D01*
X25891562Y49150420D01*
X25913388Y49161542D01*
X25926126Y49166818D01*
X25949423Y49174387D01*
X25969244Y49188789D01*
X25980990Y49195987D01*
X26002822Y49207110D01*
X26091119Y49295407D01*
X26459232Y49663522D01*
X26509910Y49688513D01*
X26633987Y49704847D01*
X26770043Y49761204D01*
X26886877Y49850854D01*
X26937350Y49916632D01*
X26976522Y49967681D01*
X26976523Y49967683D01*
X26976527Y49967688D01*
X27032884Y50103744D01*
X27052106Y50249751D01*
X27032884Y50395758D01*
X26976527Y50531814D01*
X26976525Y50531817D01*
X26976522Y50531822D01*
X26886882Y50648642D01*
X26886880Y50648644D01*
X26886877Y50648648D01*
X26886872Y50648652D01*
X26886870Y50648654D01*
X26770050Y50738294D01*
X26770043Y50738298D01*
X26633987Y50794655D01*
X26487980Y50813877D01*
X26341972Y50794655D01*
X26205916Y50738298D01*
X26205909Y50738294D01*
X26089089Y50648654D01*
X26089077Y50648642D01*
X25999437Y50531822D01*
X25999433Y50531815D01*
X25943076Y50395759D01*
X25926741Y50271685D01*
X25901748Y50221005D01*
X25630691Y49949946D01*
X25576197Y49924535D01*
X25568536Y49924200D01*
X23707804Y49924200D01*
X23651303Y49944765D01*
X23621239Y49996836D01*
X23631680Y50056050D01*
X23639851Y50067857D01*
X23751721Y50204171D01*
X23850828Y50389586D01*
X23911857Y50590773D01*
X23932464Y50800000D01*
X23911857Y51009227D01*
X23850828Y51210414D01*
X23751721Y51395829D01*
X23639855Y51532139D01*
X23619909Y51588859D01*
X23641089Y51645132D01*
X23693486Y51674626D01*
X23707804Y51675800D01*
X25092144Y51675800D01*
X25145653Y51657637D01*
X25244937Y51581453D01*
X25380993Y51525096D01*
X25527000Y51505874D01*
X25673007Y51525096D01*
X25809063Y51581453D01*
X25837358Y51603164D01*
X25892051Y51645132D01*
X25925897Y51671103D01*
X26015547Y51787937D01*
X26071904Y51923993D01*
X26091126Y52070000D01*
X26071904Y52216007D01*
X26015547Y52352063D01*
X26015545Y52352066D01*
X26015542Y52352071D01*
X25925902Y52468891D01*
X25925900Y52468893D01*
X25925897Y52468897D01*
X25925892Y52468901D01*
X25925890Y52468903D01*
X25809070Y52558543D01*
X25809063Y52558547D01*
X25673007Y52614904D01*
X25527000Y52634126D01*
X25380992Y52614904D01*
X25244936Y52558547D01*
X25244935Y52558546D01*
X25145654Y52482364D01*
X25092144Y52464200D01*
X23707804Y52464200D01*
X23651303Y52484765D01*
X23621239Y52536836D01*
X23631680Y52596050D01*
X23639851Y52607857D01*
X23751721Y52744171D01*
X23850828Y52929586D01*
X23911857Y53130773D01*
X23932464Y53340000D01*
X23911857Y53549227D01*
X23850828Y53750414D01*
X23751721Y53935829D01*
X23618347Y54098347D01*
X23603229Y54110754D01*
X23572601Y54162494D01*
X23582396Y54221818D01*
X23628032Y54260966D01*
X23658994Y54266600D01*
X25487834Y54266600D01*
X25487835Y54266600D01*
X25511129Y54274170D01*
X25524538Y54277389D01*
X25548733Y54281220D01*
X25570559Y54292342D01*
X25583297Y54297618D01*
X25606594Y54305187D01*
X25626415Y54319589D01*
X25638161Y54326787D01*
X25659993Y54337910D01*
X25748290Y54426207D01*
X26996852Y55674770D01*
X27047530Y55699762D01*
X27171607Y55716096D01*
X27307663Y55772453D01*
X27424497Y55862103D01*
X27514147Y55978937D01*
X27570504Y56114993D01*
X27589726Y56261000D01*
X27570504Y56407007D01*
X27514147Y56543063D01*
X27514145Y56543066D01*
X27514142Y56543071D01*
X27424502Y56659891D01*
X27424500Y56659893D01*
X27424497Y56659897D01*
X27424492Y56659901D01*
X27424490Y56659903D01*
X27307670Y56749543D01*
X27307663Y56749547D01*
X27171607Y56805904D01*
X27025600Y56825126D01*
X26879592Y56805904D01*
X26743536Y56749547D01*
X26743529Y56749543D01*
X26626709Y56659903D01*
X26626697Y56659891D01*
X26537057Y56543071D01*
X26537053Y56543064D01*
X26480696Y56407008D01*
X26464361Y56282934D01*
X26439368Y56232253D01*
X25287862Y55080745D01*
X25233368Y55055334D01*
X25225707Y55055000D01*
X23749494Y55055000D01*
X23692993Y55075565D01*
X23662929Y55127636D01*
X23673370Y55186850D01*
X23681540Y55198656D01*
X23751721Y55284171D01*
X23850828Y55469586D01*
X23911857Y55670773D01*
X23932464Y55880000D01*
X23911857Y56089227D01*
X23850828Y56290414D01*
X23751721Y56475829D01*
X23618347Y56638347D01*
X23455829Y56771721D01*
X23270414Y56870828D01*
X23270413Y56870829D01*
X23270410Y56870830D01*
X23069233Y56931856D01*
X23069228Y56931857D01*
X23069227Y56931857D01*
X22860000Y56952464D01*
X22650773Y56931857D01*
X22650771Y56931857D01*
X22650766Y56931856D01*
X22449590Y56870830D01*
X22449589Y56870830D01*
X22264170Y56771721D01*
X22101655Y56638349D01*
X22101651Y56638345D01*
X21968279Y56475830D01*
X21869170Y56290411D01*
X21869170Y56290410D01*
X21808144Y56089234D01*
X21808143Y56089229D01*
X21808143Y56089227D01*
X21787536Y55880000D01*
X21807749Y55674769D01*
X21808144Y55670767D01*
X21869170Y55469591D01*
X21869170Y55469590D01*
X21869171Y55469587D01*
X21869172Y55469586D01*
X21968279Y55284171D01*
X22038454Y55198661D01*
X22058401Y55141941D01*
X22037221Y55085668D01*
X21984824Y55056174D01*
X21970506Y55055000D01*
X11423467Y55055000D01*
X11400170Y55047431D01*
X11386766Y55044213D01*
X11362572Y55040381D01*
X11362571Y55040380D01*
X11340744Y55029259D01*
X11328006Y55023983D01*
X11304712Y55016414D01*
X11284892Y55002015D01*
X11273140Y54994813D01*
X11251312Y54983690D01*
X6471610Y50203988D01*
X6460487Y50182160D01*
X6453285Y50170408D01*
X6438886Y50150588D01*
X6431317Y50127294D01*
X6426041Y50114556D01*
X6414920Y50092729D01*
X6414919Y50092728D01*
X6411087Y50068534D01*
X6407869Y50055130D01*
X6400300Y50031833D01*
X6400300Y47634194D01*
X6379735Y47577693D01*
X6374555Y47572039D01*
X5545261Y46742746D01*
X5490767Y46717335D01*
X5457590Y46720786D01*
X5289233Y46771856D01*
X5289228Y46771857D01*
X5289227Y46771857D01*
X5080000Y46792464D01*
X4870773Y46771857D01*
X4870771Y46771857D01*
X4870766Y46771856D01*
X4669590Y46710830D01*
X4669589Y46710830D01*
X4484170Y46611721D01*
X4321655Y46478349D01*
X4321651Y46478345D01*
X4188279Y46315830D01*
X4089170Y46130411D01*
X4089170Y46130410D01*
X4028144Y45929234D01*
X4028143Y45929229D01*
X4028143Y45929227D01*
X4007536Y45720000D01*
X4027287Y45519463D01*
X4028144Y45510767D01*
X4089170Y45309591D01*
X4089170Y45309590D01*
X4089171Y45309587D01*
X4089172Y45309586D01*
X4188279Y45124171D01*
X4321653Y44961653D01*
X4484171Y44828279D01*
X4669586Y44729172D01*
X4669588Y44729172D01*
X4669589Y44729171D01*
X4844337Y44676162D01*
X4870773Y44668143D01*
X5080000Y44647536D01*
X5289227Y44668143D01*
X5490414Y44729172D01*
X5675829Y44828279D01*
X5838347Y44961653D01*
X5971721Y45124171D01*
X6070828Y45309586D01*
X6131857Y45510773D01*
X6152464Y45720000D01*
X6131857Y45929227D01*
X6080784Y46097594D01*
X6084062Y46157629D01*
X6102741Y46185260D01*
X6643946Y46726464D01*
X6698439Y46751874D01*
X6756517Y46736311D01*
X6791005Y46687058D01*
X6794000Y46664308D01*
X6794000Y35327894D01*
X6773435Y35271393D01*
X6768255Y35265739D01*
X5545261Y34042746D01*
X5490767Y34017335D01*
X5457590Y34020786D01*
X5289233Y34071856D01*
X5289228Y34071857D01*
X5289227Y34071857D01*
X5080000Y34092464D01*
X4870773Y34071857D01*
X4870771Y34071857D01*
X4870766Y34071856D01*
X4669590Y34010830D01*
X4669589Y34010830D01*
X4484170Y33911721D01*
X4321655Y33778349D01*
X4321651Y33778345D01*
X4188279Y33615830D01*
X4089170Y33430411D01*
X4089170Y33430410D01*
X4028144Y33229234D01*
X4007536Y33020000D01*
X4028144Y32810767D01*
X4089170Y32609591D01*
X4089170Y32609590D01*
X4089171Y32609587D01*
X4089172Y32609586D01*
X4188279Y32424171D01*
X4246187Y32353609D01*
X4272240Y32321864D01*
X4292187Y32265142D01*
X4271007Y32208869D01*
X4218610Y32179375D01*
X4159514Y32190461D01*
X4142137Y32203946D01*
X3620345Y32725738D01*
X3594934Y32780232D01*
X3594600Y32787893D01*
X3594600Y35560000D01*
X4007536Y35560000D01*
X4021916Y35413993D01*
X4028144Y35350767D01*
X4089170Y35149591D01*
X4089170Y35149590D01*
X4089171Y35149587D01*
X4089172Y35149586D01*
X4188279Y34964171D01*
X4321653Y34801653D01*
X4484171Y34668279D01*
X4669586Y34569172D01*
X4870773Y34508143D01*
X5080000Y34487536D01*
X5289227Y34508143D01*
X5490414Y34569172D01*
X5675829Y34668279D01*
X5838347Y34801653D01*
X5971721Y34964171D01*
X6070828Y35149586D01*
X6131857Y35350773D01*
X6152464Y35560000D01*
X6131857Y35769227D01*
X6070828Y35970414D01*
X5971721Y36155829D01*
X5838347Y36318347D01*
X5675829Y36451721D01*
X5490414Y36550828D01*
X5490413Y36550829D01*
X5490410Y36550830D01*
X5289233Y36611856D01*
X5289228Y36611857D01*
X5289227Y36611857D01*
X5080000Y36632464D01*
X4870773Y36611857D01*
X4870771Y36611857D01*
X4870766Y36611856D01*
X4669590Y36550830D01*
X4669589Y36550830D01*
X4484170Y36451721D01*
X4321655Y36318349D01*
X4321651Y36318345D01*
X4188279Y36155830D01*
X4089170Y35970411D01*
X4089170Y35970410D01*
X4028144Y35769234D01*
X4028143Y35769229D01*
X4028143Y35769227D01*
X4007536Y35560000D01*
X3594600Y35560000D01*
X3594600Y38100000D01*
X4007536Y38100000D01*
X4021916Y37953993D01*
X4028144Y37890767D01*
X4089170Y37689591D01*
X4089170Y37689590D01*
X4089171Y37689587D01*
X4089172Y37689586D01*
X4188279Y37504171D01*
X4321653Y37341653D01*
X4484171Y37208279D01*
X4669586Y37109172D01*
X4870773Y37048143D01*
X5080000Y37027536D01*
X5289227Y37048143D01*
X5490414Y37109172D01*
X5675829Y37208279D01*
X5838347Y37341653D01*
X5971721Y37504171D01*
X6070828Y37689586D01*
X6131857Y37890773D01*
X6152464Y38100000D01*
X6131857Y38309227D01*
X6070828Y38510414D01*
X5971721Y38695829D01*
X5838347Y38858347D01*
X5675829Y38991721D01*
X5490414Y39090828D01*
X5490413Y39090829D01*
X5490410Y39090830D01*
X5289233Y39151856D01*
X5289228Y39151857D01*
X5289227Y39151857D01*
X5080000Y39172464D01*
X4870773Y39151857D01*
X4870771Y39151857D01*
X4870766Y39151856D01*
X4669590Y39090830D01*
X4669589Y39090830D01*
X4484170Y38991721D01*
X4321655Y38858349D01*
X4321651Y38858345D01*
X4188279Y38695830D01*
X4089170Y38510411D01*
X4089170Y38510410D01*
X4028144Y38309234D01*
X4028143Y38309229D01*
X4028143Y38309227D01*
X4007536Y38100000D01*
X3594600Y38100000D01*
X3594600Y40640000D01*
X4007536Y40640000D01*
X4021916Y40493993D01*
X4028144Y40430767D01*
X4089170Y40229591D01*
X4089170Y40229590D01*
X4089171Y40229587D01*
X4089172Y40229586D01*
X4188279Y40044171D01*
X4321653Y39881653D01*
X4484171Y39748279D01*
X4669586Y39649172D01*
X4669588Y39649172D01*
X4669589Y39649171D01*
X4743788Y39626663D01*
X4870773Y39588143D01*
X5080000Y39567536D01*
X5289227Y39588143D01*
X5490414Y39649172D01*
X5675829Y39748279D01*
X5838347Y39881653D01*
X5971721Y40044171D01*
X6070828Y40229586D01*
X6131857Y40430773D01*
X6152464Y40640000D01*
X6131857Y40849227D01*
X6070828Y41050414D01*
X5971721Y41235829D01*
X5838347Y41398347D01*
X5675829Y41531721D01*
X5490414Y41630828D01*
X5490413Y41630829D01*
X5490410Y41630830D01*
X5289233Y41691856D01*
X5289228Y41691857D01*
X5289227Y41691857D01*
X5080000Y41712464D01*
X4870773Y41691857D01*
X4870771Y41691857D01*
X4870766Y41691856D01*
X4669590Y41630830D01*
X4669589Y41630830D01*
X4484170Y41531721D01*
X4321655Y41398349D01*
X4321651Y41398345D01*
X4188279Y41235830D01*
X4089170Y41050411D01*
X4089170Y41050410D01*
X4028144Y40849234D01*
X4028143Y40849229D01*
X4028143Y40849227D01*
X4007536Y40640000D01*
X3594600Y40640000D01*
X3594600Y43180000D01*
X4007536Y43180000D01*
X4028144Y42970767D01*
X4089170Y42769591D01*
X4089170Y42769590D01*
X4089171Y42769587D01*
X4089172Y42769586D01*
X4188279Y42584171D01*
X4321653Y42421653D01*
X4484171Y42288279D01*
X4669586Y42189172D01*
X4870773Y42128143D01*
X5080000Y42107536D01*
X5289227Y42128143D01*
X5490414Y42189172D01*
X5675829Y42288279D01*
X5838347Y42421653D01*
X5971721Y42584171D01*
X6070828Y42769586D01*
X6131857Y42970773D01*
X6152464Y43180000D01*
X6131857Y43389227D01*
X6070828Y43590414D01*
X5971721Y43775829D01*
X5838347Y43938347D01*
X5675829Y44071721D01*
X5490414Y44170828D01*
X5490413Y44170829D01*
X5490410Y44170830D01*
X5289233Y44231856D01*
X5289228Y44231857D01*
X5289227Y44231857D01*
X5080000Y44252464D01*
X4870773Y44231857D01*
X4870771Y44231857D01*
X4870766Y44231856D01*
X4669590Y44170830D01*
X4669589Y44170830D01*
X4484170Y44071721D01*
X4321655Y43938349D01*
X4321651Y43938345D01*
X4188279Y43775830D01*
X4089170Y43590411D01*
X4089170Y43590410D01*
X4028144Y43389234D01*
X4007536Y43180000D01*
X3594600Y43180000D01*
X3594600Y48260000D01*
X4007536Y48260000D01*
X4017872Y48155053D01*
X4028144Y48050767D01*
X4089170Y47849591D01*
X4089170Y47849590D01*
X4089171Y47849587D01*
X4089172Y47849586D01*
X4188279Y47664171D01*
X4321653Y47501653D01*
X4484171Y47368279D01*
X4669586Y47269172D01*
X4669588Y47269172D01*
X4669589Y47269171D01*
X4714643Y47255504D01*
X4870773Y47208143D01*
X5080000Y47187536D01*
X5289227Y47208143D01*
X5490414Y47269172D01*
X5675829Y47368279D01*
X5838347Y47501653D01*
X5971721Y47664171D01*
X6070828Y47849586D01*
X6131857Y48050773D01*
X6152464Y48260000D01*
X6131857Y48469227D01*
X6070828Y48670414D01*
X5971721Y48855829D01*
X5838347Y49018347D01*
X5675829Y49151721D01*
X5490414Y49250828D01*
X5490413Y49250829D01*
X5490410Y49250830D01*
X5289233Y49311856D01*
X5289228Y49311857D01*
X5289227Y49311857D01*
X5080000Y49332464D01*
X4870773Y49311857D01*
X4870771Y49311857D01*
X4870766Y49311856D01*
X4669590Y49250830D01*
X4669589Y49250830D01*
X4484170Y49151721D01*
X4321655Y49018349D01*
X4321651Y49018345D01*
X4188279Y48855830D01*
X4089170Y48670411D01*
X4089170Y48670410D01*
X4028144Y48469234D01*
X4028143Y48469229D01*
X4028143Y48469227D01*
X4007536Y48260000D01*
X3594600Y48260000D01*
X3594600Y50800000D01*
X4007536Y50800000D01*
X4022443Y50648642D01*
X4028144Y50590767D01*
X4089170Y50389591D01*
X4089170Y50389590D01*
X4089171Y50389587D01*
X4089172Y50389586D01*
X4188279Y50204171D01*
X4321653Y50041653D01*
X4484171Y49908279D01*
X4669586Y49809172D01*
X4669588Y49809172D01*
X4669589Y49809171D01*
X4827699Y49761209D01*
X4870773Y49748143D01*
X5080000Y49727536D01*
X5289227Y49748143D01*
X5490414Y49809172D01*
X5675829Y49908279D01*
X5838347Y50041653D01*
X5971721Y50204171D01*
X6070828Y50389586D01*
X6131857Y50590773D01*
X6152464Y50800000D01*
X6131857Y51009227D01*
X6070828Y51210414D01*
X5971721Y51395829D01*
X5838347Y51558347D01*
X5675829Y51691721D01*
X5490414Y51790828D01*
X5490413Y51790829D01*
X5490410Y51790830D01*
X5289233Y51851856D01*
X5289228Y51851857D01*
X5289227Y51851857D01*
X5080000Y51872464D01*
X4870773Y51851857D01*
X4870771Y51851857D01*
X4870766Y51851856D01*
X4669590Y51790830D01*
X4669589Y51790830D01*
X4484170Y51691721D01*
X4321655Y51558349D01*
X4321651Y51558345D01*
X4188279Y51395830D01*
X4089170Y51210411D01*
X4089170Y51210410D01*
X4028144Y51009234D01*
X4028143Y51009229D01*
X4028143Y51009227D01*
X4007536Y50800000D01*
X3594600Y50800000D01*
X3594600Y53340000D01*
X4007536Y53340000D01*
X4028144Y53130767D01*
X4089170Y52929591D01*
X4089170Y52929590D01*
X4089171Y52929587D01*
X4089172Y52929586D01*
X4188279Y52744171D01*
X4321653Y52581653D01*
X4484171Y52448279D01*
X4669586Y52349172D01*
X4870773Y52288143D01*
X5080000Y52267536D01*
X5289227Y52288143D01*
X5490414Y52349172D01*
X5675829Y52448279D01*
X5838347Y52581653D01*
X5971721Y52744171D01*
X6070828Y52929586D01*
X6131857Y53130773D01*
X6152464Y53340000D01*
X6131857Y53549227D01*
X6070828Y53750414D01*
X5971721Y53935829D01*
X5838347Y54098347D01*
X5675829Y54231721D01*
X5490414Y54330828D01*
X5490413Y54330829D01*
X5490410Y54330830D01*
X5289233Y54391856D01*
X5289228Y54391857D01*
X5289227Y54391857D01*
X5080000Y54412464D01*
X4870773Y54391857D01*
X4870771Y54391857D01*
X4870766Y54391856D01*
X4669590Y54330830D01*
X4669589Y54330830D01*
X4484170Y54231721D01*
X4321655Y54098349D01*
X4321651Y54098345D01*
X4188279Y53935830D01*
X4089170Y53750411D01*
X4089170Y53750410D01*
X4028144Y53549234D01*
X4007536Y53340000D01*
X3594600Y53340000D01*
X3594600Y55880000D01*
X4007536Y55880000D01*
X4027749Y55674769D01*
X4028144Y55670767D01*
X4089170Y55469591D01*
X4089170Y55469590D01*
X4089171Y55469587D01*
X4089172Y55469586D01*
X4188279Y55284171D01*
X4321653Y55121653D01*
X4484171Y54988279D01*
X4669586Y54889172D01*
X4870773Y54828143D01*
X5080000Y54807536D01*
X5289227Y54828143D01*
X5490414Y54889172D01*
X5675829Y54988279D01*
X5838347Y55121653D01*
X5971721Y55284171D01*
X6070828Y55469586D01*
X6131857Y55670773D01*
X6152464Y55880000D01*
X6131857Y56089227D01*
X6070828Y56290414D01*
X5971721Y56475829D01*
X5838347Y56638347D01*
X5675829Y56771721D01*
X5490414Y56870828D01*
X5490413Y56870829D01*
X5490410Y56870830D01*
X5289233Y56931856D01*
X5289228Y56931857D01*
X5289227Y56931857D01*
X5080000Y56952464D01*
X4870773Y56931857D01*
X4870771Y56931857D01*
X4870766Y56931856D01*
X4669590Y56870830D01*
X4669589Y56870830D01*
X4484170Y56771721D01*
X4321655Y56638349D01*
X4321651Y56638345D01*
X4188279Y56475830D01*
X4089170Y56290411D01*
X4089170Y56290410D01*
X4028144Y56089234D01*
X4028143Y56089229D01*
X4028143Y56089227D01*
X4007536Y55880000D01*
X3594600Y55880000D01*
X3594600Y58420000D01*
X4007536Y58420000D01*
X4028144Y58210767D01*
X4089170Y58009591D01*
X4089170Y58009590D01*
X4089171Y58009587D01*
X4089172Y58009586D01*
X4188279Y57824171D01*
X4321653Y57661653D01*
X4484171Y57528279D01*
X4669586Y57429172D01*
X4870773Y57368143D01*
X5080000Y57347536D01*
X5289227Y57368143D01*
X5490414Y57429172D01*
X5675829Y57528279D01*
X5838347Y57661653D01*
X5971721Y57824171D01*
X6070828Y58009586D01*
X6131857Y58210773D01*
X6152464Y58420000D01*
X6131857Y58629227D01*
X6070828Y58830414D01*
X5971721Y59015829D01*
X5838347Y59178347D01*
X5675829Y59311721D01*
X5490414Y59410828D01*
X5490413Y59410829D01*
X5490410Y59410830D01*
X5289233Y59471856D01*
X5289228Y59471857D01*
X5289227Y59471857D01*
X5080000Y59492464D01*
X4870773Y59471857D01*
X4870771Y59471857D01*
X4870766Y59471856D01*
X4669590Y59410830D01*
X4669589Y59410830D01*
X4484170Y59311721D01*
X4321655Y59178349D01*
X4321651Y59178345D01*
X4188279Y59015830D01*
X4089170Y58830411D01*
X4089170Y58830410D01*
X4028144Y58629234D01*
X4007536Y58420000D01*
X3594600Y58420000D01*
X3594600Y58880708D01*
X3615165Y58937209D01*
X3620334Y58942852D01*
X4614738Y59937257D01*
X4669231Y59962667D01*
X4702406Y59959217D01*
X4870773Y59908143D01*
X5080000Y59887536D01*
X5289227Y59908143D01*
X5490414Y59969172D01*
X5675829Y60068279D01*
X5838347Y60201653D01*
X5971721Y60364171D01*
X6070828Y60549586D01*
X6131857Y60750773D01*
X6152464Y60960000D01*
X6131857Y61169227D01*
X6070828Y61370414D01*
X5971721Y61555829D01*
X5838347Y61718347D01*
X5675829Y61851721D01*
X5490414Y61950828D01*
X5490413Y61950829D01*
X5490410Y61950830D01*
X5289233Y62011856D01*
X5289228Y62011857D01*
X5289227Y62011857D01*
X5080000Y62032464D01*
X4870773Y62011857D01*
X4870771Y62011857D01*
X4870766Y62011856D01*
X4669590Y61950830D01*
X4669589Y61950830D01*
X4484170Y61851721D01*
X4321655Y61718349D01*
X4321651Y61718345D01*
X4188279Y61555830D01*
X4089170Y61370411D01*
X4089170Y61370410D01*
X4028144Y61169234D01*
X4007536Y60960000D01*
X4028144Y60750767D01*
X4079214Y60582410D01*
X4075936Y60522372D01*
X4057254Y60494739D01*
X2965807Y59403290D01*
X2877510Y59314994D01*
X2866387Y59293166D01*
X2859185Y59281414D01*
X2844786Y59261594D01*
X2837217Y59238300D01*
X2831941Y59225562D01*
X2820820Y59203735D01*
X2820819Y59203734D01*
X2816987Y59179540D01*
X2813769Y59166136D01*
X2806200Y59142839D01*
X2806200Y59142835D01*
X2806200Y59111426D01*
X2806200Y32650635D01*
X2806200Y32525765D01*
X635500Y32525765D01*
X635500Y63500000D01*
X4007536Y63500000D01*
X4028144Y63290767D01*
X4089170Y63089591D01*
X4089170Y63089590D01*
X4089171Y63089587D01*
X4089172Y63089586D01*
X4188279Y62904171D01*
X4321653Y62741653D01*
X4484171Y62608279D01*
X4669586Y62509172D01*
X4870773Y62448143D01*
X5080000Y62427536D01*
X5289227Y62448143D01*
X5490414Y62509172D01*
X5675829Y62608279D01*
X5838347Y62741653D01*
X5971721Y62904171D01*
X6054659Y63059336D01*
X6099430Y63099471D01*
X6132180Y63105800D01*
X9198307Y63105800D01*
X9254808Y63085235D01*
X9260462Y63080055D01*
X11289455Y61051062D01*
X11314866Y60996568D01*
X11315200Y60988907D01*
X11315200Y57076857D01*
X11297036Y57023347D01*
X11220854Y56924065D01*
X11220853Y56924064D01*
X11164496Y56788008D01*
X11145274Y56642001D01*
X11145274Y56642000D01*
X11164496Y56495993D01*
X11220853Y56359937D01*
X11220857Y56359930D01*
X11310497Y56243110D01*
X11310499Y56243108D01*
X11310503Y56243103D01*
X11310507Y56243100D01*
X11310509Y56243098D01*
X11427329Y56153458D01*
X11427334Y56153455D01*
X11427337Y56153453D01*
X11563393Y56097096D01*
X11709400Y56077874D01*
X11855407Y56097096D01*
X11991463Y56153453D01*
X12108297Y56243103D01*
X12153122Y56301520D01*
X12197942Y56359930D01*
X12197943Y56359932D01*
X12197947Y56359937D01*
X12254304Y56495993D01*
X12270182Y56616600D01*
X19324074Y56616600D01*
X19343296Y56470593D01*
X19399653Y56334537D01*
X19399657Y56334530D01*
X19489297Y56217710D01*
X19489299Y56217708D01*
X19489303Y56217703D01*
X19489307Y56217700D01*
X19489309Y56217698D01*
X19606129Y56128058D01*
X19606134Y56128055D01*
X19606137Y56128053D01*
X19742193Y56071696D01*
X19888200Y56052474D01*
X20034207Y56071696D01*
X20170263Y56128053D01*
X20203372Y56153458D01*
X20287090Y56217698D01*
X20287097Y56217703D01*
X20376747Y56334537D01*
X20433104Y56470593D01*
X20452326Y56616600D01*
X20433104Y56762607D01*
X20376747Y56898663D01*
X20300564Y56997947D01*
X20282400Y57051457D01*
X20282400Y58420000D01*
X21787536Y58420000D01*
X21808144Y58210767D01*
X21869170Y58009591D01*
X21869170Y58009590D01*
X21869171Y58009587D01*
X21869172Y58009586D01*
X21968279Y57824171D01*
X22101653Y57661653D01*
X22264171Y57528279D01*
X22449586Y57429172D01*
X22650773Y57368143D01*
X22860000Y57347536D01*
X23069227Y57368143D01*
X23270414Y57429172D01*
X23455829Y57528279D01*
X23618347Y57661653D01*
X23751721Y57824171D01*
X23850828Y58009586D01*
X23911857Y58210773D01*
X23932464Y58420000D01*
X23911857Y58629227D01*
X23850828Y58830414D01*
X23751721Y59015829D01*
X23618347Y59178347D01*
X23455829Y59311721D01*
X23270414Y59410828D01*
X23270413Y59410829D01*
X23270410Y59410830D01*
X23069233Y59471856D01*
X23069228Y59471857D01*
X23069227Y59471857D01*
X22860000Y59492464D01*
X22650773Y59471857D01*
X22650771Y59471857D01*
X22650766Y59471856D01*
X22449590Y59410830D01*
X22449589Y59410830D01*
X22264170Y59311721D01*
X22101655Y59178349D01*
X22101651Y59178345D01*
X21968279Y59015830D01*
X21869170Y58830411D01*
X21869170Y58830410D01*
X21808144Y58629234D01*
X21787536Y58420000D01*
X20282400Y58420000D01*
X20282400Y60960000D01*
X21787536Y60960000D01*
X21808144Y60750767D01*
X21869170Y60549591D01*
X21869170Y60549590D01*
X21869171Y60549587D01*
X21869172Y60549586D01*
X21968279Y60364171D01*
X22101653Y60201653D01*
X22264171Y60068279D01*
X22449586Y59969172D01*
X22449588Y59969172D01*
X22449589Y59969171D01*
X22554799Y59937256D01*
X22650773Y59908143D01*
X22860000Y59887536D01*
X23069227Y59908143D01*
X23270414Y59969172D01*
X23455829Y60068279D01*
X23618347Y60201653D01*
X23751721Y60364171D01*
X23850828Y60549586D01*
X23911857Y60750773D01*
X23932464Y60960000D01*
X23911857Y61169227D01*
X23850828Y61370414D01*
X23751721Y61555829D01*
X23618347Y61718347D01*
X23455829Y61851721D01*
X23270414Y61950828D01*
X23270413Y61950829D01*
X23270410Y61950830D01*
X23069233Y62011856D01*
X23069228Y62011857D01*
X23069227Y62011857D01*
X22860000Y62032464D01*
X22650773Y62011857D01*
X22650771Y62011857D01*
X22650766Y62011856D01*
X22449590Y61950830D01*
X22449589Y61950830D01*
X22264170Y61851721D01*
X22101655Y61718349D01*
X22101651Y61718345D01*
X21968279Y61555830D01*
X21869170Y61370411D01*
X21869170Y61370410D01*
X21808144Y61169234D01*
X21787536Y60960000D01*
X20282400Y60960000D01*
X20282400Y62385907D01*
X20302965Y62442408D01*
X20308145Y62448062D01*
X20940138Y63080055D01*
X20994632Y63105466D01*
X21002293Y63105800D01*
X21807820Y63105800D01*
X21864321Y63085235D01*
X21885341Y63059336D01*
X21968279Y62904171D01*
X22101653Y62741653D01*
X22264171Y62608279D01*
X22449586Y62509172D01*
X22650773Y62448143D01*
X22860000Y62427536D01*
X23069227Y62448143D01*
X23270414Y62509172D01*
X23455829Y62608279D01*
X23618347Y62741653D01*
X23751721Y62904171D01*
X23850828Y63089586D01*
X23911857Y63290773D01*
X23932464Y63500000D01*
X23911857Y63709227D01*
X23850828Y63910414D01*
X23751721Y64095829D01*
X23618347Y64258347D01*
X23455829Y64391721D01*
X23270414Y64490828D01*
X23270413Y64490829D01*
X23270410Y64490830D01*
X23069233Y64551856D01*
X23069228Y64551857D01*
X23069227Y64551857D01*
X22860000Y64572464D01*
X22650773Y64551857D01*
X22650771Y64551857D01*
X22650766Y64551856D01*
X22449590Y64490830D01*
X22449589Y64490830D01*
X22264170Y64391721D01*
X22101655Y64258349D01*
X22101651Y64258345D01*
X21968279Y64095830D01*
X21885341Y63940664D01*
X21840570Y63900529D01*
X21807820Y63894200D01*
X20740161Y63894200D01*
X20716864Y63886631D01*
X20703460Y63883413D01*
X20679266Y63879581D01*
X20679265Y63879580D01*
X20657438Y63868459D01*
X20644700Y63863183D01*
X20621406Y63855614D01*
X20601586Y63841215D01*
X20589834Y63834013D01*
X20568006Y63822890D01*
X19565310Y62820194D01*
X19554187Y62798366D01*
X19546985Y62786614D01*
X19532586Y62766794D01*
X19525017Y62743500D01*
X19519741Y62730762D01*
X19508620Y62708935D01*
X19508619Y62708934D01*
X19504787Y62684740D01*
X19501569Y62671336D01*
X19494000Y62648039D01*
X19494000Y57051457D01*
X19475836Y56997947D01*
X19399654Y56898665D01*
X19399653Y56898664D01*
X19343296Y56762608D01*
X19324074Y56616601D01*
X19324074Y56616600D01*
X12270182Y56616600D01*
X12273526Y56642000D01*
X12254304Y56788007D01*
X12197947Y56924063D01*
X12121764Y57023347D01*
X12103600Y57076857D01*
X12103600Y61251037D01*
X12096032Y61274327D01*
X12092811Y61287742D01*
X12088980Y61311931D01*
X12088980Y61311932D01*
X12088980Y61311933D01*
X12077857Y61333762D01*
X12072581Y61346503D01*
X12065015Y61369790D01*
X12065014Y61369792D01*
X12064564Y61370411D01*
X12050614Y61389613D01*
X12043412Y61401366D01*
X12041117Y61405868D01*
X12032290Y61423193D01*
X11943993Y61511490D01*
X10807444Y62648039D01*
X9654804Y63800680D01*
X9632592Y63822891D01*
X9622546Y63828010D01*
X9610765Y63834013D01*
X9599014Y63841214D01*
X9579194Y63855613D01*
X9579191Y63855614D01*
X9555893Y63863185D01*
X9543158Y63868460D01*
X9521334Y63879580D01*
X9517707Y63880155D01*
X9497126Y63883415D01*
X9483735Y63886630D01*
X9460435Y63894200D01*
X9460434Y63894200D01*
X6132180Y63894200D01*
X6075679Y63914765D01*
X6054659Y63940664D01*
X5971720Y64095830D01*
X5838347Y64258347D01*
X5675829Y64391721D01*
X5490414Y64490828D01*
X5490413Y64490829D01*
X5490410Y64490830D01*
X5289233Y64551856D01*
X5289228Y64551857D01*
X5289227Y64551857D01*
X5080000Y64572464D01*
X4870773Y64551857D01*
X4870771Y64551857D01*
X4870766Y64551856D01*
X4669590Y64490830D01*
X4669589Y64490830D01*
X4484170Y64391721D01*
X4321655Y64258349D01*
X4321651Y64258345D01*
X4188279Y64095830D01*
X4089170Y63910411D01*
X4089170Y63910410D01*
X4028144Y63709234D01*
X4007536Y63500000D01*
X635500Y63500000D01*
X635500Y66040000D01*
X4007536Y66040000D01*
X4028144Y65830767D01*
X4089170Y65629591D01*
X4089170Y65629590D01*
X4089171Y65629587D01*
X4089172Y65629586D01*
X4188279Y65444171D01*
X4321653Y65281653D01*
X4484171Y65148279D01*
X4669586Y65049172D01*
X4870773Y64988143D01*
X5080000Y64967536D01*
X5289227Y64988143D01*
X5490414Y65049172D01*
X5675829Y65148279D01*
X5838347Y65281653D01*
X5971721Y65444171D01*
X6070828Y65629586D01*
X6131857Y65830773D01*
X6152464Y66040000D01*
X21787536Y66040000D01*
X21808144Y65830767D01*
X21869170Y65629591D01*
X21869170Y65629590D01*
X21869171Y65629587D01*
X21869172Y65629586D01*
X21968279Y65444171D01*
X22101653Y65281653D01*
X22264171Y65148279D01*
X22449586Y65049172D01*
X22650773Y64988143D01*
X22860000Y64967536D01*
X23069227Y64988143D01*
X23270414Y65049172D01*
X23455829Y65148279D01*
X23618347Y65281653D01*
X23751721Y65444171D01*
X23850828Y65629586D01*
X23911857Y65830773D01*
X23932464Y66040000D01*
X23911857Y66249227D01*
X23850828Y66450414D01*
X23751721Y66635829D01*
X23618347Y66798347D01*
X23455829Y66931721D01*
X23270414Y67030828D01*
X23270413Y67030829D01*
X23270410Y67030830D01*
X23069233Y67091856D01*
X23069228Y67091857D01*
X23069227Y67091857D01*
X22860000Y67112464D01*
X22650773Y67091857D01*
X22650771Y67091857D01*
X22650766Y67091856D01*
X22449590Y67030830D01*
X22449589Y67030830D01*
X22264170Y66931721D01*
X22101655Y66798349D01*
X22101651Y66798345D01*
X21968279Y66635830D01*
X21869170Y66450411D01*
X21869170Y66450410D01*
X21808144Y66249234D01*
X21787536Y66040000D01*
X6152464Y66040000D01*
X6131857Y66249227D01*
X6070828Y66450414D01*
X5971721Y66635829D01*
X5838347Y66798347D01*
X5675829Y66931721D01*
X5490414Y67030828D01*
X5490413Y67030829D01*
X5490410Y67030830D01*
X5289233Y67091856D01*
X5289228Y67091857D01*
X5289227Y67091857D01*
X5080000Y67112464D01*
X4870773Y67091857D01*
X4870771Y67091857D01*
X4870766Y67091856D01*
X4669590Y67030830D01*
X4669589Y67030830D01*
X4484170Y66931721D01*
X4321655Y66798349D01*
X4321651Y66798345D01*
X4188279Y66635830D01*
X4089170Y66450411D01*
X4089170Y66450410D01*
X4028144Y66249234D01*
X4007536Y66040000D01*
X635500Y66040000D01*
X635500Y68580000D01*
X4007536Y68580000D01*
X4028144Y68370767D01*
X4089170Y68169591D01*
X4089170Y68169590D01*
X4089171Y68169587D01*
X4089172Y68169586D01*
X4188279Y67984171D01*
X4321653Y67821653D01*
X4484171Y67688279D01*
X4669586Y67589172D01*
X4870773Y67528143D01*
X5080000Y67507536D01*
X5289227Y67528143D01*
X5490414Y67589172D01*
X5675829Y67688279D01*
X5838347Y67821653D01*
X5971721Y67984171D01*
X6070828Y68169586D01*
X6131857Y68370773D01*
X6152464Y68580000D01*
X21787536Y68580000D01*
X21808144Y68370767D01*
X21869170Y68169591D01*
X21869170Y68169590D01*
X21869171Y68169587D01*
X21869172Y68169586D01*
X21968279Y67984171D01*
X22101653Y67821653D01*
X22264171Y67688279D01*
X22449586Y67589172D01*
X22650773Y67528143D01*
X22860000Y67507536D01*
X23069227Y67528143D01*
X23270414Y67589172D01*
X23455829Y67688279D01*
X23618347Y67821653D01*
X23751721Y67984171D01*
X23850828Y68169586D01*
X23911857Y68370773D01*
X23932464Y68580000D01*
X23911857Y68789227D01*
X23850828Y68990414D01*
X23751721Y69175829D01*
X23618347Y69338347D01*
X23455829Y69471721D01*
X23270414Y69570828D01*
X23270413Y69570829D01*
X23270410Y69570830D01*
X23069233Y69631856D01*
X23069228Y69631857D01*
X23069227Y69631857D01*
X22860000Y69652464D01*
X22650773Y69631857D01*
X22650771Y69631857D01*
X22650766Y69631856D01*
X22449590Y69570830D01*
X22449589Y69570830D01*
X22264170Y69471721D01*
X22101655Y69338349D01*
X22101651Y69338345D01*
X21968279Y69175830D01*
X21869170Y68990411D01*
X21869170Y68990410D01*
X21808144Y68789234D01*
X21787536Y68580000D01*
X6152464Y68580000D01*
X6131857Y68789227D01*
X6070828Y68990414D01*
X5971721Y69175829D01*
X5838347Y69338347D01*
X5675829Y69471721D01*
X5490414Y69570828D01*
X5490413Y69570829D01*
X5490410Y69570830D01*
X5289233Y69631856D01*
X5289228Y69631857D01*
X5289227Y69631857D01*
X5080000Y69652464D01*
X4870773Y69631857D01*
X4870771Y69631857D01*
X4870766Y69631856D01*
X4669590Y69570830D01*
X4669589Y69570830D01*
X4484170Y69471721D01*
X4321655Y69338349D01*
X4321651Y69338345D01*
X4188279Y69175830D01*
X4089170Y68990411D01*
X4089170Y68990410D01*
X4028144Y68789234D01*
X4007536Y68580000D01*
X635500Y68580000D01*
X635500Y71120000D01*
X4007536Y71120000D01*
X4028144Y70910767D01*
X4089170Y70709591D01*
X4089170Y70709590D01*
X4089171Y70709587D01*
X4089172Y70709586D01*
X4188279Y70524171D01*
X4321653Y70361653D01*
X4484171Y70228279D01*
X4669586Y70129172D01*
X4870773Y70068143D01*
X5080000Y70047536D01*
X5289227Y70068143D01*
X5490414Y70129172D01*
X5675829Y70228279D01*
X5838347Y70361653D01*
X5971721Y70524171D01*
X6070828Y70709586D01*
X6131857Y70910773D01*
X6152464Y71120000D01*
X21787536Y71120000D01*
X21808144Y70910767D01*
X21869170Y70709591D01*
X21869170Y70709590D01*
X21869171Y70709587D01*
X21869172Y70709586D01*
X21968279Y70524171D01*
X22101653Y70361653D01*
X22264171Y70228279D01*
X22449586Y70129172D01*
X22650773Y70068143D01*
X22860000Y70047536D01*
X23069227Y70068143D01*
X23270414Y70129172D01*
X23455829Y70228279D01*
X23618347Y70361653D01*
X23751721Y70524171D01*
X23850828Y70709586D01*
X23911857Y70910773D01*
X23932464Y71120000D01*
X23911857Y71329227D01*
X23850828Y71530414D01*
X23751721Y71715829D01*
X23618347Y71878347D01*
X23455829Y72011721D01*
X23270414Y72110828D01*
X23270413Y72110829D01*
X23270410Y72110830D01*
X23069233Y72171856D01*
X23069228Y72171857D01*
X23069227Y72171857D01*
X22860000Y72192464D01*
X22650773Y72171857D01*
X22650771Y72171857D01*
X22650766Y72171856D01*
X22449590Y72110830D01*
X22449589Y72110830D01*
X22264170Y72011721D01*
X22101655Y71878349D01*
X22101651Y71878345D01*
X21968279Y71715830D01*
X21869170Y71530411D01*
X21869170Y71530410D01*
X21808144Y71329234D01*
X21787536Y71120000D01*
X6152464Y71120000D01*
X6131857Y71329227D01*
X6070828Y71530414D01*
X5971721Y71715829D01*
X5838347Y71878347D01*
X5675829Y72011721D01*
X5490414Y72110828D01*
X5490413Y72110829D01*
X5490410Y72110830D01*
X5289233Y72171856D01*
X5289228Y72171857D01*
X5289227Y72171857D01*
X5080000Y72192464D01*
X4870773Y72171857D01*
X4870771Y72171857D01*
X4870766Y72171856D01*
X4669590Y72110830D01*
X4669589Y72110830D01*
X4484170Y72011721D01*
X4321655Y71878349D01*
X4321651Y71878345D01*
X4188279Y71715830D01*
X4089170Y71530411D01*
X4089170Y71530410D01*
X4028144Y71329234D01*
X4007536Y71120000D01*
X635500Y71120000D01*
X635500Y73660000D01*
X4007536Y73660000D01*
X4028144Y73450767D01*
X4089170Y73249591D01*
X4089170Y73249590D01*
X4089171Y73249587D01*
X4089172Y73249586D01*
X4188279Y73064171D01*
X4321653Y72901653D01*
X4484171Y72768279D01*
X4669586Y72669172D01*
X4870773Y72608143D01*
X5080000Y72587536D01*
X5289227Y72608143D01*
X5490414Y72669172D01*
X5675829Y72768279D01*
X5838347Y72901653D01*
X5971721Y73064171D01*
X6070828Y73249586D01*
X6131857Y73450773D01*
X6152464Y73660000D01*
X21787536Y73660000D01*
X21808144Y73450767D01*
X21869170Y73249591D01*
X21869170Y73249590D01*
X21869171Y73249587D01*
X21869172Y73249586D01*
X21968279Y73064171D01*
X22101653Y72901653D01*
X22264171Y72768279D01*
X22449586Y72669172D01*
X22650773Y72608143D01*
X22860000Y72587536D01*
X23069227Y72608143D01*
X23270414Y72669172D01*
X23455829Y72768279D01*
X23618347Y72901653D01*
X23751721Y73064171D01*
X23850828Y73249586D01*
X23911857Y73450773D01*
X23932464Y73660000D01*
X23911857Y73869227D01*
X23850828Y74070414D01*
X23751721Y74255829D01*
X23618347Y74418347D01*
X23455829Y74551721D01*
X23270414Y74650828D01*
X23270413Y74650829D01*
X23270410Y74650830D01*
X23069233Y74711856D01*
X23069228Y74711857D01*
X23069227Y74711857D01*
X22860000Y74732464D01*
X22650773Y74711857D01*
X22650771Y74711857D01*
X22650766Y74711856D01*
X22449590Y74650830D01*
X22449589Y74650830D01*
X22264170Y74551721D01*
X22101655Y74418349D01*
X22101651Y74418345D01*
X21968279Y74255830D01*
X21869170Y74070411D01*
X21869170Y74070410D01*
X21808144Y73869234D01*
X21787536Y73660000D01*
X6152464Y73660000D01*
X6131857Y73869227D01*
X6070828Y74070414D01*
X5971721Y74255829D01*
X5838347Y74418347D01*
X5675829Y74551721D01*
X5490414Y74650828D01*
X5490413Y74650829D01*
X5490410Y74650830D01*
X5289233Y74711856D01*
X5289228Y74711857D01*
X5289227Y74711857D01*
X5080000Y74732464D01*
X4870773Y74711857D01*
X4870771Y74711857D01*
X4870766Y74711856D01*
X4669590Y74650830D01*
X4669589Y74650830D01*
X4484170Y74551721D01*
X4321655Y74418349D01*
X4321651Y74418345D01*
X4188279Y74255830D01*
X4089170Y74070411D01*
X4089170Y74070410D01*
X4028144Y73869234D01*
X4007536Y73660000D01*
X635500Y73660000D01*
X635500Y76200000D01*
X4007536Y76200000D01*
X4028144Y75990767D01*
X4089170Y75789591D01*
X4089170Y75789590D01*
X4089171Y75789587D01*
X4089172Y75789586D01*
X4188279Y75604171D01*
X4321653Y75441653D01*
X4484171Y75308279D01*
X4669586Y75209172D01*
X4870773Y75148143D01*
X5080000Y75127536D01*
X5289227Y75148143D01*
X5490414Y75209172D01*
X5675829Y75308279D01*
X5838347Y75441653D01*
X5971721Y75604171D01*
X6070828Y75789586D01*
X6131857Y75990773D01*
X6152464Y76200000D01*
X21787536Y76200000D01*
X21808144Y75990767D01*
X21869170Y75789591D01*
X21869170Y75789590D01*
X21869171Y75789587D01*
X21869172Y75789586D01*
X21968279Y75604171D01*
X22101653Y75441653D01*
X22264171Y75308279D01*
X22449586Y75209172D01*
X22650773Y75148143D01*
X22860000Y75127536D01*
X23069227Y75148143D01*
X23270414Y75209172D01*
X23455829Y75308279D01*
X23618347Y75441653D01*
X23751721Y75604171D01*
X23850828Y75789586D01*
X23911857Y75990773D01*
X23932464Y76200000D01*
X23911857Y76409227D01*
X23850828Y76610414D01*
X23751721Y76795829D01*
X23618347Y76958347D01*
X23455829Y77091721D01*
X23270414Y77190828D01*
X23270413Y77190829D01*
X23270410Y77190830D01*
X23069233Y77251856D01*
X23069228Y77251857D01*
X23069227Y77251857D01*
X22860000Y77272464D01*
X22650773Y77251857D01*
X22650771Y77251857D01*
X22650766Y77251856D01*
X22449590Y77190830D01*
X22449589Y77190830D01*
X22264170Y77091721D01*
X22101655Y76958349D01*
X22101651Y76958345D01*
X21968279Y76795830D01*
X21869170Y76610411D01*
X21869170Y76610410D01*
X21808144Y76409234D01*
X21787536Y76200000D01*
X6152464Y76200000D01*
X6131857Y76409227D01*
X6070828Y76610414D01*
X5971721Y76795829D01*
X5838347Y76958347D01*
X5675829Y77091721D01*
X5490414Y77190828D01*
X5490413Y77190829D01*
X5490410Y77190830D01*
X5289233Y77251856D01*
X5289228Y77251857D01*
X5289227Y77251857D01*
X5080000Y77272464D01*
X4870773Y77251857D01*
X4870771Y77251857D01*
X4870766Y77251856D01*
X4669590Y77190830D01*
X4669589Y77190830D01*
X4484170Y77091721D01*
X4321655Y76958349D01*
X4321651Y76958345D01*
X4188279Y76795830D01*
X4089170Y76610411D01*
X4089170Y76610410D01*
X4028144Y76409234D01*
X4007536Y76200000D01*
X635500Y76200000D01*
X635500Y78740000D01*
X4007536Y78740000D01*
X4021250Y78600754D01*
X4028144Y78530767D01*
X4089170Y78329591D01*
X4089170Y78329590D01*
X4089171Y78329587D01*
X4089172Y78329586D01*
X4188279Y78144171D01*
X4321653Y77981653D01*
X4484171Y77848279D01*
X4669586Y77749172D01*
X4870773Y77688143D01*
X5080000Y77667536D01*
X5289227Y77688143D01*
X5490414Y77749172D01*
X5675829Y77848279D01*
X5838347Y77981653D01*
X5971721Y78144171D01*
X6070828Y78329586D01*
X6131857Y78530773D01*
X6152464Y78740000D01*
X21787536Y78740000D01*
X21801250Y78600754D01*
X21808144Y78530767D01*
X21869170Y78329591D01*
X21869170Y78329590D01*
X21869171Y78329587D01*
X21869172Y78329586D01*
X21968279Y78144171D01*
X22101653Y77981653D01*
X22264171Y77848279D01*
X22449586Y77749172D01*
X22650773Y77688143D01*
X22860000Y77667536D01*
X23069227Y77688143D01*
X23270414Y77749172D01*
X23455829Y77848279D01*
X23618347Y77981653D01*
X23751721Y78144171D01*
X23850828Y78329586D01*
X23911857Y78530773D01*
X23932464Y78740000D01*
X23911857Y78949227D01*
X23850828Y79150414D01*
X23751721Y79335829D01*
X23618347Y79498347D01*
X23455829Y79631721D01*
X23270414Y79730828D01*
X23270413Y79730829D01*
X23270410Y79730830D01*
X23069233Y79791856D01*
X23069228Y79791857D01*
X23069227Y79791857D01*
X22860000Y79812464D01*
X22650773Y79791857D01*
X22650771Y79791857D01*
X22650766Y79791856D01*
X22449590Y79730830D01*
X22449589Y79730830D01*
X22264170Y79631721D01*
X22101655Y79498349D01*
X22101651Y79498345D01*
X21968279Y79335830D01*
X21869170Y79150411D01*
X21869170Y79150410D01*
X21808144Y78949234D01*
X21808143Y78949229D01*
X21808143Y78949227D01*
X21787536Y78740000D01*
X6152464Y78740000D01*
X6131857Y78949227D01*
X6070828Y79150414D01*
X5971721Y79335829D01*
X5838347Y79498347D01*
X5675829Y79631721D01*
X5490414Y79730828D01*
X5490413Y79730829D01*
X5490410Y79730830D01*
X5289233Y79791856D01*
X5289228Y79791857D01*
X5289227Y79791857D01*
X5080000Y79812464D01*
X4870773Y79791857D01*
X4870771Y79791857D01*
X4870766Y79791856D01*
X4669590Y79730830D01*
X4669589Y79730830D01*
X4484170Y79631721D01*
X4321655Y79498349D01*
X4321651Y79498345D01*
X4188279Y79335830D01*
X4089170Y79150411D01*
X4089170Y79150410D01*
X4028144Y78949234D01*
X4028143Y78949229D01*
X4028143Y78949227D01*
X4007536Y78740000D01*
X635500Y78740000D01*
X635500Y81280000D01*
X4007536Y81280000D01*
X4028144Y81070767D01*
X4089170Y80869591D01*
X4089170Y80869590D01*
X4089171Y80869587D01*
X4089172Y80869586D01*
X4188279Y80684171D01*
X4321653Y80521653D01*
X4484171Y80388279D01*
X4669586Y80289172D01*
X4870773Y80228143D01*
X5080000Y80207536D01*
X5289227Y80228143D01*
X5490414Y80289172D01*
X5675829Y80388279D01*
X5838347Y80521653D01*
X5971721Y80684171D01*
X6070828Y80869586D01*
X6131857Y81070773D01*
X6152464Y81280000D01*
X21787536Y81280000D01*
X21808144Y81070767D01*
X21869170Y80869591D01*
X21869170Y80869590D01*
X21869171Y80869587D01*
X21869172Y80869586D01*
X21968279Y80684171D01*
X22101653Y80521653D01*
X22264171Y80388279D01*
X22449586Y80289172D01*
X22650773Y80228143D01*
X22860000Y80207536D01*
X23069227Y80228143D01*
X23270414Y80289172D01*
X23455829Y80388279D01*
X23618347Y80521653D01*
X23751721Y80684171D01*
X23850828Y80869586D01*
X23911857Y81070773D01*
X23932464Y81280000D01*
X23911857Y81489227D01*
X23850828Y81690414D01*
X23751721Y81875829D01*
X23618347Y82038347D01*
X23455829Y82171721D01*
X23270414Y82270828D01*
X23270413Y82270829D01*
X23270410Y82270830D01*
X23069233Y82331856D01*
X23069228Y82331857D01*
X23069227Y82331857D01*
X22860000Y82352464D01*
X22650773Y82331857D01*
X22650771Y82331857D01*
X22650766Y82331856D01*
X22449590Y82270830D01*
X22449589Y82270830D01*
X22264170Y82171721D01*
X22101655Y82038349D01*
X22101651Y82038345D01*
X21968279Y81875830D01*
X21869170Y81690411D01*
X21869170Y81690410D01*
X21808144Y81489234D01*
X21787536Y81280000D01*
X6152464Y81280000D01*
X6131857Y81489227D01*
X6070828Y81690414D01*
X5971721Y81875829D01*
X5838347Y82038347D01*
X5675829Y82171721D01*
X5490414Y82270828D01*
X5490413Y82270829D01*
X5490410Y82270830D01*
X5289233Y82331856D01*
X5289228Y82331857D01*
X5289227Y82331857D01*
X5080000Y82352464D01*
X4870773Y82331857D01*
X4870771Y82331857D01*
X4870766Y82331856D01*
X4669590Y82270830D01*
X4669589Y82270830D01*
X4484170Y82171721D01*
X4321655Y82038349D01*
X4321651Y82038345D01*
X4188279Y81875830D01*
X4089170Y81690411D01*
X4089170Y81690410D01*
X4028144Y81489234D01*
X4007536Y81280000D01*
X635500Y81280000D01*
X635500Y83820000D01*
X4007536Y83820000D01*
X4028144Y83610767D01*
X4089170Y83409591D01*
X4089170Y83409590D01*
X4089171Y83409587D01*
X4089172Y83409586D01*
X4188279Y83224171D01*
X4321653Y83061653D01*
X4484171Y82928279D01*
X4669586Y82829172D01*
X4870773Y82768143D01*
X5080000Y82747536D01*
X5289227Y82768143D01*
X5490414Y82829172D01*
X5675829Y82928279D01*
X5838347Y83061653D01*
X5971721Y83224171D01*
X6070828Y83409586D01*
X6131857Y83610773D01*
X6152464Y83820000D01*
X10865536Y83820000D01*
X10886144Y83610767D01*
X10947170Y83409591D01*
X10947170Y83409590D01*
X10947171Y83409587D01*
X10947172Y83409586D01*
X11046279Y83224171D01*
X11179653Y83061653D01*
X11342171Y82928279D01*
X11527586Y82829172D01*
X11728773Y82768143D01*
X11938000Y82747536D01*
X12147227Y82768143D01*
X12348414Y82829172D01*
X12533829Y82928279D01*
X12696347Y83061653D01*
X12829721Y83224171D01*
X12928828Y83409586D01*
X12989857Y83610773D01*
X13010464Y83820000D01*
X13405536Y83820000D01*
X13426144Y83610767D01*
X13487170Y83409591D01*
X13487170Y83409590D01*
X13487171Y83409587D01*
X13487172Y83409586D01*
X13586279Y83224171D01*
X13719653Y83061653D01*
X13882171Y82928279D01*
X14067586Y82829172D01*
X14268773Y82768143D01*
X14478000Y82747536D01*
X14687227Y82768143D01*
X14888414Y82829172D01*
X15073829Y82928279D01*
X15236347Y83061653D01*
X15369721Y83224171D01*
X15468828Y83409586D01*
X15529857Y83610773D01*
X15550464Y83820000D01*
X15743149Y83820000D01*
X15762517Y83598623D01*
X15820031Y83383976D01*
X15913947Y83182574D01*
X15913950Y83182569D01*
X15958184Y83119397D01*
X16527193Y83688407D01*
X16551155Y83606799D01*
X16630131Y83483910D01*
X16740530Y83388248D01*
X16873408Y83327565D01*
X16883345Y83326137D01*
X16317395Y82760186D01*
X16380572Y82715948D01*
X16380574Y82715947D01*
X16581975Y82622032D01*
X16796622Y82564518D01*
X17018000Y82545150D01*
X17239377Y82564518D01*
X17454024Y82622032D01*
X17655419Y82715944D01*
X17655425Y82715948D01*
X17718603Y82760187D01*
X17152653Y83326137D01*
X17162592Y83327565D01*
X17295470Y83388248D01*
X17405869Y83483910D01*
X17484845Y83606799D01*
X17508806Y83688405D01*
X18077813Y83119397D01*
X18122052Y83182575D01*
X18122056Y83182581D01*
X18215968Y83383976D01*
X18273482Y83598623D01*
X18292850Y83820000D01*
X21585149Y83820000D01*
X21604517Y83598623D01*
X21662031Y83383976D01*
X21755947Y83182574D01*
X21755950Y83182569D01*
X21800184Y83119397D01*
X22369193Y83688407D01*
X22393155Y83606799D01*
X22472131Y83483910D01*
X22582530Y83388248D01*
X22715408Y83327565D01*
X22725345Y83326137D01*
X22159395Y82760186D01*
X22222572Y82715948D01*
X22222574Y82715947D01*
X22423975Y82622032D01*
X22638622Y82564518D01*
X22860000Y82545150D01*
X23081377Y82564518D01*
X23296024Y82622032D01*
X23497419Y82715944D01*
X23497425Y82715948D01*
X23560603Y82760187D01*
X22994653Y83326137D01*
X23004592Y83327565D01*
X23137470Y83388248D01*
X23247869Y83483910D01*
X23326845Y83606799D01*
X23350806Y83688405D01*
X23919813Y83119397D01*
X23964052Y83182575D01*
X23964056Y83182581D01*
X24057968Y83383976D01*
X24115482Y83598623D01*
X24134850Y83820000D01*
X24115482Y84041378D01*
X24057968Y84256025D01*
X23964052Y84457426D01*
X23964046Y84457437D01*
X23919814Y84520606D01*
X23350805Y83951598D01*
X23326845Y84033201D01*
X23247869Y84156090D01*
X23137470Y84251752D01*
X23004592Y84312435D01*
X22994651Y84313865D01*
X23560603Y84879816D01*
X23497431Y84924050D01*
X23497426Y84924053D01*
X23296024Y85017969D01*
X23081377Y85075483D01*
X22860000Y85094851D01*
X22638622Y85075483D01*
X22423975Y85017969D01*
X22222582Y84924058D01*
X22222578Y84924055D01*
X22159395Y84879816D01*
X22725347Y84313864D01*
X22715408Y84312435D01*
X22582530Y84251752D01*
X22472131Y84156090D01*
X22393155Y84033201D01*
X22369193Y83951596D01*
X21800184Y84520605D01*
X21755945Y84457422D01*
X21755942Y84457418D01*
X21662031Y84256025D01*
X21604517Y84041378D01*
X21585149Y83820000D01*
X18292850Y83820000D01*
X18273482Y84041378D01*
X18215968Y84256025D01*
X18122052Y84457426D01*
X18122046Y84457437D01*
X18077814Y84520606D01*
X17508805Y83951598D01*
X17484845Y84033201D01*
X17405869Y84156090D01*
X17295470Y84251752D01*
X17162592Y84312435D01*
X17152651Y84313865D01*
X17718603Y84879816D01*
X17655431Y84924050D01*
X17655426Y84924053D01*
X17454024Y85017969D01*
X17239377Y85075483D01*
X17018000Y85094851D01*
X16796622Y85075483D01*
X16581975Y85017969D01*
X16380582Y84924058D01*
X16380578Y84924055D01*
X16317395Y84879816D01*
X16883347Y84313864D01*
X16873408Y84312435D01*
X16740530Y84251752D01*
X16630131Y84156090D01*
X16551155Y84033201D01*
X16527193Y83951596D01*
X15958184Y84520605D01*
X15913945Y84457422D01*
X15913942Y84457418D01*
X15820031Y84256025D01*
X15762517Y84041378D01*
X15743149Y83820000D01*
X15550464Y83820000D01*
X15529857Y84029227D01*
X15468828Y84230414D01*
X15369721Y84415829D01*
X15236347Y84578347D01*
X15073829Y84711721D01*
X14888414Y84810828D01*
X14888413Y84810829D01*
X14888410Y84810830D01*
X14687233Y84871856D01*
X14687228Y84871857D01*
X14687227Y84871857D01*
X14478000Y84892464D01*
X14268773Y84871857D01*
X14268771Y84871857D01*
X14268766Y84871856D01*
X14067590Y84810830D01*
X14067589Y84810830D01*
X13882170Y84711721D01*
X13719655Y84578349D01*
X13719651Y84578345D01*
X13586279Y84415830D01*
X13487170Y84230411D01*
X13487170Y84230410D01*
X13426144Y84029234D01*
X13405536Y83820000D01*
X13010464Y83820000D01*
X12989857Y84029227D01*
X12928828Y84230414D01*
X12829721Y84415829D01*
X12696347Y84578347D01*
X12533829Y84711721D01*
X12348414Y84810828D01*
X12348413Y84810829D01*
X12348410Y84810830D01*
X12147233Y84871856D01*
X12147228Y84871857D01*
X12147227Y84871857D01*
X11938000Y84892464D01*
X11728773Y84871857D01*
X11728771Y84871857D01*
X11728766Y84871856D01*
X11527590Y84810830D01*
X11527589Y84810830D01*
X11342170Y84711721D01*
X11179655Y84578349D01*
X11179651Y84578345D01*
X11046279Y84415830D01*
X10947170Y84230411D01*
X10947170Y84230410D01*
X10886144Y84029234D01*
X10865536Y83820000D01*
X6152464Y83820000D01*
X6131857Y84029227D01*
X6070828Y84230414D01*
X5971721Y84415829D01*
X5838347Y84578347D01*
X5675829Y84711721D01*
X5490414Y84810828D01*
X5490413Y84810829D01*
X5490410Y84810830D01*
X5289233Y84871856D01*
X5289228Y84871857D01*
X5289227Y84871857D01*
X5080000Y84892464D01*
X4870773Y84871857D01*
X4870771Y84871857D01*
X4870766Y84871856D01*
X4669590Y84810830D01*
X4669589Y84810830D01*
X4484170Y84711721D01*
X4321655Y84578349D01*
X4321651Y84578345D01*
X4188279Y84415830D01*
X4089170Y84230411D01*
X4089170Y84230410D01*
X4028144Y84029234D01*
X4007536Y83820000D01*
X635500Y83820000D01*
X635500Y86360000D01*
X10865536Y86360000D01*
X10886144Y86150767D01*
X10947170Y85949591D01*
X10947170Y85949590D01*
X10947171Y85949587D01*
X10947172Y85949586D01*
X11046279Y85764171D01*
X11179653Y85601653D01*
X11342171Y85468279D01*
X11527586Y85369172D01*
X11728773Y85308143D01*
X11938000Y85287536D01*
X12147227Y85308143D01*
X12348414Y85369172D01*
X12533829Y85468279D01*
X12696347Y85601653D01*
X12829721Y85764171D01*
X12928828Y85949586D01*
X12989857Y86150773D01*
X13010464Y86360000D01*
X13405536Y86360000D01*
X13426144Y86150767D01*
X13487170Y85949591D01*
X13487170Y85949590D01*
X13487171Y85949587D01*
X13487172Y85949586D01*
X13586279Y85764171D01*
X13719653Y85601653D01*
X13882171Y85468279D01*
X14067586Y85369172D01*
X14268773Y85308143D01*
X14478000Y85287536D01*
X14687227Y85308143D01*
X14888414Y85369172D01*
X15073829Y85468279D01*
X15236347Y85601653D01*
X15369721Y85764171D01*
X15468828Y85949586D01*
X15529857Y86150773D01*
X15550464Y86360000D01*
X15945536Y86360000D01*
X15966144Y86150767D01*
X16027170Y85949591D01*
X16027170Y85949590D01*
X16027171Y85949587D01*
X16027172Y85949586D01*
X16126279Y85764171D01*
X16259653Y85601653D01*
X16422171Y85468279D01*
X16607586Y85369172D01*
X16808773Y85308143D01*
X17018000Y85287536D01*
X17227227Y85308143D01*
X17428414Y85369172D01*
X17613829Y85468279D01*
X17776347Y85601653D01*
X17909721Y85764171D01*
X18008828Y85949586D01*
X18069857Y86150773D01*
X18090464Y86360000D01*
X18069857Y86569227D01*
X18008828Y86770414D01*
X17909721Y86955829D01*
X17776347Y87118347D01*
X17613829Y87251721D01*
X17428414Y87350828D01*
X17428413Y87350829D01*
X17428410Y87350830D01*
X17227233Y87411856D01*
X17227228Y87411857D01*
X17227227Y87411857D01*
X17018000Y87432464D01*
X16808773Y87411857D01*
X16808771Y87411857D01*
X16808766Y87411856D01*
X16607590Y87350830D01*
X16607589Y87350830D01*
X16422170Y87251721D01*
X16259655Y87118349D01*
X16259651Y87118345D01*
X16126279Y86955830D01*
X16027170Y86770411D01*
X16027170Y86770410D01*
X15966144Y86569234D01*
X15945536Y86360000D01*
X15550464Y86360000D01*
X15529857Y86569227D01*
X15468828Y86770414D01*
X15369721Y86955829D01*
X15236347Y87118347D01*
X15073829Y87251721D01*
X14888414Y87350828D01*
X14888413Y87350829D01*
X14888410Y87350830D01*
X14687233Y87411856D01*
X14687228Y87411857D01*
X14687227Y87411857D01*
X14478000Y87432464D01*
X14268773Y87411857D01*
X14268771Y87411857D01*
X14268766Y87411856D01*
X14067590Y87350830D01*
X14067589Y87350830D01*
X13882170Y87251721D01*
X13719655Y87118349D01*
X13719651Y87118345D01*
X13586279Y86955830D01*
X13487170Y86770411D01*
X13487170Y86770410D01*
X13426144Y86569234D01*
X13405536Y86360000D01*
X13010464Y86360000D01*
X12989857Y86569227D01*
X12928828Y86770414D01*
X12829721Y86955829D01*
X12696347Y87118347D01*
X12533829Y87251721D01*
X12348414Y87350828D01*
X12348413Y87350829D01*
X12348410Y87350830D01*
X12147233Y87411856D01*
X12147228Y87411857D01*
X12147227Y87411857D01*
X11938000Y87432464D01*
X11728773Y87411857D01*
X11728771Y87411857D01*
X11728766Y87411856D01*
X11527590Y87350830D01*
X11527589Y87350830D01*
X11342170Y87251721D01*
X11179655Y87118349D01*
X11179651Y87118345D01*
X11046279Y86955830D01*
X10947170Y86770411D01*
X10947170Y86770410D01*
X10886144Y86569234D01*
X10865536Y86360000D01*
X635500Y86360000D01*
X635500Y93256600D01*
X656065Y93313101D01*
X708136Y93343165D01*
X723400Y93344500D01*
X27216600Y93344500D01*
X27273101Y93323935D01*
G37*
%TD.AperFunction*%
%TD*%
M02*
