M48
; DRILL file {KiCad 7.0.8} date Wed Dec 20 10:38:08 2023
; FORMAT={3:3/ absolute / metric / suppress leading zeros}
; #@! TF.CreationDate,2023-12-20T10:38:08-05:00
; #@! TF.GenerationSoftware,Kicad,Pcbnew,7.0.8
; #@! TF.FileFunction,MixedPlating,1,2
FMAT,2
METRIC,TZ
; #@! TA.AperFunction,Plated,PTH,ViaDrill
T1C0.254
; #@! TA.AperFunction,Plated,PTH,ComponentDrill
T2C1.016
%
G90
G05
T1
X2540Y91440
X2540Y2540
X7620Y74930
X7722Y35560
X8280Y38100
X8712Y40640
X9195Y43180
X10109Y39345
X11709Y56642
X13970Y72390
X19888Y56617
X20320Y76200
X20523Y36855
X20955Y32410
X24079Y39345
X24105Y36855
X24816Y25781
X24816Y22403
X25070Y41910
X25527Y52070
X25933Y45237
X26488Y50250
X26721Y40640
X27026Y56261
X27280Y46711
X27305Y38100
X27330Y48184
X27381Y22352
X27940Y20955
X31115Y19050
X33655Y20955
X38100Y76200
X38100Y72390
X38100Y16510
X38100Y12700
X41910Y72390
X41910Y16510
X45720Y76200
X45720Y72390
X45720Y16510
X45720Y12700
T2
X5080Y83820
X5080Y81280
X5080Y78740
X5080Y76200
X5080Y73660
X5080Y71120
X5080Y68580
X5080Y66040
X5080Y63500
X5080Y60960
X5080Y58420
X5080Y55880
X5080Y53340
X5080Y50800
X5080Y48260
X5080Y45720
X5080Y43180
X5080Y40640
X5080Y38100
X5080Y35560
X5080Y33020
X5080Y30480
X5080Y27940
X5080Y25400
X5080Y22860
X5080Y20320
X5080Y17780
X5080Y15240
X5080Y12700
X5080Y10160
X5080Y7620
X5080Y5080
X11938Y86360
X11938Y83820
X14478Y86360
X14478Y83820
X17018Y86360
X17018Y83820
X22860Y83820
X22860Y81280
X22860Y78740
X22860Y76200
X22860Y73660
X22860Y71120
X22860Y68580
X22860Y66040
X22860Y63500
X22860Y60960
X22860Y58420
X22860Y55880
X22860Y53340
X22860Y50800
X22860Y48260
X22860Y45720
X22860Y43180
X22860Y40640
X22860Y38100
X22860Y35560
X22860Y33020
X22860Y30480
X22860Y27940
X22860Y25400
X22860Y22860
X22860Y20320
X22860Y17780
X22860Y15240
X22860Y12700
X22860Y10160
X22860Y7620
X22860Y5080
T0
M30
