%TF.GenerationSoftware,KiCad,Pcbnew,7.0.8*%
%TF.CreationDate,2023-12-20T10:37:58-05:00*%
%TF.ProjectId,gba-umd,6762612d-756d-4642-9e6b-696361645f70,rev?*%
%TF.SameCoordinates,PX7cc0090PY8eeaea0*%
%TF.FileFunction,Legend,Top*%
%TF.FilePolarity,Positive*%
%FSLAX46Y46*%
G04 Gerber Fmt 4.6, Leading zero omitted, Abs format (unit mm)*
G04 Created by KiCad (PCBNEW 7.0.8) date 2023-12-20 10:37:58*
%MOMM*%
%LPD*%
G01*
G04 APERTURE LIST*
%ADD10C,0.203200*%
%ADD11C,0.177800*%
%ADD12C,0.254000*%
%ADD13C,0.010000*%
G04 APERTURE END LIST*
D10*
X28835684Y19423363D02*
X29386017Y19423363D01*
X29386017Y19423363D02*
X29089684Y19084696D01*
X29089684Y19084696D02*
X29216684Y19084696D01*
X29216684Y19084696D02*
X29301350Y19042363D01*
X29301350Y19042363D02*
X29343684Y19000030D01*
X29343684Y19000030D02*
X29386017Y18915363D01*
X29386017Y18915363D02*
X29386017Y18703696D01*
X29386017Y18703696D02*
X29343684Y18619030D01*
X29343684Y18619030D02*
X29301350Y18576696D01*
X29301350Y18576696D02*
X29216684Y18534363D01*
X29216684Y18534363D02*
X28962684Y18534363D01*
X28962684Y18534363D02*
X28878017Y18576696D01*
X28878017Y18576696D02*
X28835684Y18619030D01*
X29724684Y19338696D02*
X29767017Y19381030D01*
X29767017Y19381030D02*
X29851684Y19423363D01*
X29851684Y19423363D02*
X30063351Y19423363D01*
X30063351Y19423363D02*
X30148017Y19381030D01*
X30148017Y19381030D02*
X30190351Y19338696D01*
X30190351Y19338696D02*
X30232684Y19254030D01*
X30232684Y19254030D02*
X30232684Y19169363D01*
X30232684Y19169363D02*
X30190351Y19042363D01*
X30190351Y19042363D02*
X29682351Y18534363D01*
X29682351Y18534363D02*
X30232684Y18534363D01*
X30021017Y69334363D02*
X29513017Y69334363D01*
X29767017Y69334363D02*
X29767017Y70223363D01*
X29767017Y70223363D02*
X29682350Y70096363D01*
X29682350Y70096363D02*
X29597684Y70011696D01*
X29597684Y70011696D02*
X29513017Y69969363D01*
X3182637Y11775351D02*
X2293637Y11775351D01*
X3182637Y12156351D02*
X2716970Y12156351D01*
X2716970Y12156351D02*
X2632304Y12114018D01*
X2632304Y12114018D02*
X2589970Y12029351D01*
X2589970Y12029351D02*
X2589970Y11902351D01*
X2589970Y11902351D02*
X2632304Y11817684D01*
X2632304Y11817684D02*
X2674637Y11775351D01*
X2589970Y12452684D02*
X2589970Y12791351D01*
X2293637Y12579684D02*
X3055637Y12579684D01*
X3055637Y12579684D02*
X3140304Y12622017D01*
X3140304Y12622017D02*
X3182637Y12706684D01*
X3182637Y12706684D02*
X3182637Y12791351D01*
X2589970Y12960684D02*
X2589970Y13299351D01*
X2293637Y13087684D02*
X3055637Y13087684D01*
X3055637Y13087684D02*
X3140304Y13130017D01*
X3140304Y13130017D02*
X3182637Y13214684D01*
X3182637Y13214684D02*
X3182637Y13299351D01*
X2589970Y13595684D02*
X3478970Y13595684D01*
X2632304Y13595684D02*
X2589970Y13680351D01*
X2589970Y13680351D02*
X2589970Y13849684D01*
X2589970Y13849684D02*
X2632304Y13934351D01*
X2632304Y13934351D02*
X2674637Y13976684D01*
X2674637Y13976684D02*
X2759304Y14019017D01*
X2759304Y14019017D02*
X3013304Y14019017D01*
X3013304Y14019017D02*
X3097970Y13976684D01*
X3097970Y13976684D02*
X3140304Y13934351D01*
X3140304Y13934351D02*
X3182637Y13849684D01*
X3182637Y13849684D02*
X3182637Y13680351D01*
X3182637Y13680351D02*
X3140304Y13595684D01*
X3140304Y14357684D02*
X3182637Y14442350D01*
X3182637Y14442350D02*
X3182637Y14611684D01*
X3182637Y14611684D02*
X3140304Y14696350D01*
X3140304Y14696350D02*
X3055637Y14738684D01*
X3055637Y14738684D02*
X3013304Y14738684D01*
X3013304Y14738684D02*
X2928637Y14696350D01*
X2928637Y14696350D02*
X2886304Y14611684D01*
X2886304Y14611684D02*
X2886304Y14484684D01*
X2886304Y14484684D02*
X2843970Y14400017D01*
X2843970Y14400017D02*
X2759304Y14357684D01*
X2759304Y14357684D02*
X2716970Y14357684D01*
X2716970Y14357684D02*
X2632304Y14400017D01*
X2632304Y14400017D02*
X2589970Y14484684D01*
X2589970Y14484684D02*
X2589970Y14611684D01*
X2589970Y14611684D02*
X2632304Y14696350D01*
X3097970Y15119684D02*
X3140304Y15162017D01*
X3140304Y15162017D02*
X3182637Y15119684D01*
X3182637Y15119684D02*
X3140304Y15077351D01*
X3140304Y15077351D02*
X3097970Y15119684D01*
X3097970Y15119684D02*
X3182637Y15119684D01*
X2632304Y15119684D02*
X2674637Y15162017D01*
X2674637Y15162017D02*
X2716970Y15119684D01*
X2716970Y15119684D02*
X2674637Y15077351D01*
X2674637Y15077351D02*
X2632304Y15119684D01*
X2632304Y15119684D02*
X2716970Y15119684D01*
X2251304Y16178017D02*
X3394304Y15416017D01*
X2251304Y17109350D02*
X3394304Y16347350D01*
X2589970Y17786683D02*
X3309637Y17786683D01*
X3309637Y17786683D02*
X3394304Y17744350D01*
X3394304Y17744350D02*
X3436637Y17702016D01*
X3436637Y17702016D02*
X3478970Y17617350D01*
X3478970Y17617350D02*
X3478970Y17490350D01*
X3478970Y17490350D02*
X3436637Y17405683D01*
X3140304Y17786683D02*
X3182637Y17702016D01*
X3182637Y17702016D02*
X3182637Y17532683D01*
X3182637Y17532683D02*
X3140304Y17448016D01*
X3140304Y17448016D02*
X3097970Y17405683D01*
X3097970Y17405683D02*
X3013304Y17363350D01*
X3013304Y17363350D02*
X2759304Y17363350D01*
X2759304Y17363350D02*
X2674637Y17405683D01*
X2674637Y17405683D02*
X2632304Y17448016D01*
X2632304Y17448016D02*
X2589970Y17532683D01*
X2589970Y17532683D02*
X2589970Y17702016D01*
X2589970Y17702016D02*
X2632304Y17786683D01*
X3182637Y18210016D02*
X2589970Y18210016D01*
X2293637Y18210016D02*
X2335970Y18167683D01*
X2335970Y18167683D02*
X2378304Y18210016D01*
X2378304Y18210016D02*
X2335970Y18252349D01*
X2335970Y18252349D02*
X2293637Y18210016D01*
X2293637Y18210016D02*
X2378304Y18210016D01*
X2589970Y18506349D02*
X2589970Y18845016D01*
X2293637Y18633349D02*
X3055637Y18633349D01*
X3055637Y18633349D02*
X3140304Y18675682D01*
X3140304Y18675682D02*
X3182637Y18760349D01*
X3182637Y18760349D02*
X3182637Y18845016D01*
X3182637Y19141349D02*
X2293637Y19141349D01*
X3182637Y19522349D02*
X2716970Y19522349D01*
X2716970Y19522349D02*
X2632304Y19480016D01*
X2632304Y19480016D02*
X2589970Y19395349D01*
X2589970Y19395349D02*
X2589970Y19268349D01*
X2589970Y19268349D02*
X2632304Y19183682D01*
X2632304Y19183682D02*
X2674637Y19141349D01*
X2589970Y20326682D02*
X3182637Y20326682D01*
X2589970Y19945682D02*
X3055637Y19945682D01*
X3055637Y19945682D02*
X3140304Y19988015D01*
X3140304Y19988015D02*
X3182637Y20072682D01*
X3182637Y20072682D02*
X3182637Y20199682D01*
X3182637Y20199682D02*
X3140304Y20284349D01*
X3140304Y20284349D02*
X3097970Y20326682D01*
X3182637Y20750015D02*
X2293637Y20750015D01*
X2632304Y20750015D02*
X2589970Y20834682D01*
X2589970Y20834682D02*
X2589970Y21004015D01*
X2589970Y21004015D02*
X2632304Y21088682D01*
X2632304Y21088682D02*
X2674637Y21131015D01*
X2674637Y21131015D02*
X2759304Y21173348D01*
X2759304Y21173348D02*
X3013304Y21173348D01*
X3013304Y21173348D02*
X3097970Y21131015D01*
X3097970Y21131015D02*
X3140304Y21088682D01*
X3140304Y21088682D02*
X3182637Y21004015D01*
X3182637Y21004015D02*
X3182637Y20834682D01*
X3182637Y20834682D02*
X3140304Y20750015D01*
X3097970Y21554348D02*
X3140304Y21596681D01*
X3140304Y21596681D02*
X3182637Y21554348D01*
X3182637Y21554348D02*
X3140304Y21512015D01*
X3140304Y21512015D02*
X3097970Y21554348D01*
X3097970Y21554348D02*
X3182637Y21554348D01*
X3140304Y22358681D02*
X3182637Y22274014D01*
X3182637Y22274014D02*
X3182637Y22104681D01*
X3182637Y22104681D02*
X3140304Y22020014D01*
X3140304Y22020014D02*
X3097970Y21977681D01*
X3097970Y21977681D02*
X3013304Y21935348D01*
X3013304Y21935348D02*
X2759304Y21935348D01*
X2759304Y21935348D02*
X2674637Y21977681D01*
X2674637Y21977681D02*
X2632304Y22020014D01*
X2632304Y22020014D02*
X2589970Y22104681D01*
X2589970Y22104681D02*
X2589970Y22274014D01*
X2589970Y22274014D02*
X2632304Y22358681D01*
X3182637Y22866681D02*
X3140304Y22782014D01*
X3140304Y22782014D02*
X3097970Y22739681D01*
X3097970Y22739681D02*
X3013304Y22697348D01*
X3013304Y22697348D02*
X2759304Y22697348D01*
X2759304Y22697348D02*
X2674637Y22739681D01*
X2674637Y22739681D02*
X2632304Y22782014D01*
X2632304Y22782014D02*
X2589970Y22866681D01*
X2589970Y22866681D02*
X2589970Y22993681D01*
X2589970Y22993681D02*
X2632304Y23078348D01*
X2632304Y23078348D02*
X2674637Y23120681D01*
X2674637Y23120681D02*
X2759304Y23163014D01*
X2759304Y23163014D02*
X3013304Y23163014D01*
X3013304Y23163014D02*
X3097970Y23120681D01*
X3097970Y23120681D02*
X3140304Y23078348D01*
X3140304Y23078348D02*
X3182637Y22993681D01*
X3182637Y22993681D02*
X3182637Y22866681D01*
X3182637Y23544014D02*
X2589970Y23544014D01*
X2674637Y23544014D02*
X2632304Y23586347D01*
X2632304Y23586347D02*
X2589970Y23671014D01*
X2589970Y23671014D02*
X2589970Y23798014D01*
X2589970Y23798014D02*
X2632304Y23882681D01*
X2632304Y23882681D02*
X2716970Y23925014D01*
X2716970Y23925014D02*
X3182637Y23925014D01*
X2716970Y23925014D02*
X2632304Y23967347D01*
X2632304Y23967347D02*
X2589970Y24052014D01*
X2589970Y24052014D02*
X2589970Y24179014D01*
X2589970Y24179014D02*
X2632304Y24263681D01*
X2632304Y24263681D02*
X2716970Y24306014D01*
X2716970Y24306014D02*
X3182637Y24306014D01*
X2251304Y25364347D02*
X3394304Y24602347D01*
X3182637Y26041680D02*
X2293637Y26041680D01*
X3140304Y26041680D02*
X3182637Y25957013D01*
X3182637Y25957013D02*
X3182637Y25787680D01*
X3182637Y25787680D02*
X3140304Y25703013D01*
X3140304Y25703013D02*
X3097970Y25660680D01*
X3097970Y25660680D02*
X3013304Y25618347D01*
X3013304Y25618347D02*
X2759304Y25618347D01*
X2759304Y25618347D02*
X2674637Y25660680D01*
X2674637Y25660680D02*
X2632304Y25703013D01*
X2632304Y25703013D02*
X2589970Y25787680D01*
X2589970Y25787680D02*
X2589970Y25957013D01*
X2589970Y25957013D02*
X2632304Y26041680D01*
X3182637Y26465013D02*
X2293637Y26465013D01*
X2632304Y26465013D02*
X2589970Y26549680D01*
X2589970Y26549680D02*
X2589970Y26719013D01*
X2589970Y26719013D02*
X2632304Y26803680D01*
X2632304Y26803680D02*
X2674637Y26846013D01*
X2674637Y26846013D02*
X2759304Y26888346D01*
X2759304Y26888346D02*
X3013304Y26888346D01*
X3013304Y26888346D02*
X3097970Y26846013D01*
X3097970Y26846013D02*
X3140304Y26803680D01*
X3140304Y26803680D02*
X3182637Y26719013D01*
X3182637Y26719013D02*
X3182637Y26549680D01*
X3182637Y26549680D02*
X3140304Y26465013D01*
X2843970Y27269346D02*
X2843970Y27946679D01*
X3140304Y28708680D02*
X3182637Y28624013D01*
X3182637Y28624013D02*
X3182637Y28454680D01*
X3182637Y28454680D02*
X3140304Y28370013D01*
X3140304Y28370013D02*
X3055637Y28327680D01*
X3055637Y28327680D02*
X2716970Y28327680D01*
X2716970Y28327680D02*
X2632304Y28370013D01*
X2632304Y28370013D02*
X2589970Y28454680D01*
X2589970Y28454680D02*
X2589970Y28624013D01*
X2589970Y28624013D02*
X2632304Y28708680D01*
X2632304Y28708680D02*
X2716970Y28751013D01*
X2716970Y28751013D02*
X2801637Y28751013D01*
X2801637Y28751013D02*
X2886304Y28327680D01*
X3182637Y29259013D02*
X3140304Y29174346D01*
X3140304Y29174346D02*
X3055637Y29132013D01*
X3055637Y29132013D02*
X2293637Y29132013D01*
X3140304Y29936347D02*
X3182637Y29851680D01*
X3182637Y29851680D02*
X3182637Y29682347D01*
X3182637Y29682347D02*
X3140304Y29597680D01*
X3140304Y29597680D02*
X3055637Y29555347D01*
X3055637Y29555347D02*
X2716970Y29555347D01*
X2716970Y29555347D02*
X2632304Y29597680D01*
X2632304Y29597680D02*
X2589970Y29682347D01*
X2589970Y29682347D02*
X2589970Y29851680D01*
X2589970Y29851680D02*
X2632304Y29936347D01*
X2632304Y29936347D02*
X2716970Y29978680D01*
X2716970Y29978680D02*
X2801637Y29978680D01*
X2801637Y29978680D02*
X2886304Y29555347D01*
X3140304Y30740680D02*
X3182637Y30656013D01*
X3182637Y30656013D02*
X3182637Y30486680D01*
X3182637Y30486680D02*
X3140304Y30402013D01*
X3140304Y30402013D02*
X3097970Y30359680D01*
X3097970Y30359680D02*
X3013304Y30317347D01*
X3013304Y30317347D02*
X2759304Y30317347D01*
X2759304Y30317347D02*
X2674637Y30359680D01*
X2674637Y30359680D02*
X2632304Y30402013D01*
X2632304Y30402013D02*
X2589970Y30486680D01*
X2589970Y30486680D02*
X2589970Y30656013D01*
X2589970Y30656013D02*
X2632304Y30740680D01*
X2589970Y30994680D02*
X2589970Y31333347D01*
X2293637Y31121680D02*
X3055637Y31121680D01*
X3055637Y31121680D02*
X3140304Y31164013D01*
X3140304Y31164013D02*
X3182637Y31248680D01*
X3182637Y31248680D02*
X3182637Y31333347D01*
X3182637Y31629680D02*
X2589970Y31629680D01*
X2759304Y31629680D02*
X2674637Y31672013D01*
X2674637Y31672013D02*
X2632304Y31714347D01*
X2632304Y31714347D02*
X2589970Y31799013D01*
X2589970Y31799013D02*
X2589970Y31883680D01*
X3182637Y32307013D02*
X3140304Y32222346D01*
X3140304Y32222346D02*
X3097970Y32180013D01*
X3097970Y32180013D02*
X3013304Y32137680D01*
X3013304Y32137680D02*
X2759304Y32137680D01*
X2759304Y32137680D02*
X2674637Y32180013D01*
X2674637Y32180013D02*
X2632304Y32222346D01*
X2632304Y32222346D02*
X2589970Y32307013D01*
X2589970Y32307013D02*
X2589970Y32434013D01*
X2589970Y32434013D02*
X2632304Y32518680D01*
X2632304Y32518680D02*
X2674637Y32561013D01*
X2674637Y32561013D02*
X2759304Y32603346D01*
X2759304Y32603346D02*
X3013304Y32603346D01*
X3013304Y32603346D02*
X3097970Y32561013D01*
X3097970Y32561013D02*
X3140304Y32518680D01*
X3140304Y32518680D02*
X3182637Y32434013D01*
X3182637Y32434013D02*
X3182637Y32307013D01*
X2589970Y32984346D02*
X3182637Y32984346D01*
X2674637Y32984346D02*
X2632304Y33026679D01*
X2632304Y33026679D02*
X2589970Y33111346D01*
X2589970Y33111346D02*
X2589970Y33238346D01*
X2589970Y33238346D02*
X2632304Y33323013D01*
X2632304Y33323013D02*
X2716970Y33365346D01*
X2716970Y33365346D02*
X3182637Y33365346D01*
X3182637Y33788679D02*
X2589970Y33788679D01*
X2293637Y33788679D02*
X2335970Y33746346D01*
X2335970Y33746346D02*
X2378304Y33788679D01*
X2378304Y33788679D02*
X2335970Y33831012D01*
X2335970Y33831012D02*
X2293637Y33788679D01*
X2293637Y33788679D02*
X2378304Y33788679D01*
X3140304Y34593012D02*
X3182637Y34508345D01*
X3182637Y34508345D02*
X3182637Y34339012D01*
X3182637Y34339012D02*
X3140304Y34254345D01*
X3140304Y34254345D02*
X3097970Y34212012D01*
X3097970Y34212012D02*
X3013304Y34169679D01*
X3013304Y34169679D02*
X2759304Y34169679D01*
X2759304Y34169679D02*
X2674637Y34212012D01*
X2674637Y34212012D02*
X2632304Y34254345D01*
X2632304Y34254345D02*
X2589970Y34339012D01*
X2589970Y34339012D02*
X2589970Y34508345D01*
X2589970Y34508345D02*
X2632304Y34593012D01*
X3140304Y34931679D02*
X3182637Y35016345D01*
X3182637Y35016345D02*
X3182637Y35185679D01*
X3182637Y35185679D02*
X3140304Y35270345D01*
X3140304Y35270345D02*
X3055637Y35312679D01*
X3055637Y35312679D02*
X3013304Y35312679D01*
X3013304Y35312679D02*
X2928637Y35270345D01*
X2928637Y35270345D02*
X2886304Y35185679D01*
X2886304Y35185679D02*
X2886304Y35058679D01*
X2886304Y35058679D02*
X2843970Y34974012D01*
X2843970Y34974012D02*
X2759304Y34931679D01*
X2759304Y34931679D02*
X2716970Y34931679D01*
X2716970Y34931679D02*
X2632304Y34974012D01*
X2632304Y34974012D02*
X2589970Y35058679D01*
X2589970Y35058679D02*
X2589970Y35185679D01*
X2589970Y35185679D02*
X2632304Y35270345D01*
X2251304Y36328679D02*
X3394304Y35566679D01*
X2293637Y36625012D02*
X3013304Y36625012D01*
X3013304Y36625012D02*
X3097970Y36667345D01*
X3097970Y36667345D02*
X3140304Y36709679D01*
X3140304Y36709679D02*
X3182637Y36794345D01*
X3182637Y36794345D02*
X3182637Y36963679D01*
X3182637Y36963679D02*
X3140304Y37048345D01*
X3140304Y37048345D02*
X3097970Y37090679D01*
X3097970Y37090679D02*
X3013304Y37133012D01*
X3013304Y37133012D02*
X2293637Y37133012D01*
X3182637Y37556345D02*
X2293637Y37556345D01*
X2293637Y37556345D02*
X2928637Y37852678D01*
X2928637Y37852678D02*
X2293637Y38149012D01*
X2293637Y38149012D02*
X3182637Y38149012D01*
X3182637Y38572345D02*
X2293637Y38572345D01*
X2293637Y38572345D02*
X2293637Y38784012D01*
X2293637Y38784012D02*
X2335970Y38911012D01*
X2335970Y38911012D02*
X2420637Y38995678D01*
X2420637Y38995678D02*
X2505304Y39038012D01*
X2505304Y39038012D02*
X2674637Y39080345D01*
X2674637Y39080345D02*
X2801637Y39080345D01*
X2801637Y39080345D02*
X2970970Y39038012D01*
X2970970Y39038012D02*
X3055637Y38995678D01*
X3055637Y38995678D02*
X3140304Y38911012D01*
X3140304Y38911012D02*
X3182637Y38784012D01*
X3182637Y38784012D02*
X3182637Y38572345D01*
X2589970Y39376678D02*
X3182637Y39588345D01*
X3182637Y39588345D02*
X2589970Y39800012D01*
X2293637Y40054011D02*
X2293637Y40604345D01*
X2293637Y40604345D02*
X2632304Y40308011D01*
X2632304Y40308011D02*
X2632304Y40435011D01*
X2632304Y40435011D02*
X2674637Y40519678D01*
X2674637Y40519678D02*
X2716970Y40562011D01*
X2716970Y40562011D02*
X2801637Y40604345D01*
X2801637Y40604345D02*
X3013304Y40604345D01*
X3013304Y40604345D02*
X3097970Y40562011D01*
X3097970Y40562011D02*
X3140304Y40519678D01*
X3140304Y40519678D02*
X3182637Y40435011D01*
X3182637Y40435011D02*
X3182637Y40181011D01*
X3182637Y40181011D02*
X3140304Y40096345D01*
X3140304Y40096345D02*
X3097970Y40054011D01*
X2843970Y40985345D02*
X2843970Y41662678D01*
X3182637Y42086012D02*
X2293637Y42086012D01*
X2843970Y42170679D02*
X3182637Y42424679D01*
X2589970Y42424679D02*
X2928637Y42086012D01*
X3182637Y42805679D02*
X2589970Y42805679D01*
X2293637Y42805679D02*
X2335970Y42763346D01*
X2335970Y42763346D02*
X2378304Y42805679D01*
X2378304Y42805679D02*
X2335970Y42848012D01*
X2335970Y42848012D02*
X2293637Y42805679D01*
X2293637Y42805679D02*
X2378304Y42805679D01*
X3140304Y43610012D02*
X3182637Y43525345D01*
X3182637Y43525345D02*
X3182637Y43356012D01*
X3182637Y43356012D02*
X3140304Y43271345D01*
X3140304Y43271345D02*
X3097970Y43229012D01*
X3097970Y43229012D02*
X3013304Y43186679D01*
X3013304Y43186679D02*
X2759304Y43186679D01*
X2759304Y43186679D02*
X2674637Y43229012D01*
X2674637Y43229012D02*
X2632304Y43271345D01*
X2632304Y43271345D02*
X2589970Y43356012D01*
X2589970Y43356012D02*
X2589970Y43525345D01*
X2589970Y43525345D02*
X2632304Y43610012D01*
X3182637Y44372012D02*
X2716970Y44372012D01*
X2716970Y44372012D02*
X2632304Y44329679D01*
X2632304Y44329679D02*
X2589970Y44245012D01*
X2589970Y44245012D02*
X2589970Y44075679D01*
X2589970Y44075679D02*
X2632304Y43991012D01*
X3140304Y44372012D02*
X3182637Y44287345D01*
X3182637Y44287345D02*
X3182637Y44075679D01*
X3182637Y44075679D02*
X3140304Y43991012D01*
X3140304Y43991012D02*
X3055637Y43948679D01*
X3055637Y43948679D02*
X2970970Y43948679D01*
X2970970Y43948679D02*
X2886304Y43991012D01*
X2886304Y43991012D02*
X2843970Y44075679D01*
X2843970Y44075679D02*
X2843970Y44287345D01*
X2843970Y44287345D02*
X2801637Y44372012D01*
X3182637Y45176345D02*
X2293637Y45176345D01*
X3140304Y45176345D02*
X3182637Y45091678D01*
X3182637Y45091678D02*
X3182637Y44922345D01*
X3182637Y44922345D02*
X3140304Y44837678D01*
X3140304Y44837678D02*
X3097970Y44795345D01*
X3097970Y44795345D02*
X3013304Y44753012D01*
X3013304Y44753012D02*
X2759304Y44753012D01*
X2759304Y44753012D02*
X2674637Y44795345D01*
X2674637Y44795345D02*
X2632304Y44837678D01*
X2632304Y44837678D02*
X2589970Y44922345D01*
X2589970Y44922345D02*
X2589970Y45091678D01*
X2589970Y45091678D02*
X2632304Y45176345D01*
D11*
X878973Y89256501D02*
X878973Y90018501D01*
X878973Y89292786D02*
X806401Y89256501D01*
X806401Y89256501D02*
X661258Y89256501D01*
X661258Y89256501D02*
X588687Y89292786D01*
X588687Y89292786D02*
X552401Y89329072D01*
X552401Y89329072D02*
X516115Y89401644D01*
X516115Y89401644D02*
X516115Y89619358D01*
X516115Y89619358D02*
X552401Y89691929D01*
X552401Y89691929D02*
X588687Y89728215D01*
X588687Y89728215D02*
X661258Y89764501D01*
X661258Y89764501D02*
X806401Y89764501D01*
X806401Y89764501D02*
X878973Y89728215D01*
X1241830Y89256501D02*
X1241830Y90018501D01*
X1241830Y89728215D02*
X1314402Y89764501D01*
X1314402Y89764501D02*
X1459544Y89764501D01*
X1459544Y89764501D02*
X1532116Y89728215D01*
X1532116Y89728215D02*
X1568402Y89691929D01*
X1568402Y89691929D02*
X1604687Y89619358D01*
X1604687Y89619358D02*
X1604687Y89401644D01*
X1604687Y89401644D02*
X1568402Y89329072D01*
X1568402Y89329072D02*
X1532116Y89292786D01*
X1532116Y89292786D02*
X1459544Y89256501D01*
X1459544Y89256501D02*
X1314402Y89256501D01*
X1314402Y89256501D02*
X1241830Y89292786D01*
X2802116Y89292786D02*
X2729544Y89256501D01*
X2729544Y89256501D02*
X2584402Y89256501D01*
X2584402Y89256501D02*
X2511830Y89292786D01*
X2511830Y89292786D02*
X2475544Y89365358D01*
X2475544Y89365358D02*
X2475544Y89655644D01*
X2475544Y89655644D02*
X2511830Y89728215D01*
X2511830Y89728215D02*
X2584402Y89764501D01*
X2584402Y89764501D02*
X2729544Y89764501D01*
X2729544Y89764501D02*
X2802116Y89728215D01*
X2802116Y89728215D02*
X2838402Y89655644D01*
X2838402Y89655644D02*
X2838402Y89583072D01*
X2838402Y89583072D02*
X2475544Y89510501D01*
X3273830Y89256501D02*
X3201259Y89292786D01*
X3201259Y89292786D02*
X3164973Y89365358D01*
X3164973Y89365358D02*
X3164973Y90018501D01*
X3854402Y89292786D02*
X3781830Y89256501D01*
X3781830Y89256501D02*
X3636688Y89256501D01*
X3636688Y89256501D02*
X3564116Y89292786D01*
X3564116Y89292786D02*
X3527830Y89365358D01*
X3527830Y89365358D02*
X3527830Y89655644D01*
X3527830Y89655644D02*
X3564116Y89728215D01*
X3564116Y89728215D02*
X3636688Y89764501D01*
X3636688Y89764501D02*
X3781830Y89764501D01*
X3781830Y89764501D02*
X3854402Y89728215D01*
X3854402Y89728215D02*
X3890688Y89655644D01*
X3890688Y89655644D02*
X3890688Y89583072D01*
X3890688Y89583072D02*
X3527830Y89510501D01*
X4543831Y89292786D02*
X4471259Y89256501D01*
X4471259Y89256501D02*
X4326116Y89256501D01*
X4326116Y89256501D02*
X4253545Y89292786D01*
X4253545Y89292786D02*
X4217259Y89329072D01*
X4217259Y89329072D02*
X4180973Y89401644D01*
X4180973Y89401644D02*
X4180973Y89619358D01*
X4180973Y89619358D02*
X4217259Y89691929D01*
X4217259Y89691929D02*
X4253545Y89728215D01*
X4253545Y89728215D02*
X4326116Y89764501D01*
X4326116Y89764501D02*
X4471259Y89764501D01*
X4471259Y89764501D02*
X4543831Y89728215D01*
X4761545Y89764501D02*
X5051831Y89764501D01*
X4870402Y90018501D02*
X4870402Y89365358D01*
X4870402Y89365358D02*
X4906688Y89292786D01*
X4906688Y89292786D02*
X4979259Y89256501D01*
X4979259Y89256501D02*
X5051831Y89256501D01*
X5305831Y89256501D02*
X5305831Y89764501D01*
X5305831Y89619358D02*
X5342117Y89691929D01*
X5342117Y89691929D02*
X5378403Y89728215D01*
X5378403Y89728215D02*
X5450974Y89764501D01*
X5450974Y89764501D02*
X5523545Y89764501D01*
X5886402Y89256501D02*
X5813831Y89292786D01*
X5813831Y89292786D02*
X5777545Y89329072D01*
X5777545Y89329072D02*
X5741259Y89401644D01*
X5741259Y89401644D02*
X5741259Y89619358D01*
X5741259Y89619358D02*
X5777545Y89691929D01*
X5777545Y89691929D02*
X5813831Y89728215D01*
X5813831Y89728215D02*
X5886402Y89764501D01*
X5886402Y89764501D02*
X5995259Y89764501D01*
X5995259Y89764501D02*
X6067831Y89728215D01*
X6067831Y89728215D02*
X6104117Y89691929D01*
X6104117Y89691929D02*
X6140402Y89619358D01*
X6140402Y89619358D02*
X6140402Y89401644D01*
X6140402Y89401644D02*
X6104117Y89329072D01*
X6104117Y89329072D02*
X6067831Y89292786D01*
X6067831Y89292786D02*
X5995259Y89256501D01*
X5995259Y89256501D02*
X5886402Y89256501D01*
X6466974Y89764501D02*
X6466974Y89256501D01*
X6466974Y89691929D02*
X6503260Y89728215D01*
X6503260Y89728215D02*
X6575831Y89764501D01*
X6575831Y89764501D02*
X6684688Y89764501D01*
X6684688Y89764501D02*
X6757260Y89728215D01*
X6757260Y89728215D02*
X6793546Y89655644D01*
X6793546Y89655644D02*
X6793546Y89256501D01*
X7156403Y89256501D02*
X7156403Y89764501D01*
X7156403Y90018501D02*
X7120117Y89982215D01*
X7120117Y89982215D02*
X7156403Y89945929D01*
X7156403Y89945929D02*
X7192689Y89982215D01*
X7192689Y89982215D02*
X7156403Y90018501D01*
X7156403Y90018501D02*
X7156403Y89945929D01*
X7845832Y89292786D02*
X7773260Y89256501D01*
X7773260Y89256501D02*
X7628117Y89256501D01*
X7628117Y89256501D02*
X7555546Y89292786D01*
X7555546Y89292786D02*
X7519260Y89329072D01*
X7519260Y89329072D02*
X7482974Y89401644D01*
X7482974Y89401644D02*
X7482974Y89619358D01*
X7482974Y89619358D02*
X7519260Y89691929D01*
X7519260Y89691929D02*
X7555546Y89728215D01*
X7555546Y89728215D02*
X7628117Y89764501D01*
X7628117Y89764501D02*
X7773260Y89764501D01*
X7773260Y89764501D02*
X7845832Y89728215D01*
X8136117Y89292786D02*
X8208689Y89256501D01*
X8208689Y89256501D02*
X8353832Y89256501D01*
X8353832Y89256501D02*
X8426403Y89292786D01*
X8426403Y89292786D02*
X8462689Y89365358D01*
X8462689Y89365358D02*
X8462689Y89401644D01*
X8462689Y89401644D02*
X8426403Y89474215D01*
X8426403Y89474215D02*
X8353832Y89510501D01*
X8353832Y89510501D02*
X8244975Y89510501D01*
X8244975Y89510501D02*
X8172403Y89546786D01*
X8172403Y89546786D02*
X8136117Y89619358D01*
X8136117Y89619358D02*
X8136117Y89655644D01*
X8136117Y89655644D02*
X8172403Y89728215D01*
X8172403Y89728215D02*
X8244975Y89764501D01*
X8244975Y89764501D02*
X8353832Y89764501D01*
X8353832Y89764501D02*
X8426403Y89728215D01*
D10*
X2335970Y49071018D02*
X2293637Y48986351D01*
X2293637Y48986351D02*
X2293637Y48859351D01*
X2293637Y48859351D02*
X2335970Y48732351D01*
X2335970Y48732351D02*
X2420637Y48647684D01*
X2420637Y48647684D02*
X2505304Y48605351D01*
X2505304Y48605351D02*
X2674637Y48563018D01*
X2674637Y48563018D02*
X2801637Y48563018D01*
X2801637Y48563018D02*
X2970970Y48605351D01*
X2970970Y48605351D02*
X3055637Y48647684D01*
X3055637Y48647684D02*
X3140304Y48732351D01*
X3140304Y48732351D02*
X3182637Y48859351D01*
X3182637Y48859351D02*
X3182637Y48944018D01*
X3182637Y48944018D02*
X3140304Y49071018D01*
X3140304Y49071018D02*
X3097970Y49113351D01*
X3097970Y49113351D02*
X2801637Y49113351D01*
X2801637Y49113351D02*
X2801637Y48944018D01*
X2716970Y49790684D02*
X2759304Y49917684D01*
X2759304Y49917684D02*
X2801637Y49960018D01*
X2801637Y49960018D02*
X2886304Y50002351D01*
X2886304Y50002351D02*
X3013304Y50002351D01*
X3013304Y50002351D02*
X3097970Y49960018D01*
X3097970Y49960018D02*
X3140304Y49917684D01*
X3140304Y49917684D02*
X3182637Y49833018D01*
X3182637Y49833018D02*
X3182637Y49494351D01*
X3182637Y49494351D02*
X2293637Y49494351D01*
X2293637Y49494351D02*
X2293637Y49790684D01*
X2293637Y49790684D02*
X2335970Y49875351D01*
X2335970Y49875351D02*
X2378304Y49917684D01*
X2378304Y49917684D02*
X2462970Y49960018D01*
X2462970Y49960018D02*
X2547637Y49960018D01*
X2547637Y49960018D02*
X2632304Y49917684D01*
X2632304Y49917684D02*
X2674637Y49875351D01*
X2674637Y49875351D02*
X2716970Y49790684D01*
X2716970Y49790684D02*
X2716970Y49494351D01*
X2251304Y51018351D02*
X3394304Y50256351D01*
X2335970Y51780351D02*
X2293637Y51695684D01*
X2293637Y51695684D02*
X2293637Y51568684D01*
X2293637Y51568684D02*
X2335970Y51441684D01*
X2335970Y51441684D02*
X2420637Y51357017D01*
X2420637Y51357017D02*
X2505304Y51314684D01*
X2505304Y51314684D02*
X2674637Y51272351D01*
X2674637Y51272351D02*
X2801637Y51272351D01*
X2801637Y51272351D02*
X2970970Y51314684D01*
X2970970Y51314684D02*
X3055637Y51357017D01*
X3055637Y51357017D02*
X3140304Y51441684D01*
X3140304Y51441684D02*
X3182637Y51568684D01*
X3182637Y51568684D02*
X3182637Y51653351D01*
X3182637Y51653351D02*
X3140304Y51780351D01*
X3140304Y51780351D02*
X3097970Y51822684D01*
X3097970Y51822684D02*
X2801637Y51822684D01*
X2801637Y51822684D02*
X2801637Y51653351D01*
X2716970Y52500017D02*
X2759304Y52627017D01*
X2759304Y52627017D02*
X2801637Y52669351D01*
X2801637Y52669351D02*
X2886304Y52711684D01*
X2886304Y52711684D02*
X3013304Y52711684D01*
X3013304Y52711684D02*
X3097970Y52669351D01*
X3097970Y52669351D02*
X3140304Y52627017D01*
X3140304Y52627017D02*
X3182637Y52542351D01*
X3182637Y52542351D02*
X3182637Y52203684D01*
X3182637Y52203684D02*
X2293637Y52203684D01*
X2293637Y52203684D02*
X2293637Y52500017D01*
X2293637Y52500017D02*
X2335970Y52584684D01*
X2335970Y52584684D02*
X2378304Y52627017D01*
X2378304Y52627017D02*
X2462970Y52669351D01*
X2462970Y52669351D02*
X2547637Y52669351D01*
X2547637Y52669351D02*
X2632304Y52627017D01*
X2632304Y52627017D02*
X2674637Y52584684D01*
X2674637Y52584684D02*
X2716970Y52500017D01*
X2716970Y52500017D02*
X2716970Y52203684D01*
X2928637Y53050351D02*
X2928637Y53473684D01*
X3182637Y52965684D02*
X2293637Y53262017D01*
X2293637Y53262017D02*
X3182637Y53558351D01*
X2589970Y54447350D02*
X3182637Y54659017D01*
X3182637Y54659017D02*
X2589970Y54870684D01*
X2293637Y55378683D02*
X2293637Y55463350D01*
X2293637Y55463350D02*
X2335970Y55548017D01*
X2335970Y55548017D02*
X2378304Y55590350D01*
X2378304Y55590350D02*
X2462970Y55632683D01*
X2462970Y55632683D02*
X2632304Y55675017D01*
X2632304Y55675017D02*
X2843970Y55675017D01*
X2843970Y55675017D02*
X3013304Y55632683D01*
X3013304Y55632683D02*
X3097970Y55590350D01*
X3097970Y55590350D02*
X3140304Y55548017D01*
X3140304Y55548017D02*
X3182637Y55463350D01*
X3182637Y55463350D02*
X3182637Y55378683D01*
X3182637Y55378683D02*
X3140304Y55294017D01*
X3140304Y55294017D02*
X3097970Y55251683D01*
X3097970Y55251683D02*
X3013304Y55209350D01*
X3013304Y55209350D02*
X2843970Y55167017D01*
X2843970Y55167017D02*
X2632304Y55167017D01*
X2632304Y55167017D02*
X2462970Y55209350D01*
X2462970Y55209350D02*
X2378304Y55251683D01*
X2378304Y55251683D02*
X2335970Y55294017D01*
X2335970Y55294017D02*
X2293637Y55378683D01*
X3097970Y56056017D02*
X3140304Y56098350D01*
X3140304Y56098350D02*
X3182637Y56056017D01*
X3182637Y56056017D02*
X3140304Y56013684D01*
X3140304Y56013684D02*
X3097970Y56056017D01*
X3097970Y56056017D02*
X3182637Y56056017D01*
X3182637Y56945017D02*
X3182637Y56437017D01*
X3182637Y56691017D02*
X2293637Y56691017D01*
X2293637Y56691017D02*
X2420637Y56606350D01*
X2420637Y56606350D02*
X2505304Y56521683D01*
X2505304Y56521683D02*
X2547637Y56437017D01*
X11648350Y92551233D02*
X11563684Y92593566D01*
X11563684Y92593566D02*
X11521350Y92635900D01*
X11521350Y92635900D02*
X11479017Y92720566D01*
X11479017Y92720566D02*
X11479017Y92974566D01*
X11479017Y92974566D02*
X11521350Y93059233D01*
X11521350Y93059233D02*
X11563684Y93101566D01*
X11563684Y93101566D02*
X11648350Y93143900D01*
X11648350Y93143900D02*
X11775350Y93143900D01*
X11775350Y93143900D02*
X11860017Y93101566D01*
X11860017Y93101566D02*
X11902350Y93059233D01*
X11902350Y93059233D02*
X11944684Y92974566D01*
X11944684Y92974566D02*
X11944684Y92720566D01*
X11944684Y92720566D02*
X11902350Y92635900D01*
X11902350Y92635900D02*
X11860017Y92593566D01*
X11860017Y92593566D02*
X11775350Y92551233D01*
X11775350Y92551233D02*
X11648350Y92551233D01*
X12241017Y92551233D02*
X12706683Y93143900D01*
X12241017Y93143900D02*
X12706683Y92551233D01*
X12960684Y92551233D02*
X13426350Y93143900D01*
X12960684Y93143900D02*
X13426350Y92551233D01*
X11648350Y91119943D02*
X11563684Y91162276D01*
X11563684Y91162276D02*
X11521350Y91204610D01*
X11521350Y91204610D02*
X11479017Y91289276D01*
X11479017Y91289276D02*
X11479017Y91543276D01*
X11479017Y91543276D02*
X11521350Y91627943D01*
X11521350Y91627943D02*
X11563684Y91670276D01*
X11563684Y91670276D02*
X11648350Y91712610D01*
X11648350Y91712610D02*
X11775350Y91712610D01*
X11775350Y91712610D02*
X11860017Y91670276D01*
X11860017Y91670276D02*
X11902350Y91627943D01*
X11902350Y91627943D02*
X11944684Y91543276D01*
X11944684Y91543276D02*
X11944684Y91289276D01*
X11944684Y91289276D02*
X11902350Y91204610D01*
X11902350Y91204610D02*
X11860017Y91162276D01*
X11860017Y91162276D02*
X11775350Y91119943D01*
X11775350Y91119943D02*
X11648350Y91119943D01*
X12241017Y91119943D02*
X12706683Y91712610D01*
X12241017Y91712610D02*
X12706683Y91119943D01*
X12960684Y91119943D02*
X13426350Y91712610D01*
X12960684Y91712610D02*
X13426350Y91119943D01*
X14908017Y91966610D02*
X14823350Y92008943D01*
X14823350Y92008943D02*
X14696350Y92008943D01*
X14696350Y92008943D02*
X14569350Y91966610D01*
X14569350Y91966610D02*
X14484684Y91881943D01*
X14484684Y91881943D02*
X14442350Y91797276D01*
X14442350Y91797276D02*
X14400017Y91627943D01*
X14400017Y91627943D02*
X14400017Y91500943D01*
X14400017Y91500943D02*
X14442350Y91331610D01*
X14442350Y91331610D02*
X14484684Y91246943D01*
X14484684Y91246943D02*
X14569350Y91162276D01*
X14569350Y91162276D02*
X14696350Y91119943D01*
X14696350Y91119943D02*
X14781017Y91119943D01*
X14781017Y91119943D02*
X14908017Y91162276D01*
X14908017Y91162276D02*
X14950350Y91204610D01*
X14950350Y91204610D02*
X14950350Y91500943D01*
X14950350Y91500943D02*
X14781017Y91500943D01*
X15627684Y91585610D02*
X15754684Y91543276D01*
X15754684Y91543276D02*
X15797017Y91500943D01*
X15797017Y91500943D02*
X15839350Y91416276D01*
X15839350Y91416276D02*
X15839350Y91289276D01*
X15839350Y91289276D02*
X15797017Y91204610D01*
X15797017Y91204610D02*
X15754684Y91162276D01*
X15754684Y91162276D02*
X15670017Y91119943D01*
X15670017Y91119943D02*
X15331350Y91119943D01*
X15331350Y91119943D02*
X15331350Y92008943D01*
X15331350Y92008943D02*
X15627684Y92008943D01*
X15627684Y92008943D02*
X15712350Y91966610D01*
X15712350Y91966610D02*
X15754684Y91924276D01*
X15754684Y91924276D02*
X15797017Y91839610D01*
X15797017Y91839610D02*
X15797017Y91754943D01*
X15797017Y91754943D02*
X15754684Y91670276D01*
X15754684Y91670276D02*
X15712350Y91627943D01*
X15712350Y91627943D02*
X15627684Y91585610D01*
X15627684Y91585610D02*
X15331350Y91585610D01*
X16178017Y91373943D02*
X16601350Y91373943D01*
X16093350Y91119943D02*
X16389684Y92008943D01*
X16389684Y92008943D02*
X16686017Y91119943D01*
X17659683Y91119943D02*
X17659683Y92008943D01*
X18083016Y91119943D02*
X18083016Y92008943D01*
X18083016Y92008943D02*
X18294683Y92008943D01*
X18294683Y92008943D02*
X18421683Y91966610D01*
X18421683Y91966610D02*
X18506350Y91881943D01*
X18506350Y91881943D02*
X18548683Y91797276D01*
X18548683Y91797276D02*
X18591016Y91627943D01*
X18591016Y91627943D02*
X18591016Y91500943D01*
X18591016Y91500943D02*
X18548683Y91331610D01*
X18548683Y91331610D02*
X18506350Y91246943D01*
X18506350Y91246943D02*
X18421683Y91162276D01*
X18421683Y91162276D02*
X18294683Y91119943D01*
X18294683Y91119943D02*
X18083016Y91119943D01*
X19649349Y91585610D02*
X20326683Y91585610D01*
X20326683Y91331610D02*
X19649349Y91331610D01*
X21596683Y92008943D02*
X21681349Y92008943D01*
X21681349Y92008943D02*
X21766016Y91966610D01*
X21766016Y91966610D02*
X21808349Y91924276D01*
X21808349Y91924276D02*
X21850683Y91839610D01*
X21850683Y91839610D02*
X21893016Y91670276D01*
X21893016Y91670276D02*
X21893016Y91458610D01*
X21893016Y91458610D02*
X21850683Y91289276D01*
X21850683Y91289276D02*
X21808349Y91204610D01*
X21808349Y91204610D02*
X21766016Y91162276D01*
X21766016Y91162276D02*
X21681349Y91119943D01*
X21681349Y91119943D02*
X21596683Y91119943D01*
X21596683Y91119943D02*
X21512016Y91162276D01*
X21512016Y91162276D02*
X21469683Y91204610D01*
X21469683Y91204610D02*
X21427349Y91289276D01*
X21427349Y91289276D02*
X21385016Y91458610D01*
X21385016Y91458610D02*
X21385016Y91670276D01*
X21385016Y91670276D02*
X21427349Y91839610D01*
X21427349Y91839610D02*
X21469683Y91924276D01*
X21469683Y91924276D02*
X21512016Y91966610D01*
X21512016Y91966610D02*
X21596683Y92008943D01*
X22189350Y91119943D02*
X22655016Y91712610D01*
X22189350Y91712610D02*
X22655016Y91119943D01*
X23163017Y92008943D02*
X23247683Y92008943D01*
X23247683Y92008943D02*
X23332350Y91966610D01*
X23332350Y91966610D02*
X23374683Y91924276D01*
X23374683Y91924276D02*
X23417017Y91839610D01*
X23417017Y91839610D02*
X23459350Y91670276D01*
X23459350Y91670276D02*
X23459350Y91458610D01*
X23459350Y91458610D02*
X23417017Y91289276D01*
X23417017Y91289276D02*
X23374683Y91204610D01*
X23374683Y91204610D02*
X23332350Y91162276D01*
X23332350Y91162276D02*
X23247683Y91119943D01*
X23247683Y91119943D02*
X23163017Y91119943D01*
X23163017Y91119943D02*
X23078350Y91162276D01*
X23078350Y91162276D02*
X23036017Y91204610D01*
X23036017Y91204610D02*
X22993683Y91289276D01*
X22993683Y91289276D02*
X22951350Y91458610D01*
X22951350Y91458610D02*
X22951350Y91670276D01*
X22951350Y91670276D02*
X22993683Y91839610D01*
X22993683Y91839610D02*
X23036017Y91924276D01*
X23036017Y91924276D02*
X23078350Y91966610D01*
X23078350Y91966610D02*
X23163017Y92008943D01*
X24221350Y91712610D02*
X24221350Y91119943D01*
X24009684Y92051276D02*
X23798017Y91416276D01*
X23798017Y91416276D02*
X24348350Y91416276D01*
X11436684Y89688653D02*
X11902350Y90281320D01*
X11436684Y90281320D02*
X11902350Y89688653D01*
X12156351Y89688653D02*
X12622017Y90281320D01*
X12156351Y90281320D02*
X12622017Y89688653D01*
X13087684Y89688653D02*
X13003018Y89730986D01*
X13003018Y89730986D02*
X12960684Y89773320D01*
X12960684Y89773320D02*
X12918351Y89857986D01*
X12918351Y89857986D02*
X12918351Y90111986D01*
X12918351Y90111986D02*
X12960684Y90196653D01*
X12960684Y90196653D02*
X13003018Y90238986D01*
X13003018Y90238986D02*
X13087684Y90281320D01*
X13087684Y90281320D02*
X13214684Y90281320D01*
X13214684Y90281320D02*
X13299351Y90238986D01*
X13299351Y90238986D02*
X13341684Y90196653D01*
X13341684Y90196653D02*
X13384018Y90111986D01*
X13384018Y90111986D02*
X13384018Y89857986D01*
X13384018Y89857986D02*
X13341684Y89773320D01*
X13341684Y89773320D02*
X13299351Y89730986D01*
X13299351Y89730986D02*
X13214684Y89688653D01*
X13214684Y89688653D02*
X13087684Y89688653D01*
X11436684Y88257363D02*
X11902350Y88850030D01*
X11436684Y88850030D02*
X11902350Y88257363D01*
X12156351Y88257363D02*
X12622017Y88850030D01*
X12156351Y88850030D02*
X12622017Y88257363D01*
X13087684Y88257363D02*
X13003018Y88299696D01*
X13003018Y88299696D02*
X12960684Y88342030D01*
X12960684Y88342030D02*
X12918351Y88426696D01*
X12918351Y88426696D02*
X12918351Y88680696D01*
X12918351Y88680696D02*
X12960684Y88765363D01*
X12960684Y88765363D02*
X13003018Y88807696D01*
X13003018Y88807696D02*
X13087684Y88850030D01*
X13087684Y88850030D02*
X13214684Y88850030D01*
X13214684Y88850030D02*
X13299351Y88807696D01*
X13299351Y88807696D02*
X13341684Y88765363D01*
X13341684Y88765363D02*
X13384018Y88680696D01*
X13384018Y88680696D02*
X13384018Y88426696D01*
X13384018Y88426696D02*
X13341684Y88342030D01*
X13341684Y88342030D02*
X13299351Y88299696D01*
X13299351Y88299696D02*
X13214684Y88257363D01*
X13214684Y88257363D02*
X13087684Y88257363D01*
X14908017Y89104030D02*
X14823350Y89146363D01*
X14823350Y89146363D02*
X14696350Y89146363D01*
X14696350Y89146363D02*
X14569350Y89104030D01*
X14569350Y89104030D02*
X14484684Y89019363D01*
X14484684Y89019363D02*
X14442350Y88934696D01*
X14442350Y88934696D02*
X14400017Y88765363D01*
X14400017Y88765363D02*
X14400017Y88638363D01*
X14400017Y88638363D02*
X14442350Y88469030D01*
X14442350Y88469030D02*
X14484684Y88384363D01*
X14484684Y88384363D02*
X14569350Y88299696D01*
X14569350Y88299696D02*
X14696350Y88257363D01*
X14696350Y88257363D02*
X14781017Y88257363D01*
X14781017Y88257363D02*
X14908017Y88299696D01*
X14908017Y88299696D02*
X14950350Y88342030D01*
X14950350Y88342030D02*
X14950350Y88638363D01*
X14950350Y88638363D02*
X14781017Y88638363D01*
X15627684Y88723030D02*
X15754684Y88680696D01*
X15754684Y88680696D02*
X15797017Y88638363D01*
X15797017Y88638363D02*
X15839350Y88553696D01*
X15839350Y88553696D02*
X15839350Y88426696D01*
X15839350Y88426696D02*
X15797017Y88342030D01*
X15797017Y88342030D02*
X15754684Y88299696D01*
X15754684Y88299696D02*
X15670017Y88257363D01*
X15670017Y88257363D02*
X15331350Y88257363D01*
X15331350Y88257363D02*
X15331350Y89146363D01*
X15331350Y89146363D02*
X15627684Y89146363D01*
X15627684Y89146363D02*
X15712350Y89104030D01*
X15712350Y89104030D02*
X15754684Y89061696D01*
X15754684Y89061696D02*
X15797017Y88977030D01*
X15797017Y88977030D02*
X15797017Y88892363D01*
X15797017Y88892363D02*
X15754684Y88807696D01*
X15754684Y88807696D02*
X15712350Y88765363D01*
X15712350Y88765363D02*
X15627684Y88723030D01*
X15627684Y88723030D02*
X15331350Y88723030D01*
X16897683Y88257363D02*
X16897683Y89146363D01*
X17321016Y88257363D02*
X17321016Y89146363D01*
X17321016Y89146363D02*
X17532683Y89146363D01*
X17532683Y89146363D02*
X17659683Y89104030D01*
X17659683Y89104030D02*
X17744350Y89019363D01*
X17744350Y89019363D02*
X17786683Y88934696D01*
X17786683Y88934696D02*
X17829016Y88765363D01*
X17829016Y88765363D02*
X17829016Y88638363D01*
X17829016Y88638363D02*
X17786683Y88469030D01*
X17786683Y88469030D02*
X17744350Y88384363D01*
X17744350Y88384363D02*
X17659683Y88299696D01*
X17659683Y88299696D02*
X17532683Y88257363D01*
X17532683Y88257363D02*
X17321016Y88257363D01*
X19564682Y88723030D02*
X20242016Y88723030D01*
X20242016Y88469030D02*
X19564682Y88469030D01*
X21512016Y89146363D02*
X21596682Y89146363D01*
X21596682Y89146363D02*
X21681349Y89104030D01*
X21681349Y89104030D02*
X21723682Y89061696D01*
X21723682Y89061696D02*
X21766016Y88977030D01*
X21766016Y88977030D02*
X21808349Y88807696D01*
X21808349Y88807696D02*
X21808349Y88596030D01*
X21808349Y88596030D02*
X21766016Y88426696D01*
X21766016Y88426696D02*
X21723682Y88342030D01*
X21723682Y88342030D02*
X21681349Y88299696D01*
X21681349Y88299696D02*
X21596682Y88257363D01*
X21596682Y88257363D02*
X21512016Y88257363D01*
X21512016Y88257363D02*
X21427349Y88299696D01*
X21427349Y88299696D02*
X21385016Y88342030D01*
X21385016Y88342030D02*
X21342682Y88426696D01*
X21342682Y88426696D02*
X21300349Y88596030D01*
X21300349Y88596030D02*
X21300349Y88807696D01*
X21300349Y88807696D02*
X21342682Y88977030D01*
X21342682Y88977030D02*
X21385016Y89061696D01*
X21385016Y89061696D02*
X21427349Y89104030D01*
X21427349Y89104030D02*
X21512016Y89146363D01*
X22104683Y88257363D02*
X22570349Y88850030D01*
X22104683Y88850030D02*
X22570349Y88257363D01*
X23078350Y89146363D02*
X23163016Y89146363D01*
X23163016Y89146363D02*
X23247683Y89104030D01*
X23247683Y89104030D02*
X23290016Y89061696D01*
X23290016Y89061696D02*
X23332350Y88977030D01*
X23332350Y88977030D02*
X23374683Y88807696D01*
X23374683Y88807696D02*
X23374683Y88596030D01*
X23374683Y88596030D02*
X23332350Y88426696D01*
X23332350Y88426696D02*
X23290016Y88342030D01*
X23290016Y88342030D02*
X23247683Y88299696D01*
X23247683Y88299696D02*
X23163016Y88257363D01*
X23163016Y88257363D02*
X23078350Y88257363D01*
X23078350Y88257363D02*
X22993683Y88299696D01*
X22993683Y88299696D02*
X22951350Y88342030D01*
X22951350Y88342030D02*
X22909016Y88426696D01*
X22909016Y88426696D02*
X22866683Y88596030D01*
X22866683Y88596030D02*
X22866683Y88807696D01*
X22866683Y88807696D02*
X22909016Y88977030D01*
X22909016Y88977030D02*
X22951350Y89061696D01*
X22951350Y89061696D02*
X22993683Y89104030D01*
X22993683Y89104030D02*
X23078350Y89146363D01*
X24179017Y89146363D02*
X23755683Y89146363D01*
X23755683Y89146363D02*
X23713350Y88723030D01*
X23713350Y88723030D02*
X23755683Y88765363D01*
X23755683Y88765363D02*
X23840350Y88807696D01*
X23840350Y88807696D02*
X24052017Y88807696D01*
X24052017Y88807696D02*
X24136683Y88765363D01*
X24136683Y88765363D02*
X24179017Y88723030D01*
X24179017Y88723030D02*
X24221350Y88638363D01*
X24221350Y88638363D02*
X24221350Y88426696D01*
X24221350Y88426696D02*
X24179017Y88342030D01*
X24179017Y88342030D02*
X24136683Y88299696D01*
X24136683Y88299696D02*
X24052017Y88257363D01*
X24052017Y88257363D02*
X23840350Y88257363D01*
X23840350Y88257363D02*
X23755683Y88299696D01*
X23755683Y88299696D02*
X23713350Y88342030D01*
X3110035Y80623834D02*
X3152369Y80581501D01*
X3152369Y80581501D02*
X3194702Y80454501D01*
X3194702Y80454501D02*
X3194702Y80369834D01*
X3194702Y80369834D02*
X3152369Y80242834D01*
X3152369Y80242834D02*
X3067702Y80158167D01*
X3067702Y80158167D02*
X2983035Y80115834D01*
X2983035Y80115834D02*
X2813702Y80073501D01*
X2813702Y80073501D02*
X2686702Y80073501D01*
X2686702Y80073501D02*
X2517369Y80115834D01*
X2517369Y80115834D02*
X2432702Y80158167D01*
X2432702Y80158167D02*
X2348035Y80242834D01*
X2348035Y80242834D02*
X2305702Y80369834D01*
X2305702Y80369834D02*
X2305702Y80454501D01*
X2305702Y80454501D02*
X2348035Y80581501D01*
X2348035Y80581501D02*
X2390369Y80623834D01*
X2305702Y81174167D02*
X2305702Y81343501D01*
X2305702Y81343501D02*
X2348035Y81428167D01*
X2348035Y81428167D02*
X2432702Y81512834D01*
X2432702Y81512834D02*
X2602035Y81555167D01*
X2602035Y81555167D02*
X2898369Y81555167D01*
X2898369Y81555167D02*
X3067702Y81512834D01*
X3067702Y81512834D02*
X3152369Y81428167D01*
X3152369Y81428167D02*
X3194702Y81343501D01*
X3194702Y81343501D02*
X3194702Y81174167D01*
X3194702Y81174167D02*
X3152369Y81089501D01*
X3152369Y81089501D02*
X3067702Y81004834D01*
X3067702Y81004834D02*
X2898369Y80962501D01*
X2898369Y80962501D02*
X2602035Y80962501D01*
X2602035Y80962501D02*
X2432702Y81004834D01*
X2432702Y81004834D02*
X2348035Y81089501D01*
X2348035Y81089501D02*
X2305702Y81174167D01*
X3194702Y81936167D02*
X2305702Y81936167D01*
X2305702Y81936167D02*
X3194702Y82444167D01*
X3194702Y82444167D02*
X2305702Y82444167D01*
X3194702Y83333167D02*
X3194702Y82825167D01*
X3194702Y83079167D02*
X2305702Y83079167D01*
X2305702Y83079167D02*
X2432702Y82994500D01*
X2432702Y82994500D02*
X2517369Y82909833D01*
X2517369Y82909833D02*
X2559702Y82825167D01*
X2305702Y83883500D02*
X2305702Y83968167D01*
X2305702Y83968167D02*
X2348035Y84052834D01*
X2348035Y84052834D02*
X2390369Y84095167D01*
X2390369Y84095167D02*
X2475035Y84137500D01*
X2475035Y84137500D02*
X2644369Y84179834D01*
X2644369Y84179834D02*
X2856035Y84179834D01*
X2856035Y84179834D02*
X3025369Y84137500D01*
X3025369Y84137500D02*
X3110035Y84095167D01*
X3110035Y84095167D02*
X3152369Y84052834D01*
X3152369Y84052834D02*
X3194702Y83968167D01*
X3194702Y83968167D02*
X3194702Y83883500D01*
X3194702Y83883500D02*
X3152369Y83798834D01*
X3152369Y83798834D02*
X3110035Y83756500D01*
X3110035Y83756500D02*
X3025369Y83714167D01*
X3025369Y83714167D02*
X2856035Y83671834D01*
X2856035Y83671834D02*
X2644369Y83671834D01*
X2644369Y83671834D02*
X2475035Y83714167D01*
X2475035Y83714167D02*
X2390369Y83756500D01*
X2390369Y83756500D02*
X2348035Y83798834D01*
X2348035Y83798834D02*
X2305702Y83883500D01*
X2390369Y84518501D02*
X2348035Y84560834D01*
X2348035Y84560834D02*
X2305702Y84645501D01*
X2305702Y84645501D02*
X2305702Y84857167D01*
X2305702Y84857167D02*
X2348035Y84941834D01*
X2348035Y84941834D02*
X2390369Y84984167D01*
X2390369Y84984167D02*
X2475035Y85026501D01*
X2475035Y85026501D02*
X2559702Y85026501D01*
X2559702Y85026501D02*
X2686702Y84984167D01*
X2686702Y84984167D02*
X3194702Y84476167D01*
X3194702Y84476167D02*
X3194702Y85026501D01*
X11593999Y81899298D02*
X11593999Y81179631D01*
X11593999Y81179631D02*
X11636333Y81094965D01*
X11636333Y81094965D02*
X11678666Y81052631D01*
X11678666Y81052631D02*
X11763333Y81010298D01*
X11763333Y81010298D02*
X11932666Y81010298D01*
X11932666Y81010298D02*
X12017333Y81052631D01*
X12017333Y81052631D02*
X12059666Y81094965D01*
X12059666Y81094965D02*
X12101999Y81179631D01*
X12101999Y81179631D02*
X12101999Y81899298D01*
X12990999Y81010298D02*
X12482999Y81010298D01*
X12736999Y81010298D02*
X12736999Y81899298D01*
X12736999Y81899298D02*
X12652332Y81772298D01*
X12652332Y81772298D02*
X12567666Y81687631D01*
X12567666Y81687631D02*
X12482999Y81645298D01*
X13541333Y81899298D02*
X13625999Y81899298D01*
X13625999Y81899298D02*
X13710666Y81856965D01*
X13710666Y81856965D02*
X13752999Y81814631D01*
X13752999Y81814631D02*
X13795333Y81729965D01*
X13795333Y81729965D02*
X13837666Y81560631D01*
X13837666Y81560631D02*
X13837666Y81348965D01*
X13837666Y81348965D02*
X13795333Y81179631D01*
X13795333Y81179631D02*
X13752999Y81094965D01*
X13752999Y81094965D02*
X13710666Y81052631D01*
X13710666Y81052631D02*
X13625999Y81010298D01*
X13625999Y81010298D02*
X13541333Y81010298D01*
X13541333Y81010298D02*
X13456666Y81052631D01*
X13456666Y81052631D02*
X13414333Y81094965D01*
X13414333Y81094965D02*
X13371999Y81179631D01*
X13371999Y81179631D02*
X13329666Y81348965D01*
X13329666Y81348965D02*
X13329666Y81560631D01*
X13329666Y81560631D02*
X13371999Y81729965D01*
X13371999Y81729965D02*
X13414333Y81814631D01*
X13414333Y81814631D02*
X13456666Y81856965D01*
X13456666Y81856965D02*
X13541333Y81899298D01*
X14388000Y81899298D02*
X14472666Y81899298D01*
X14472666Y81899298D02*
X14557333Y81856965D01*
X14557333Y81856965D02*
X14599666Y81814631D01*
X14599666Y81814631D02*
X14642000Y81729965D01*
X14642000Y81729965D02*
X14684333Y81560631D01*
X14684333Y81560631D02*
X14684333Y81348965D01*
X14684333Y81348965D02*
X14642000Y81179631D01*
X14642000Y81179631D02*
X14599666Y81094965D01*
X14599666Y81094965D02*
X14557333Y81052631D01*
X14557333Y81052631D02*
X14472666Y81010298D01*
X14472666Y81010298D02*
X14388000Y81010298D01*
X14388000Y81010298D02*
X14303333Y81052631D01*
X14303333Y81052631D02*
X14261000Y81094965D01*
X14261000Y81094965D02*
X14218666Y81179631D01*
X14218666Y81179631D02*
X14176333Y81348965D01*
X14176333Y81348965D02*
X14176333Y81560631D01*
X14176333Y81560631D02*
X14218666Y81729965D01*
X14218666Y81729965D02*
X14261000Y81814631D01*
X14261000Y81814631D02*
X14303333Y81856965D01*
X14303333Y81856965D02*
X14388000Y81899298D01*
X9968035Y83163834D02*
X10010369Y83121501D01*
X10010369Y83121501D02*
X10052702Y82994501D01*
X10052702Y82994501D02*
X10052702Y82909834D01*
X10052702Y82909834D02*
X10010369Y82782834D01*
X10010369Y82782834D02*
X9925702Y82698167D01*
X9925702Y82698167D02*
X9841035Y82655834D01*
X9841035Y82655834D02*
X9671702Y82613501D01*
X9671702Y82613501D02*
X9544702Y82613501D01*
X9544702Y82613501D02*
X9375369Y82655834D01*
X9375369Y82655834D02*
X9290702Y82698167D01*
X9290702Y82698167D02*
X9206035Y82782834D01*
X9206035Y82782834D02*
X9163702Y82909834D01*
X9163702Y82909834D02*
X9163702Y82994501D01*
X9163702Y82994501D02*
X9206035Y83121501D01*
X9206035Y83121501D02*
X9248369Y83163834D01*
X9163702Y83714167D02*
X9163702Y83883501D01*
X9163702Y83883501D02*
X9206035Y83968167D01*
X9206035Y83968167D02*
X9290702Y84052834D01*
X9290702Y84052834D02*
X9460035Y84095167D01*
X9460035Y84095167D02*
X9756369Y84095167D01*
X9756369Y84095167D02*
X9925702Y84052834D01*
X9925702Y84052834D02*
X10010369Y83968167D01*
X10010369Y83968167D02*
X10052702Y83883501D01*
X10052702Y83883501D02*
X10052702Y83714167D01*
X10052702Y83714167D02*
X10010369Y83629501D01*
X10010369Y83629501D02*
X9925702Y83544834D01*
X9925702Y83544834D02*
X9756369Y83502501D01*
X9756369Y83502501D02*
X9460035Y83502501D01*
X9460035Y83502501D02*
X9290702Y83544834D01*
X9290702Y83544834D02*
X9206035Y83629501D01*
X9206035Y83629501D02*
X9163702Y83714167D01*
X10052702Y84476167D02*
X9163702Y84476167D01*
X9163702Y84476167D02*
X10052702Y84984167D01*
X10052702Y84984167D02*
X9163702Y84984167D01*
X10052702Y85873167D02*
X10052702Y85365167D01*
X10052702Y85619167D02*
X9163702Y85619167D01*
X9163702Y85619167D02*
X9290702Y85534500D01*
X9290702Y85534500D02*
X9375369Y85449833D01*
X9375369Y85449833D02*
X9417702Y85365167D01*
X9163702Y86423500D02*
X9163702Y86508167D01*
X9163702Y86508167D02*
X9206035Y86592834D01*
X9206035Y86592834D02*
X9248369Y86635167D01*
X9248369Y86635167D02*
X9333035Y86677500D01*
X9333035Y86677500D02*
X9502369Y86719834D01*
X9502369Y86719834D02*
X9714035Y86719834D01*
X9714035Y86719834D02*
X9883369Y86677500D01*
X9883369Y86677500D02*
X9968035Y86635167D01*
X9968035Y86635167D02*
X10010369Y86592834D01*
X10010369Y86592834D02*
X10052702Y86508167D01*
X10052702Y86508167D02*
X10052702Y86423500D01*
X10052702Y86423500D02*
X10010369Y86338834D01*
X10010369Y86338834D02*
X9968035Y86296500D01*
X9968035Y86296500D02*
X9883369Y86254167D01*
X9883369Y86254167D02*
X9714035Y86211834D01*
X9714035Y86211834D02*
X9502369Y86211834D01*
X9502369Y86211834D02*
X9333035Y86254167D01*
X9333035Y86254167D02*
X9248369Y86296500D01*
X9248369Y86296500D02*
X9206035Y86338834D01*
X9206035Y86338834D02*
X9163702Y86423500D01*
X10052702Y87566501D02*
X10052702Y87058501D01*
X10052702Y87312501D02*
X9163702Y87312501D01*
X9163702Y87312501D02*
X9290702Y87227834D01*
X9290702Y87227834D02*
X9375369Y87143167D01*
X9375369Y87143167D02*
X9417702Y87058501D01*
X20636035Y81301167D02*
X20678369Y81258834D01*
X20678369Y81258834D02*
X20720702Y81131834D01*
X20720702Y81131834D02*
X20720702Y81047167D01*
X20720702Y81047167D02*
X20678369Y80920167D01*
X20678369Y80920167D02*
X20593702Y80835500D01*
X20593702Y80835500D02*
X20509035Y80793167D01*
X20509035Y80793167D02*
X20339702Y80750834D01*
X20339702Y80750834D02*
X20212702Y80750834D01*
X20212702Y80750834D02*
X20043369Y80793167D01*
X20043369Y80793167D02*
X19958702Y80835500D01*
X19958702Y80835500D02*
X19874035Y80920167D01*
X19874035Y80920167D02*
X19831702Y81047167D01*
X19831702Y81047167D02*
X19831702Y81131834D01*
X19831702Y81131834D02*
X19874035Y81258834D01*
X19874035Y81258834D02*
X19916369Y81301167D01*
X20720702Y82147834D02*
X20720702Y81639834D01*
X20720702Y81893834D02*
X19831702Y81893834D01*
X19831702Y81893834D02*
X19958702Y81809167D01*
X19958702Y81809167D02*
X20043369Y81724500D01*
X20043369Y81724500D02*
X20085702Y81639834D01*
X19831702Y82698167D02*
X19831702Y82782834D01*
X19831702Y82782834D02*
X19874035Y82867501D01*
X19874035Y82867501D02*
X19916369Y82909834D01*
X19916369Y82909834D02*
X20001035Y82952167D01*
X20001035Y82952167D02*
X20170369Y82994501D01*
X20170369Y82994501D02*
X20382035Y82994501D01*
X20382035Y82994501D02*
X20551369Y82952167D01*
X20551369Y82952167D02*
X20636035Y82909834D01*
X20636035Y82909834D02*
X20678369Y82867501D01*
X20678369Y82867501D02*
X20720702Y82782834D01*
X20720702Y82782834D02*
X20720702Y82698167D01*
X20720702Y82698167D02*
X20678369Y82613501D01*
X20678369Y82613501D02*
X20636035Y82571167D01*
X20636035Y82571167D02*
X20551369Y82528834D01*
X20551369Y82528834D02*
X20382035Y82486501D01*
X20382035Y82486501D02*
X20170369Y82486501D01*
X20170369Y82486501D02*
X20001035Y82528834D01*
X20001035Y82528834D02*
X19916369Y82571167D01*
X19916369Y82571167D02*
X19874035Y82613501D01*
X19874035Y82613501D02*
X19831702Y82698167D01*
X20720702Y83841168D02*
X20720702Y83333168D01*
X20720702Y83587168D02*
X19831702Y83587168D01*
X19831702Y83587168D02*
X19958702Y83502501D01*
X19958702Y83502501D02*
X20043369Y83417834D01*
X20043369Y83417834D02*
X20085702Y83333168D01*
X12721166Y72243298D02*
X12424833Y72666631D01*
X12213166Y72243298D02*
X12213166Y73132298D01*
X12213166Y73132298D02*
X12551833Y73132298D01*
X12551833Y73132298D02*
X12636500Y73089965D01*
X12636500Y73089965D02*
X12678833Y73047631D01*
X12678833Y73047631D02*
X12721166Y72962965D01*
X12721166Y72962965D02*
X12721166Y72835965D01*
X12721166Y72835965D02*
X12678833Y72751298D01*
X12678833Y72751298D02*
X12636500Y72708965D01*
X12636500Y72708965D02*
X12551833Y72666631D01*
X12551833Y72666631D02*
X12213166Y72666631D01*
X13567833Y72243298D02*
X13059833Y72243298D01*
X13313833Y72243298D02*
X13313833Y73132298D01*
X13313833Y73132298D02*
X13229166Y73005298D01*
X13229166Y73005298D02*
X13144500Y72920631D01*
X13144500Y72920631D02*
X13059833Y72878298D01*
X14118167Y73132298D02*
X14202833Y73132298D01*
X14202833Y73132298D02*
X14287500Y73089965D01*
X14287500Y73089965D02*
X14329833Y73047631D01*
X14329833Y73047631D02*
X14372167Y72962965D01*
X14372167Y72962965D02*
X14414500Y72793631D01*
X14414500Y72793631D02*
X14414500Y72581965D01*
X14414500Y72581965D02*
X14372167Y72412631D01*
X14372167Y72412631D02*
X14329833Y72327965D01*
X14329833Y72327965D02*
X14287500Y72285631D01*
X14287500Y72285631D02*
X14202833Y72243298D01*
X14202833Y72243298D02*
X14118167Y72243298D01*
X14118167Y72243298D02*
X14033500Y72285631D01*
X14033500Y72285631D02*
X13991167Y72327965D01*
X13991167Y72327965D02*
X13948833Y72412631D01*
X13948833Y72412631D02*
X13906500Y72581965D01*
X13906500Y72581965D02*
X13906500Y72793631D01*
X13906500Y72793631D02*
X13948833Y72962965D01*
X13948833Y72962965D02*
X13991167Y73047631D01*
X13991167Y73047631D02*
X14033500Y73089965D01*
X14033500Y73089965D02*
X14118167Y73132298D01*
X15261167Y72243298D02*
X14753167Y72243298D01*
X15007167Y72243298D02*
X15007167Y73132298D01*
X15007167Y73132298D02*
X14922500Y73005298D01*
X14922500Y73005298D02*
X14837834Y72920631D01*
X14837834Y72920631D02*
X14753167Y72878298D01*
X34141833Y76137965D02*
X34099500Y76095631D01*
X34099500Y76095631D02*
X33972500Y76053298D01*
X33972500Y76053298D02*
X33887833Y76053298D01*
X33887833Y76053298D02*
X33760833Y76095631D01*
X33760833Y76095631D02*
X33676167Y76180298D01*
X33676167Y76180298D02*
X33633833Y76264965D01*
X33633833Y76264965D02*
X33591500Y76434298D01*
X33591500Y76434298D02*
X33591500Y76561298D01*
X33591500Y76561298D02*
X33633833Y76730631D01*
X33633833Y76730631D02*
X33676167Y76815298D01*
X33676167Y76815298D02*
X33760833Y76899965D01*
X33760833Y76899965D02*
X33887833Y76942298D01*
X33887833Y76942298D02*
X33972500Y76942298D01*
X33972500Y76942298D02*
X34099500Y76899965D01*
X34099500Y76899965D02*
X34141833Y76857631D01*
X34692167Y76942298D02*
X34861500Y76942298D01*
X34861500Y76942298D02*
X34946167Y76899965D01*
X34946167Y76899965D02*
X35030833Y76815298D01*
X35030833Y76815298D02*
X35073167Y76645965D01*
X35073167Y76645965D02*
X35073167Y76349631D01*
X35073167Y76349631D02*
X35030833Y76180298D01*
X35030833Y76180298D02*
X34946167Y76095631D01*
X34946167Y76095631D02*
X34861500Y76053298D01*
X34861500Y76053298D02*
X34692167Y76053298D01*
X34692167Y76053298D02*
X34607500Y76095631D01*
X34607500Y76095631D02*
X34522833Y76180298D01*
X34522833Y76180298D02*
X34480500Y76349631D01*
X34480500Y76349631D02*
X34480500Y76645965D01*
X34480500Y76645965D02*
X34522833Y76815298D01*
X34522833Y76815298D02*
X34607500Y76899965D01*
X34607500Y76899965D02*
X34692167Y76942298D01*
X35454166Y76053298D02*
X35454166Y76942298D01*
X35454166Y76942298D02*
X35962166Y76053298D01*
X35962166Y76053298D02*
X35962166Y76942298D01*
X36851166Y76053298D02*
X36343166Y76053298D01*
X36597166Y76053298D02*
X36597166Y76942298D01*
X36597166Y76942298D02*
X36512499Y76815298D01*
X36512499Y76815298D02*
X36427833Y76730631D01*
X36427833Y76730631D02*
X36343166Y76688298D01*
X37401500Y76942298D02*
X37486166Y76942298D01*
X37486166Y76942298D02*
X37570833Y76899965D01*
X37570833Y76899965D02*
X37613166Y76857631D01*
X37613166Y76857631D02*
X37655500Y76772965D01*
X37655500Y76772965D02*
X37697833Y76603631D01*
X37697833Y76603631D02*
X37697833Y76391965D01*
X37697833Y76391965D02*
X37655500Y76222631D01*
X37655500Y76222631D02*
X37613166Y76137965D01*
X37613166Y76137965D02*
X37570833Y76095631D01*
X37570833Y76095631D02*
X37486166Y76053298D01*
X37486166Y76053298D02*
X37401500Y76053298D01*
X37401500Y76053298D02*
X37316833Y76095631D01*
X37316833Y76095631D02*
X37274500Y76137965D01*
X37274500Y76137965D02*
X37232166Y76222631D01*
X37232166Y76222631D02*
X37189833Y76391965D01*
X37189833Y76391965D02*
X37189833Y76603631D01*
X37189833Y76603631D02*
X37232166Y76772965D01*
X37232166Y76772965D02*
X37274500Y76857631D01*
X37274500Y76857631D02*
X37316833Y76899965D01*
X37316833Y76899965D02*
X37401500Y76942298D01*
X37994167Y76942298D02*
X38544500Y76942298D01*
X38544500Y76942298D02*
X38248167Y76603631D01*
X38248167Y76603631D02*
X38375167Y76603631D01*
X38375167Y76603631D02*
X38459833Y76561298D01*
X38459833Y76561298D02*
X38502167Y76518965D01*
X38502167Y76518965D02*
X38544500Y76434298D01*
X38544500Y76434298D02*
X38544500Y76222631D01*
X38544500Y76222631D02*
X38502167Y76137965D01*
X38502167Y76137965D02*
X38459833Y76095631D01*
X38459833Y76095631D02*
X38375167Y76053298D01*
X38375167Y76053298D02*
X38121167Y76053298D01*
X38121167Y76053298D02*
X38036500Y76095631D01*
X38036500Y76095631D02*
X37994167Y76137965D01*
D12*
%TO.C,CON102*%
X3810000Y85090000D02*
X3810000Y3810000D01*
X3810000Y82550000D02*
X6350000Y82550000D01*
X3810000Y3810000D02*
X6350000Y3810000D01*
X6350000Y85090000D02*
X3810000Y85090000D01*
X6350000Y3810000D02*
X6350000Y85090000D01*
X21590000Y85090000D02*
X21590000Y3810000D01*
X21590000Y82550000D02*
X24130000Y82550000D01*
X21590000Y3810000D02*
X24130000Y3810000D01*
X24130000Y85090000D02*
X21590000Y85090000D01*
X24130000Y3810000D02*
X24130000Y85090000D01*
%TO.C,U100*%
X11370000Y80541000D02*
X11370000Y73891000D01*
X11370000Y73891000D02*
X16570000Y73891000D01*
X13570000Y80541000D02*
X11370000Y80541000D01*
X16570000Y80541000D02*
X14370000Y80541000D01*
X16570000Y73891000D02*
X16570000Y80541000D01*
X13570000Y80541000D02*
G75*
G03*
X14370000Y80541000I400000J0D01*
G01*
%TO.C,CON101*%
X10668000Y82550000D02*
X18288000Y82550000D01*
X10668000Y82550000D02*
X10922000Y82804000D01*
X11303000Y82550000D02*
X10668000Y83185000D01*
X18288000Y82550000D02*
X18288000Y87630000D01*
X10668000Y86995000D02*
X11303000Y87630000D01*
X10668000Y87630000D02*
X10668000Y82550000D01*
X10668000Y87630000D02*
X10922000Y87376000D01*
X18288000Y87630000D02*
X10668000Y87630000D01*
%TO.C,logo101*%
D13*
X8075476Y91224816D02*
X8076680Y91200979D01*
X8077771Y91163246D01*
X8078725Y91113280D01*
X8079516Y91052743D01*
X8080116Y90983299D01*
X8080501Y90906609D01*
X8080644Y90824335D01*
X8080644Y90406780D01*
X7779288Y90406780D01*
X7709189Y90406860D01*
X7644865Y90407088D01*
X7588265Y90407444D01*
X7541337Y90407910D01*
X7506029Y90408468D01*
X7484291Y90409097D01*
X7477932Y90409692D01*
X7484291Y90415832D01*
X7501456Y90430102D01*
X7526563Y90450163D01*
X7547703Y90466686D01*
X7652247Y90556853D01*
X7750199Y90659336D01*
X7839537Y90771312D01*
X7918238Y90889959D01*
X7984277Y91012453D01*
X8035631Y91135972D01*
X8043048Y91157757D01*
X8054507Y91190648D01*
X8064667Y91216276D01*
X8072013Y91230982D01*
X8074187Y91233096D01*
X8075476Y91224816D01*
G36*
X8075476Y91224816D02*
G01*
X8076680Y91200979D01*
X8077771Y91163246D01*
X8078725Y91113280D01*
X8079516Y91052743D01*
X8080116Y90983299D01*
X8080501Y90906609D01*
X8080644Y90824335D01*
X8080644Y90406780D01*
X7779288Y90406780D01*
X7709189Y90406860D01*
X7644865Y90407088D01*
X7588265Y90407444D01*
X7541337Y90407910D01*
X7506029Y90408468D01*
X7484291Y90409097D01*
X7477932Y90409692D01*
X7484291Y90415832D01*
X7501456Y90430102D01*
X7526563Y90450163D01*
X7547703Y90466686D01*
X7652247Y90556853D01*
X7750199Y90659336D01*
X7839537Y90771312D01*
X7918238Y90889959D01*
X7984277Y91012453D01*
X8035631Y91135972D01*
X8043048Y91157757D01*
X8054507Y91190648D01*
X8064667Y91216276D01*
X8072013Y91230982D01*
X8074187Y91233096D01*
X8075476Y91224816D01*
G37*
X2331204Y93512919D02*
X4141492Y93510746D01*
X4143735Y93134051D01*
X4144093Y93055381D01*
X4144212Y92982280D01*
X4144105Y92916491D01*
X4143785Y92859756D01*
X4143264Y92813819D01*
X4142555Y92780421D01*
X4141672Y92761307D01*
X4140972Y92757356D01*
X4132784Y92762732D01*
X4114978Y92777151D01*
X4090657Y92798050D01*
X4076420Y92810669D01*
X3965416Y92899996D01*
X3842397Y92980899D01*
X3711253Y93051299D01*
X3575875Y93109115D01*
X3440151Y93152268D01*
X3435177Y93153555D01*
X3327167Y93176202D01*
X3210950Y93191532D01*
X3091779Y93199272D01*
X2974911Y93199153D01*
X2865599Y93190903D01*
X2824136Y93185099D01*
X2663430Y93150771D01*
X2509772Y93101370D01*
X2363982Y93037643D01*
X2226884Y92960333D01*
X2099299Y92870187D01*
X1982049Y92767950D01*
X1875956Y92654368D01*
X1781843Y92530185D01*
X1700530Y92396147D01*
X1632841Y92253000D01*
X1579597Y92101489D01*
X1563305Y92041804D01*
X1545614Y91965050D01*
X1533035Y91893481D01*
X1525082Y91822094D01*
X1521266Y91745889D01*
X1521098Y91659864D01*
X1522023Y91618737D01*
X1529722Y91488240D01*
X1545794Y91368931D01*
X1571341Y91256389D01*
X1607466Y91146191D01*
X1655271Y91033915D01*
X1680957Y90981400D01*
X1757575Y90845717D01*
X1844066Y90722530D01*
X1942424Y90609405D01*
X2054641Y90503908D01*
X2107903Y90460084D01*
X2175196Y90406780D01*
X520916Y90406780D01*
X520916Y93515091D01*
X2331204Y93512919D01*
G36*
X2331204Y93512919D02*
G01*
X4141492Y93510746D01*
X4143735Y93134051D01*
X4144093Y93055381D01*
X4144212Y92982280D01*
X4144105Y92916491D01*
X4143785Y92859756D01*
X4143264Y92813819D01*
X4142555Y92780421D01*
X4141672Y92761307D01*
X4140972Y92757356D01*
X4132784Y92762732D01*
X4114978Y92777151D01*
X4090657Y92798050D01*
X4076420Y92810669D01*
X3965416Y92899996D01*
X3842397Y92980899D01*
X3711253Y93051299D01*
X3575875Y93109115D01*
X3440151Y93152268D01*
X3435177Y93153555D01*
X3327167Y93176202D01*
X3210950Y93191532D01*
X3091779Y93199272D01*
X2974911Y93199153D01*
X2865599Y93190903D01*
X2824136Y93185099D01*
X2663430Y93150771D01*
X2509772Y93101370D01*
X2363982Y93037643D01*
X2226884Y92960333D01*
X2099299Y92870187D01*
X1982049Y92767950D01*
X1875956Y92654368D01*
X1781843Y92530185D01*
X1700530Y92396147D01*
X1632841Y92253000D01*
X1579597Y92101489D01*
X1563305Y92041804D01*
X1545614Y91965050D01*
X1533035Y91893481D01*
X1525082Y91822094D01*
X1521266Y91745889D01*
X1521098Y91659864D01*
X1522023Y91618737D01*
X1529722Y91488240D01*
X1545794Y91368931D01*
X1571341Y91256389D01*
X1607466Y91146191D01*
X1655271Y91033915D01*
X1680957Y90981400D01*
X1757575Y90845717D01*
X1844066Y90722530D01*
X1942424Y90609405D01*
X2054641Y90503908D01*
X2107903Y90460084D01*
X2175196Y90406780D01*
X520916Y90406780D01*
X520916Y93515091D01*
X2331204Y93512919D01*
G37*
X8080644Y92809017D02*
X8080590Y92700420D01*
X8080432Y92596923D01*
X8080179Y92499799D01*
X8079840Y92410320D01*
X8079421Y92329760D01*
X8078933Y92259391D01*
X8078382Y92200488D01*
X8077777Y92154321D01*
X8077127Y92122166D01*
X8076440Y92105294D01*
X8076069Y92102983D01*
X8069478Y92109684D01*
X8067710Y92113746D01*
X8047331Y92171164D01*
X8030993Y92215768D01*
X8017328Y92251094D01*
X8004967Y92280677D01*
X7992541Y92308051D01*
X7992284Y92308597D01*
X7918053Y92447959D01*
X7831126Y92578689D01*
X7733096Y92698687D01*
X7625559Y92805854D01*
X7594170Y92833100D01*
X7464230Y92932204D01*
X7328591Y93015462D01*
X7186441Y93083205D01*
X7036971Y93135765D01*
X6879371Y93173474D01*
X6712833Y93196665D01*
X6706262Y93197270D01*
X6563841Y93201965D01*
X6417867Y93191272D01*
X6270947Y93165880D01*
X6125690Y93126481D01*
X5984705Y93073765D01*
X5850600Y93008423D01*
X5741418Y92941749D01*
X5702032Y92914022D01*
X5659373Y92882220D01*
X5617335Y92849413D01*
X5579810Y92818674D01*
X5550692Y92793076D01*
X5540644Y92783311D01*
X5532471Y92774791D01*
X5525703Y92768488D01*
X5520207Y92765753D01*
X5515852Y92767936D01*
X5512506Y92776389D01*
X5510035Y92792463D01*
X5508308Y92817508D01*
X5507193Y92852874D01*
X5506557Y92899915D01*
X5506268Y92959979D01*
X5506195Y93034417D01*
X5506203Y93124582D01*
X5506204Y93135149D01*
X5506204Y93515051D01*
X8080644Y93515051D01*
X8080644Y92809017D01*
G36*
X8080644Y92809017D02*
G01*
X8080590Y92700420D01*
X8080432Y92596923D01*
X8080179Y92499799D01*
X8079840Y92410320D01*
X8079421Y92329760D01*
X8078933Y92259391D01*
X8078382Y92200488D01*
X8077777Y92154321D01*
X8077127Y92122166D01*
X8076440Y92105294D01*
X8076069Y92102983D01*
X8069478Y92109684D01*
X8067710Y92113746D01*
X8047331Y92171164D01*
X8030993Y92215768D01*
X8017328Y92251094D01*
X8004967Y92280677D01*
X7992541Y92308051D01*
X7992284Y92308597D01*
X7918053Y92447959D01*
X7831126Y92578689D01*
X7733096Y92698687D01*
X7625559Y92805854D01*
X7594170Y92833100D01*
X7464230Y92932204D01*
X7328591Y93015462D01*
X7186441Y93083205D01*
X7036971Y93135765D01*
X6879371Y93173474D01*
X6712833Y93196665D01*
X6706262Y93197270D01*
X6563841Y93201965D01*
X6417867Y93191272D01*
X6270947Y93165880D01*
X6125690Y93126481D01*
X5984705Y93073765D01*
X5850600Y93008423D01*
X5741418Y92941749D01*
X5702032Y92914022D01*
X5659373Y92882220D01*
X5617335Y92849413D01*
X5579810Y92818674D01*
X5550692Y92793076D01*
X5540644Y92783311D01*
X5532471Y92774791D01*
X5525703Y92768488D01*
X5520207Y92765753D01*
X5515852Y92767936D01*
X5512506Y92776389D01*
X5510035Y92792463D01*
X5508308Y92817508D01*
X5507193Y92852874D01*
X5506557Y92899915D01*
X5506268Y92959979D01*
X5506195Y93034417D01*
X5506203Y93124582D01*
X5506204Y93135149D01*
X5506204Y93515051D01*
X8080644Y93515051D01*
X8080644Y92809017D01*
G37*
X3170605Y92751944D02*
X3297795Y92730443D01*
X3420346Y92694492D01*
X3537168Y92644782D01*
X3647169Y92582005D01*
X3749260Y92506852D01*
X3842348Y92420016D01*
X3925344Y92322189D01*
X3997155Y92214062D01*
X4056692Y92096327D01*
X4102864Y91969676D01*
X4129545Y91861898D01*
X4135638Y91817470D01*
X4139434Y91760765D01*
X4140985Y91696566D01*
X4140343Y91629657D01*
X4137561Y91564820D01*
X4132691Y91506837D01*
X4125786Y91460492D01*
X4125102Y91457220D01*
X4087223Y91321340D01*
X4033653Y91191725D01*
X3965065Y91069963D01*
X3953570Y91052543D01*
X3918339Y91005713D01*
X3872836Y90953336D01*
X3821053Y90899391D01*
X3766983Y90847861D01*
X3714617Y90802726D01*
X3668734Y90768492D01*
X3551489Y90700088D01*
X3427546Y90646516D01*
X3298764Y90608195D01*
X3167001Y90585545D01*
X3034114Y90578984D01*
X2901962Y90588933D01*
X2884407Y90591543D01*
X2790158Y90610283D01*
X2701793Y90636636D01*
X2612189Y90672880D01*
X2574441Y90690639D01*
X2456938Y90756891D01*
X2351056Y90834805D01*
X2257120Y90923099D01*
X2175454Y91020490D01*
X2106385Y91125693D01*
X2050237Y91237426D01*
X2007335Y91354406D01*
X1978005Y91475348D01*
X1962571Y91598970D01*
X1961358Y91723989D01*
X1974693Y91849121D01*
X2002898Y91973082D01*
X2046301Y92094590D01*
X2105226Y92212362D01*
X2165410Y92305322D01*
X2246474Y92404049D01*
X2340029Y92493643D01*
X2443653Y92572438D01*
X2554925Y92638769D01*
X2671425Y92690970D01*
X2772111Y92722822D01*
X2906672Y92748825D01*
X3039867Y92758302D01*
X3170605Y92751944D01*
G36*
X3170605Y92751944D02*
G01*
X3297795Y92730443D01*
X3420346Y92694492D01*
X3537168Y92644782D01*
X3647169Y92582005D01*
X3749260Y92506852D01*
X3842348Y92420016D01*
X3925344Y92322189D01*
X3997155Y92214062D01*
X4056692Y92096327D01*
X4102864Y91969676D01*
X4129545Y91861898D01*
X4135638Y91817470D01*
X4139434Y91760765D01*
X4140985Y91696566D01*
X4140343Y91629657D01*
X4137561Y91564820D01*
X4132691Y91506837D01*
X4125786Y91460492D01*
X4125102Y91457220D01*
X4087223Y91321340D01*
X4033653Y91191725D01*
X3965065Y91069963D01*
X3953570Y91052543D01*
X3918339Y91005713D01*
X3872836Y90953336D01*
X3821053Y90899391D01*
X3766983Y90847861D01*
X3714617Y90802726D01*
X3668734Y90768492D01*
X3551489Y90700088D01*
X3427546Y90646516D01*
X3298764Y90608195D01*
X3167001Y90585545D01*
X3034114Y90578984D01*
X2901962Y90588933D01*
X2884407Y90591543D01*
X2790158Y90610283D01*
X2701793Y90636636D01*
X2612189Y90672880D01*
X2574441Y90690639D01*
X2456938Y90756891D01*
X2351056Y90834805D01*
X2257120Y90923099D01*
X2175454Y91020490D01*
X2106385Y91125693D01*
X2050237Y91237426D01*
X2007335Y91354406D01*
X1978005Y91475348D01*
X1962571Y91598970D01*
X1961358Y91723989D01*
X1974693Y91849121D01*
X2002898Y91973082D01*
X2046301Y92094590D01*
X2105226Y92212362D01*
X2165410Y92305322D01*
X2246474Y92404049D01*
X2340029Y92493643D01*
X2443653Y92572438D01*
X2554925Y92638769D01*
X2671425Y92690970D01*
X2772111Y92722822D01*
X2906672Y92748825D01*
X3039867Y92758302D01*
X3170605Y92751944D01*
G37*
X6656310Y92752099D02*
X6703779Y92751057D01*
X6741564Y92748999D01*
X6773428Y92745611D01*
X6803139Y92740582D01*
X6834461Y92733597D01*
X6840780Y92732054D01*
X6924119Y92709042D01*
X6998428Y92682613D01*
X7071896Y92649673D01*
X7109455Y92630542D01*
X7223870Y92560843D01*
X7327759Y92478206D01*
X7420247Y92383955D01*
X7500458Y92279417D01*
X7567516Y92165916D01*
X7620545Y92044777D01*
X7658668Y91917325D01*
X7681011Y91784885D01*
X7683099Y91762882D01*
X7686258Y91627038D01*
X7673016Y91493831D01*
X7644002Y91364574D01*
X7599845Y91240580D01*
X7541172Y91123161D01*
X7468614Y91013632D01*
X7382798Y90913304D01*
X7284353Y90823492D01*
X7205925Y90766022D01*
X7097906Y90701391D01*
X6988798Y90651400D01*
X6873594Y90613920D01*
X6814949Y90599810D01*
X6784507Y90594938D01*
X6742391Y90590502D01*
X6692767Y90586700D01*
X6639796Y90583729D01*
X6587642Y90581788D01*
X6540469Y90581073D01*
X6502439Y90581783D01*
X6479153Y90583857D01*
X6459777Y90587050D01*
X6429964Y90591878D01*
X6397356Y90597106D01*
X6288166Y90622214D01*
X6177608Y90662121D01*
X6069068Y90715077D01*
X5965934Y90779331D01*
X5871592Y90853130D01*
X5832948Y90888949D01*
X5741124Y90990329D01*
X5663994Y91100316D01*
X5601241Y91219474D01*
X5552549Y91348364D01*
X5531850Y91422780D01*
X5521600Y91476961D01*
X5513910Y91542788D01*
X5509017Y91614840D01*
X5507164Y91687699D01*
X5508588Y91755947D01*
X5513531Y91814164D01*
X5514277Y91819568D01*
X5542210Y91955295D01*
X5585609Y92083709D01*
X5644232Y92204317D01*
X5717840Y92316630D01*
X5806194Y92420158D01*
X5809585Y92423651D01*
X5908058Y92514497D01*
X6012215Y92590198D01*
X6124183Y92651977D01*
X6246086Y92701058D01*
X6339437Y92728767D01*
X6373540Y92737271D01*
X6402829Y92743478D01*
X6431116Y92747743D01*
X6462211Y92750416D01*
X6499926Y92751850D01*
X6548072Y92752398D01*
X6595390Y92752436D01*
X6656310Y92752099D01*
G36*
X6656310Y92752099D02*
G01*
X6703779Y92751057D01*
X6741564Y92748999D01*
X6773428Y92745611D01*
X6803139Y92740582D01*
X6834461Y92733597D01*
X6840780Y92732054D01*
X6924119Y92709042D01*
X6998428Y92682613D01*
X7071896Y92649673D01*
X7109455Y92630542D01*
X7223870Y92560843D01*
X7327759Y92478206D01*
X7420247Y92383955D01*
X7500458Y92279417D01*
X7567516Y92165916D01*
X7620545Y92044777D01*
X7658668Y91917325D01*
X7681011Y91784885D01*
X7683099Y91762882D01*
X7686258Y91627038D01*
X7673016Y91493831D01*
X7644002Y91364574D01*
X7599845Y91240580D01*
X7541172Y91123161D01*
X7468614Y91013632D01*
X7382798Y90913304D01*
X7284353Y90823492D01*
X7205925Y90766022D01*
X7097906Y90701391D01*
X6988798Y90651400D01*
X6873594Y90613920D01*
X6814949Y90599810D01*
X6784507Y90594938D01*
X6742391Y90590502D01*
X6692767Y90586700D01*
X6639796Y90583729D01*
X6587642Y90581788D01*
X6540469Y90581073D01*
X6502439Y90581783D01*
X6479153Y90583857D01*
X6459777Y90587050D01*
X6429964Y90591878D01*
X6397356Y90597106D01*
X6288166Y90622214D01*
X6177608Y90662121D01*
X6069068Y90715077D01*
X5965934Y90779331D01*
X5871592Y90853130D01*
X5832948Y90888949D01*
X5741124Y90990329D01*
X5663994Y91100316D01*
X5601241Y91219474D01*
X5552549Y91348364D01*
X5531850Y91422780D01*
X5521600Y91476961D01*
X5513910Y91542788D01*
X5509017Y91614840D01*
X5507164Y91687699D01*
X5508588Y91755947D01*
X5513531Y91814164D01*
X5514277Y91819568D01*
X5542210Y91955295D01*
X5585609Y92083709D01*
X5644232Y92204317D01*
X5717840Y92316630D01*
X5806194Y92420158D01*
X5809585Y92423651D01*
X5908058Y92514497D01*
X6012215Y92590198D01*
X6124183Y92651977D01*
X6246086Y92701058D01*
X6339437Y92728767D01*
X6373540Y92737271D01*
X6402829Y92743478D01*
X6431116Y92747743D01*
X6462211Y92750416D01*
X6499926Y92751850D01*
X6548072Y92752398D01*
X6595390Y92752436D01*
X6656310Y92752099D01*
G37*
X5058475Y92564678D02*
X5058500Y92407865D01*
X5058597Y92267208D01*
X5058797Y92141639D01*
X5059131Y92030094D01*
X5059630Y91931507D01*
X5060326Y91844813D01*
X5061250Y91768946D01*
X5062434Y91702841D01*
X5063909Y91645431D01*
X5065705Y91595652D01*
X5067855Y91552438D01*
X5070390Y91514723D01*
X5073340Y91481442D01*
X5076738Y91451529D01*
X5080615Y91423919D01*
X5085001Y91397546D01*
X5089929Y91371345D01*
X5094162Y91350374D01*
X5126071Y91227277D01*
X5170772Y91101969D01*
X5226262Y90978679D01*
X5290537Y90861637D01*
X5361594Y90755074D01*
X5398616Y90707558D01*
X5434159Y90666953D01*
X5478259Y90620372D01*
X5526455Y90572229D01*
X5574285Y90526937D01*
X5617290Y90488909D01*
X5631051Y90477590D01*
X5659611Y90454600D01*
X5684071Y90434677D01*
X5700514Y90421020D01*
X5703930Y90418063D01*
X5703551Y90416210D01*
X5697458Y90414563D01*
X5684783Y90413110D01*
X5664657Y90411840D01*
X5636214Y90410743D01*
X5598584Y90409807D01*
X5550901Y90409020D01*
X5492296Y90408373D01*
X5421902Y90407853D01*
X5338851Y90407450D01*
X5242275Y90407153D01*
X5131306Y90406949D01*
X5005076Y90406830D01*
X4862718Y90406782D01*
X4823252Y90406780D01*
X3929966Y90406780D01*
X4015640Y90475693D01*
X4135245Y90582846D01*
X4242736Y90701758D01*
X4337268Y90831170D01*
X4417995Y90969818D01*
X4484073Y91116442D01*
X4524973Y91235782D01*
X4532978Y91262437D01*
X4540158Y91286355D01*
X4546563Y91308567D01*
X4552240Y91330100D01*
X4557239Y91351984D01*
X4561608Y91375247D01*
X4565397Y91400919D01*
X4568655Y91430028D01*
X4571430Y91463604D01*
X4573772Y91502674D01*
X4575728Y91548269D01*
X4577349Y91601416D01*
X4578682Y91663146D01*
X4579777Y91734486D01*
X4580683Y91816465D01*
X4581449Y91910113D01*
X4582123Y92016458D01*
X4582754Y92136530D01*
X4583392Y92271356D01*
X4584084Y92421967D01*
X4584384Y92486136D01*
X4589221Y93510746D01*
X5058475Y93515328D01*
X5058475Y92564678D01*
G36*
X5058475Y92564678D02*
G01*
X5058500Y92407865D01*
X5058597Y92267208D01*
X5058797Y92141639D01*
X5059131Y92030094D01*
X5059630Y91931507D01*
X5060326Y91844813D01*
X5061250Y91768946D01*
X5062434Y91702841D01*
X5063909Y91645431D01*
X5065705Y91595652D01*
X5067855Y91552438D01*
X5070390Y91514723D01*
X5073340Y91481442D01*
X5076738Y91451529D01*
X5080615Y91423919D01*
X5085001Y91397546D01*
X5089929Y91371345D01*
X5094162Y91350374D01*
X5126071Y91227277D01*
X5170772Y91101969D01*
X5226262Y90978679D01*
X5290537Y90861637D01*
X5361594Y90755074D01*
X5398616Y90707558D01*
X5434159Y90666953D01*
X5478259Y90620372D01*
X5526455Y90572229D01*
X5574285Y90526937D01*
X5617290Y90488909D01*
X5631051Y90477590D01*
X5659611Y90454600D01*
X5684071Y90434677D01*
X5700514Y90421020D01*
X5703930Y90418063D01*
X5703551Y90416210D01*
X5697458Y90414563D01*
X5684783Y90413110D01*
X5664657Y90411840D01*
X5636214Y90410743D01*
X5598584Y90409807D01*
X5550901Y90409020D01*
X5492296Y90408373D01*
X5421902Y90407853D01*
X5338851Y90407450D01*
X5242275Y90407153D01*
X5131306Y90406949D01*
X5005076Y90406830D01*
X4862718Y90406782D01*
X4823252Y90406780D01*
X3929966Y90406780D01*
X4015640Y90475693D01*
X4135245Y90582846D01*
X4242736Y90701758D01*
X4337268Y90831170D01*
X4417995Y90969818D01*
X4484073Y91116442D01*
X4524973Y91235782D01*
X4532978Y91262437D01*
X4540158Y91286355D01*
X4546563Y91308567D01*
X4552240Y91330100D01*
X4557239Y91351984D01*
X4561608Y91375247D01*
X4565397Y91400919D01*
X4568655Y91430028D01*
X4571430Y91463604D01*
X4573772Y91502674D01*
X4575728Y91548269D01*
X4577349Y91601416D01*
X4578682Y91663146D01*
X4579777Y91734486D01*
X4580683Y91816465D01*
X4581449Y91910113D01*
X4582123Y92016458D01*
X4582754Y92136530D01*
X4583392Y92271356D01*
X4584084Y92421967D01*
X4584384Y92486136D01*
X4589221Y93510746D01*
X5058475Y93515328D01*
X5058475Y92564678D01*
G37*
D12*
%TO.C,C101*%
X20701000Y78994000D02*
X19939000Y78994000D01*
%TO.C,R101*%
X17018000Y72263000D02*
X17018000Y73025000D01*
%TO.C,CON103*%
X31940500Y69065000D02*
X31940500Y70358000D01*
X31940500Y18542000D02*
X31940500Y19835000D01*
X34480500Y75184000D02*
X38798500Y75184000D01*
X34480500Y70358000D02*
X31940500Y70358000D01*
X34480500Y70358000D02*
X34480500Y75184000D01*
X34480500Y18542000D02*
X31940500Y18542000D01*
X34480500Y13716000D02*
X34480500Y18542000D01*
X34480500Y13716000D02*
X38798500Y13716000D01*
X38798500Y73660000D02*
X38798500Y75184000D01*
X38798500Y15240000D02*
X44640500Y15240000D01*
X38798500Y13716000D02*
X38798500Y15240000D01*
X44640500Y75184000D02*
X44640500Y73660000D01*
X44640500Y73660000D02*
X38798500Y73660000D01*
X44640500Y15240000D02*
X44640500Y13716000D01*
X45910500Y75184000D02*
X44640500Y75184000D01*
X45910500Y75184000D02*
X45910500Y13716000D01*
X45910500Y13716000D02*
X44640500Y13716000D01*
%TD*%
M02*
