%TF.GenerationSoftware,KiCad,Pcbnew,7.0.8*%
%TF.CreationDate,2023-12-20T10:37:59-05:00*%
%TF.ProjectId,gba-umd,6762612d-756d-4642-9e6b-696361645f70,rev?*%
%TF.SameCoordinates,PX7cc0090PY8eeaea0*%
%TF.FileFunction,Soldermask,Bot*%
%TF.FilePolarity,Negative*%
%FSLAX46Y46*%
G04 Gerber Fmt 4.6, Leading zero omitted, Abs format (unit mm)*
G04 Created by KiCad (PCBNEW 7.0.8) date 2023-12-20 10:37:59*
%MOMM*%
%LPD*%
G01*
G04 APERTURE LIST*
%ADD10C,1.727200*%
G04 APERTURE END LIST*
D10*
%TO.C,CON102*%
X5080000Y83820000D03*
X5080000Y81280000D03*
X5080000Y78740000D03*
X5080000Y76200000D03*
X5080000Y73660000D03*
X5080000Y71120000D03*
X5080000Y68580000D03*
X5080000Y66040000D03*
X5080000Y63500000D03*
X5080000Y60960000D03*
X5080000Y58420000D03*
X5080000Y55880000D03*
X5080000Y53340000D03*
X5080000Y50800000D03*
X5080000Y48260000D03*
X5080000Y45720000D03*
X5080000Y43180000D03*
X5080000Y40640000D03*
X5080000Y38100000D03*
X5080000Y35560000D03*
X5080000Y33020000D03*
X5080000Y30480000D03*
X5080000Y27940000D03*
X5080000Y25400000D03*
X5080000Y22860000D03*
X5080000Y20320000D03*
X5080000Y17780000D03*
X5080000Y15240000D03*
X5080000Y12700000D03*
X5080000Y10160000D03*
X5080000Y7620000D03*
X5080000Y5080000D03*
X22860000Y5080000D03*
X22860000Y7620000D03*
X22860000Y10160000D03*
X22860000Y12700000D03*
X22860000Y15240000D03*
X22860000Y17780000D03*
X22860000Y20320000D03*
X22860000Y22860000D03*
X22860000Y25400000D03*
X22860000Y27940000D03*
X22860000Y30480000D03*
X22860000Y33020000D03*
X22860000Y35560000D03*
X22860000Y38100000D03*
X22860000Y40640000D03*
X22860000Y43180000D03*
X22860000Y45720000D03*
X22860000Y48260000D03*
X22860000Y50800000D03*
X22860000Y53340000D03*
X22860000Y55880000D03*
X22860000Y58420000D03*
X22860000Y60960000D03*
X22860000Y63500000D03*
X22860000Y66040000D03*
X22860000Y68580000D03*
X22860000Y71120000D03*
X22860000Y73660000D03*
X22860000Y76200000D03*
X22860000Y78740000D03*
X22860000Y81280000D03*
X22860000Y83820000D03*
%TD*%
%TO.C,CON101*%
X11938000Y83820000D03*
X11938000Y86360000D03*
X14478000Y83820000D03*
X14478000Y86360000D03*
X17018000Y83820000D03*
X17018000Y86360000D03*
%TD*%
M02*
